<svg width="173" height="188" viewBox="0 0 173 188" fill="none" xmlns="http://www.w3.org/2000/svg">
<path d="M141.741 114.26C148.64 114.26 154.233 119.853 154.233 126.752V129.947H129.245V126.752C129.245 123.438 130.562 120.26 132.905 117.917C135.249 115.575 138.427 114.259 141.741 114.26V114.26Z" fill="#FF7F41"/>
<path d="M141.741 116.862C147.488 116.864 152.147 121.521 152.152 127.269V129.947H131.322V127.269C131.327 121.518 135.99 116.86 141.741 116.862Z" fill="#59CBE8"/>
<rect x="140.939" y="112.846" width="1.59547" height="1.408" fill="#F5B6CD"/>
<path d="M149.125 139.592L145.599 138.978C143.044 138.535 140.432 138.535 137.876 138.978L134.351 139.592C133.084 139.813 131.784 139.463 130.8 138.636C129.815 137.809 129.246 136.589 129.245 135.303V129.947C129.245 129.947 133.911 128.416 141.737 128.416C150.382 128.416 154.231 129.947 154.231 129.947V135.303C154.229 136.589 153.66 137.808 152.675 138.635C151.691 139.462 150.392 139.812 149.125 139.592Z" fill="#FDDA24"/>
<path d="M37.2488 69.2883C32.9597 69.2878 28.8461 70.9913 25.813 74.0239C22.78 77.0566 21.076 81.1701 21.076 85.4592V87.4526H53.4197V85.4592C53.4202 81.1702 51.7167 77.0568 48.6839 74.0241C45.6512 70.9913 41.5377 69.2878 37.2488 69.2883Z" fill="#9063CD"/>
<path d="M21.076 92.4724H53.4197V95.0703C53.4197 97.3133 51.6014 99.1316 49.3583 99.1316H25.1374C22.8943 99.1316 21.076 97.3133 21.076 95.0703V92.4724Z" fill="#9063CD"/>
<rect x="19.1342" y="88.8051" width="36.143" height="5.24937" rx="2.62469" fill="#FF7F41"/>
<path d="M53.3967 85.9853C50.179 85.6562 50.2268 85.5739 46.9919 85.5739C43.757 85.5739 43.757 86.8212 40.5239 86.8212C37.2909 86.8212 37.289 85.5739 34.054 85.5739C30.8191 85.5739 30.821 86.8212 27.586 86.8212C24.3511 86.8212 24.2708 85.2506 21.053 85.5759C20.5537 85.6275 17.1906 89.1494 17.6918 89.2011C21.5657 89.5971 21.5179 90.4445 25.4148 90.4445C29.3116 90.4445 29.3078 89.1992 33.2027 89.1992C37.0977 89.1992 37.0958 90.4465 40.9888 90.4465C44.8818 90.4465 44.8818 89.1992 48.7768 89.1992C52.6717 89.1992 52.9261 90.8214 56.6202 89.6124C57.4639 89.3369 53.8731 86.0331 53.3967 85.9853Z" fill="#00C389"/>
<circle cx="38.1345" cy="73.2215" r="0.663824" fill="#FDDA24"/>
<circle cx="26.09" cy="82.2357" r="0.663824" fill="#FDDA24"/>
<circle cx="29.0189" cy="76.2249" r="0.663824" fill="#FDDA24"/>
<circle cx="35.3339" cy="80.8507" r="0.663824" fill="#FDDA24"/>
<circle cx="45.8115" cy="76.8868" r="0.663824" fill="#FDDA24"/>
<circle cx="50.2498" cy="82.8995" r="0.663824" fill="#FDDA24"/>
<circle cx="41.8764" cy="82.8995" r="0.663824" fill="#FDDA24"/>
<path fill-rule="evenodd" clip-rule="evenodd" d="M119.932 29.1814H139.225L139.217 23.3677C139.143 18.0952 134.848 13.8599 129.575 13.8599C124.302 13.8599 120.006 18.0952 119.932 23.3677V29.1814ZM136.93 26.8858H122.235V23.3677C122.3 19.3563 125.571 16.1383 129.582 16.1383C133.594 16.1383 136.865 19.3563 136.93 23.3677V26.8858Z" fill="#FDDA24"/>
<path d="M145.622 55.6636H113.541L114.432 25.7112H144.731L145.622 55.6636Z" fill="#FF7F41"/>
<path d="M37.4496 124.657C16.8003 124.657 2.88882e-05 107.857 2.88882e-05 87.2077C-0.00531878 82.9081 0.731828 78.6399 2.17898 74.5912C2.54649 73.4662 3.49613 72.6297 4.6585 72.407C5.82086 72.1843 7.01243 72.6107 7.76968 73.5202C8.52693 74.4298 8.73031 75.6789 8.3007 76.7816C7.10577 80.1276 6.49742 83.6547 6.50244 87.2077C6.50244 104.272 20.3834 118.153 37.4477 118.153C54.512 118.153 68.3949 104.272 68.3949 87.2077C68.397 75.3666 61.6431 64.5622 50.9978 59.3768C49.9534 58.8673 49.2603 57.8393 49.1794 56.6802C49.0984 55.521 49.6421 54.4067 50.6055 53.757C51.569 53.1074 52.8058 53.0211 53.8501 53.5306C66.7255 59.8068 74.894 72.8764 74.8935 87.2C74.8993 107.857 58.099 124.657 37.4496 124.657Z" fill="#FF7F41"/>
<path d="M9.77949 70.3576C8.55683 70.3564 7.4382 69.6695 6.884 68.5796C6.3298 67.4898 6.43368 66.1812 7.15289 65.1924C14.1944 55.4895 25.4609 49.7506 37.4497 49.76C39.2458 49.76 40.7018 51.216 40.7018 53.0121C40.7018 54.8083 39.2458 56.2643 37.4497 56.2643C32.4829 56.2467 27.5866 57.4391 23.1841 59.7384C18.9301 61.9629 15.2464 65.1386 12.4195 69.0185C11.8054 69.8627 10.8234 70.3609 9.77949 70.3576Z" fill="#FF7F41"/>
<path d="M157.303 106.103C156.822 106.103 156.351 105.957 155.955 105.684C155.048 105.064 154.105 104.5 153.131 103.995C152.339 103.622 151.814 102.846 151.763 101.973C151.711 101.099 152.14 100.267 152.883 99.8033C153.625 99.3395 154.561 99.3182 155.323 99.7476C156.472 100.344 157.584 101.009 158.652 101.739C159.517 102.332 159.894 103.419 159.584 104.42C159.273 105.422 158.346 106.104 157.298 106.103H157.303Z" fill="#F5B6CD"/>
<path d="M168.814 121.859C167.755 121.86 166.821 121.165 166.518 120.15C165.431 116.495 163.571 113.116 161.062 110.243C160.203 109.246 160.311 107.741 161.304 106.877C162.297 106.013 163.802 106.114 164.67 107.103C167.629 110.493 169.824 114.479 171.106 118.792C171.287 119.4 171.219 120.055 170.918 120.613C170.616 121.17 170.105 121.586 169.497 121.767C169.275 121.83 169.045 121.861 168.814 121.859Z" fill="#F5B6CD"/>
<path d="M140.822 159.419C123.4 159.419 109.219 145.251 109.219 127.823C109.219 110.396 123.4 96.2277 140.822 96.2277C142.143 96.2277 143.214 97.2983 143.214 98.6189C143.214 99.9396 142.143 101.01 140.822 101.01C126.039 101.01 114.002 113.039 114.002 127.823C114.002 142.607 126.039 154.637 140.822 154.637C155.606 154.637 167.636 142.609 167.636 127.823C167.636 127.441 167.636 127.039 167.611 126.651C167.554 125.33 168.579 124.214 169.9 124.157C171.22 124.101 172.337 125.125 172.393 126.446C172.412 126.901 172.422 127.364 172.422 127.823C172.418 145.251 158.245 159.419 140.822 159.419Z" fill="#F5B6CD"/>
<path d="M129.497 75.3736C108.71 75.3736 91.8104 58.4624 91.8104 37.6868C91.8104 16.9112 108.72 -2.66525e-05 129.497 -2.66525e-05C145.054 -0.0070434 159.019 9.54031 164.659 24.0392C165.067 25.0917 164.882 26.282 164.175 27.1616C163.467 28.0412 162.344 28.4766 161.229 28.3037C160.113 28.1308 159.175 27.3759 158.767 26.3234C154.078 14.2469 142.452 6.29112 129.497 6.29386C112.192 6.29386 98.1234 20.3719 98.1234 37.6772C98.1234 54.9826 112.201 69.0606 129.497 69.0606C134.846 69.0625 140.107 67.6974 144.781 65.0949C145.766 64.5444 146.97 64.5614 147.94 65.1397C148.91 65.7179 149.497 66.7695 149.481 67.8983C149.465 69.0271 148.848 70.0616 147.862 70.6121C142.246 73.7373 135.925 75.3763 129.497 75.3736Z" fill="#00C389"/>
<path d="M159.111 58.6288C157.974 58.6273 156.926 58.0145 156.367 57.0246C155.808 56.0347 155.824 54.8207 156.41 53.8462C159.345 48.9647 160.893 43.3751 160.888 37.6792C160.888 35.9359 162.302 34.5226 164.045 34.5226C165.788 34.5226 167.201 35.9359 167.201 37.6792C167.209 44.521 165.351 51.2354 161.828 57.1003C161.255 58.0528 160.223 58.6335 159.111 58.6288Z" fill="#00C389"/>
<circle cx="93.2587" cy="149.441" r="38.5286" fill="#E4AC7B"/>
<rect x="57.988" y="45.8765" width="61.7586" height="117.914" rx="18.8061" fill="#59CBE8"/>
<circle cx="88.8855" cy="156.903" r="3.91407" fill="white"/>
<path d="M115.102 58.9808L115.134 149.297L115.102 149.299L62.631 149.316L62.6271 138.9L62.6003 59L115.102 58.9808Z" fill="white"/>
<path d="M101.582 83.4715L74.3713 86.5324C72.7586 86.7141 71.4558 88.2943 71.4558 90.0677V107.17C71.4558 108.946 72.7586 110.231 74.3713 110.04L101.582 106.979C103.195 106.788 104.498 105.219 104.498 103.444V86.3411C104.498 84.5753 103.195 83.2898 101.582 83.4715Z" fill="#FF7F41"/>
<path d="M74.6544 87.7433L99.9275 81.2065L100.067 89.9701L74.6544 87.7433Z" fill="#59CBE8"/>
<path d="M74.6544 87.7433L103.497 82.471V91.4432L74.6544 87.7433Z" fill="#00C389"/>
<path d="M102.937 88.4971L74.5014 87.0202C72.816 86.9322 71.4558 88.2943 71.4558 90.0677V107.17C71.4558 108.946 72.816 110.449 74.5014 110.537L102.937 112.014C104.622 112.102 105.982 110.74 105.982 108.967V91.864C105.982 90.0887 104.628 88.5851 102.937 88.4971Z" fill="#9063CD"/>
<circle cx="101.957" cy="100.672" r="1.54191" fill="#FDDA24"/>
<rect x="62.629" y="138.89" width="52.4689" height="10.4184" fill="#FDDA24"/>
<path fill-rule="evenodd" clip-rule="evenodd" d="M62.5411 138.804V149.414L115.106 149.395H115.201V138.785L62.6367 138.804H62.5411ZM62.7324 149.223V138.996L115.012 138.976V149.203L62.7324 149.223Z" fill="#FDDA24"/>
<path d="M130.685 153.477C129.366 159.589 126.757 165.35 123.033 170.373C122.166 171.587 121.459 172.907 120.929 174.301C120.257 175.986 115.245 178.492 113.405 177.52L102.621 163.842C100.453 155.265 103.771 146.236 110.977 141.104C112.714 139.87 113.059 139.476 115.127 138.808V129.664L106.99 112.953C105.459 110.567 104.939 107.671 105.543 104.901C106.148 102.132 107.828 99.7155 110.214 98.1847C110.411 98.0581 110.64 97.9916 110.874 97.9934C111.294 97.9946 111.685 98.2112 111.909 98.5673L120.697 112.232L128.286 123.967C130.081 126.742 131.102 129.945 131.246 133.247L131.437 137.482L131.491 138.73V138.762L131.64 142.192C131.808 145.979 131.488 149.772 130.685 153.477Z" fill="#E4AC7B"/>
<path d="M102.625 163.84L113.409 177.518C108.042 174.689 104.123 169.719 102.625 163.84L102.625 163.84Z" fill="#E4AC7B"/>
<path d="M55.8643 125.624L66.668 139.191C69.169 142.332 68.6503 146.905 65.5096 149.406C62.3688 151.907 57.7953 151.389 55.2943 148.248L49.0166 140.364C46.5156 137.223 47.0343 132.65 50.175 130.149L55.8619 125.621L55.8643 125.624Z" fill="#E4AC7B"/>
<path d="M55.8589 110.924L66.6626 124.492C69.1636 127.632 68.6449 132.206 65.5042 134.707C62.3634 137.208 57.7899 136.689 55.289 133.548L49.0112 125.665C46.5103 122.524 47.0289 117.95 50.1697 115.449L55.8565 110.921L55.8589 110.924Z" fill="#E4AC7B"/>
<path d="M55.8547 96.2258L66.6585 109.793C69.1594 112.934 68.6408 117.508 65.5 120.009C62.3592 122.51 57.7857 121.991 55.2848 118.85L49.0058 110.965C46.5049 107.824 47.0236 103.251 50.1643 100.75L55.8511 96.2214L55.8547 96.2258Z" fill="#E4AC7B"/>
<path d="M55.855 81.526L57.9785 79.9324L57.9823 87.7433L55.855 81.526Z" fill="#E4AC7B"/>
<path d="M55.8512 81.5263L66.6549 95.0938C69.1559 98.2346 68.6372 102.808 65.4965 105.309C62.3557 107.81 57.7822 107.291 55.2813 104.151L49.0035 96.2668C46.5026 93.1261 47.0212 88.5526 50.162 86.0516L55.8488 81.5233L55.8512 81.5263Z" fill="#E4AC7B"/>
<ellipse cx="129.581" cy="40.6884" rx="8.49389" ry="6.67267" fill="#00C389"/>
</svg>
