<svg width="75" height="116" viewBox="0 0 75 116" fill="none" xmlns="http://www.w3.org/2000/svg">
<g clip-path="url(#clip0)">
<path d="M63.2119 77.1868C60.7347 77.1868 58.7358 75.1709 58.7358 72.7107V35.3987C58.7358 32.9214 60.7518 30.9226 63.2119 30.9226C65.6721 30.9226 67.688 32.9385 67.688 35.3987V72.7107C67.688 75.1709 65.6891 77.1868 63.2119 77.1868Z" fill="#F5B6CD"/>
<path d="M58.958 62.7677C57.1812 62.7677 55.7461 61.3326 55.7461 59.5558V28.7358C55.7461 28.582 55.7461 28.4283 55.7461 28.2916L55.729 27.6424L55.6778 26.959C55.6778 26.8565 55.6607 26.7369 55.6607 26.7028L55.6436 26.5832C55.319 23.7472 54.2769 21.0308 52.6368 18.7415C51.6117 17.3064 51.9363 15.3075 53.3714 14.2654C54.8065 13.2403 56.8053 13.5649 57.8475 15C60.1197 18.1606 61.5548 21.885 61.999 25.7973C62.0331 26.0706 62.0502 26.2927 62.0673 26.4977L62.1356 27.4032L62.1527 28.1207C62.1527 28.3087 62.1698 28.5308 62.1698 28.787V59.5558C62.1527 61.3326 60.7176 62.7677 58.958 62.7677Z" fill="#FDDA24"/>
<path d="M18.8096 48.0581C16.3324 48.0581 14.3335 46.0422 14.3335 43.582V28.377L14.3506 27.7791C14.3506 27.7449 14.3506 27.7107 14.3506 27.6766C14.3506 27.5228 14.3506 27.3007 14.3847 27.0615L14.4189 26.5661C14.436 26.139 14.4873 25.7631 14.5385 25.4556C14.5385 25.3873 14.5556 25.336 14.5556 25.2677C14.5898 24.8577 14.6581 24.516 14.7093 24.2426C14.7264 24.1572 14.7435 24.0718 14.7606 23.9693L14.7777 23.8497C15.4269 20.3987 16.8791 17.0331 18.9975 14.1116C21.0305 11.2757 23.7811 8.8326 26.9075 7.07292C29.0601 5.85994 31.7936 6.62873 33.0066 8.78135C34.2196 10.934 33.4508 13.6675 31.2982 14.8804C29.2993 16.008 27.5567 17.5456 26.2754 19.3394C24.9258 21.2016 24.0203 23.303 23.5932 25.4385C23.5761 25.5752 23.5419 25.7119 23.5248 25.8485C23.5078 25.9681 23.4736 26.1219 23.4736 26.1731L23.4565 26.2757C23.4394 26.3782 23.4394 26.4636 23.4223 26.5661C23.4053 26.754 23.3711 26.9419 23.3711 27.0444V27.164L23.3369 27.6937C23.3369 27.7278 23.3369 27.762 23.3369 27.7791C23.3369 27.8645 23.3369 27.9499 23.3369 28.0353L23.3198 28.5137V29.0604V43.5649C23.2857 46.0422 21.2868 48.0581 18.8096 48.0581Z" fill="#F5B6CD"/>
<path d="M62.9386 28.8383C61.0764 28.8383 59.4363 27.4886 59.1459 25.5923C58.9751 24.4647 58.7871 23.5934 58.548 22.8417L58.3429 22.1583L58.1038 21.475C58.0525 21.3554 58.0183 21.2358 57.9671 21.1162C57.8475 20.7916 57.7279 20.4841 57.6083 20.2449L57.5571 20.1424C56.8224 18.4681 55.8145 16.8622 54.5673 15.3759C52.1926 12.5228 48.9295 10.2848 45.376 9.10594C43.36 8.43965 42.2837 6.25286 42.95 4.23691C43.6505 2.22097 45.8202 1.14466 47.8361 1.81095C52.7906 3.46812 57.1641 6.45787 60.4956 10.4556C62.1698 12.4715 63.5537 14.6754 64.5787 16.9818C64.8008 17.4602 64.9887 17.9214 65.1425 18.3315C65.1937 18.451 65.245 18.5877 65.2963 18.7073L65.3646 18.8952L65.8259 20.2791L65.9284 20.6549C66.253 21.7483 66.5263 22.9442 66.7484 24.4135C67.073 26.5148 65.6379 28.4795 63.5537 28.8041C63.3486 28.8212 63.1436 28.8383 62.9386 28.8383Z" fill="#00C389"/>
<path d="M16.4691 23.5251C15.8882 23.5251 15.2902 23.4055 14.7094 23.1663C12.4372 22.1925 11.3779 19.5615 12.3517 17.2722C14.2823 12.7449 17.3233 8.79842 21.1331 5.82576C22.9782 4.35651 25.0625 3.10936 27.3347 2.11847C27.6251 1.98179 27.8643 1.87929 28.0693 1.81095L28.2743 1.72553C28.3426 1.70845 28.411 1.67428 28.4622 1.64011C28.6502 1.57177 28.8723 1.48635 29.1285 1.38384L29.2139 1.36676C29.3335 1.33259 29.4531 1.28134 29.5898 1.24717C29.9827 1.1105 30.4098 0.956737 30.9224 0.837147L31.8278 0.580882L33.1604 0.273365L34.3221 0.068354C36.7652 -0.358753 39.0887 1.26425 39.5158 3.69022C39.9429 6.13327 38.3199 8.45674 35.8939 8.88384L34.8688 9.07177L33.9463 9.27678L33.2287 9.48179C33.0408 9.53305 32.7846 9.61847 32.4941 9.72097C32.3574 9.77223 32.2037 9.82348 32.067 9.85765C31.9816 9.89182 31.8962 9.92598 31.7937 9.96015C31.7082 9.99432 31.6228 10.0285 31.5374 10.0627C31.4691 10.0968 31.4007 10.1139 31.3495 10.131C31.2641 10.1652 31.1445 10.2164 31.1103 10.2335L30.9907 10.2848C29.4019 10.9852 27.9497 11.8394 26.6855 12.8474L26.6513 12.8645C24.0203 14.8975 21.936 17.631 20.5864 20.7574C19.8517 22.5 18.1946 23.5251 16.4691 23.5251Z" fill="#FF7F41"/>
<path d="M14.3507 69.7722C14.3336 69.7722 14.3336 69.7722 14.3165 69.7722C12.5397 69.7551 11.1217 68.303 11.1388 66.5433L11.3268 49.1173C11.3438 48.1264 11.3438 47.1356 11.3438 46.1788C11.3438 45.7176 11.3438 45.2563 11.3438 44.795V31.7426C11.3438 29.9659 12.7789 28.5308 14.5557 28.5308C16.3324 28.5308 17.7675 29.9659 17.7675 31.7426V44.8121C17.7675 45.2734 17.7675 45.7346 17.7675 46.1788C17.7675 47.1697 17.7675 48.1948 17.7504 49.2198L17.5625 66.6287C17.5283 68.3542 16.1104 69.7722 14.3507 69.7722Z" fill="#59CBE8"/>
<path d="M18.4337 87.3519C18.4166 87.3519 18.3995 87.3519 18.3825 87.3519C15.9052 87.3178 13.9235 85.3018 13.9405 82.8246L14.1968 58.7529C14.231 56.2927 16.2298 54.3109 18.6729 54.3109C18.69 54.3109 18.7071 54.3109 18.7241 54.3109C21.2014 54.3451 23.1831 56.3611 23.1661 58.8383L22.9098 82.91C22.8927 85.3873 20.8938 87.3519 18.4337 87.3519Z" fill="#9063CD"/>
<path d="M37.5 115.438C16.7938 115.438 0 98.6617 0 77.9556V55.2677C0 50.2961 4.03189 46.2642 9.00342 46.2642H65.9795C70.951 46.2642 74.9829 50.2961 74.9829 55.2677V77.9556C75 98.6617 58.2062 115.438 37.5 115.438Z" fill="#9063CD"/>
<path d="M28.992 85.746V98.4567H16.2812L28.992 85.746Z" fill="white"/>
<path d="M45.9907 72.8645V59.5729H59.2823L45.9907 72.8645Z" fill="white"/>
<path d="M23.525 95.8087C22.8075 95.8087 22.09 95.5353 21.5262 94.9886C17.2551 90.7175 14.9146 85.0626 14.9146 79.0319C14.9146 73.0011 17.2551 67.3292 21.5262 63.0752C25.7802 58.8212 31.4521 56.4636 37.4829 56.4636H37.5C39.0546 56.4636 40.3189 57.7278 40.3189 59.2825C40.3189 60.8371 39.0546 62.1014 37.5 62.1014C37.5 62.1014 37.5 62.1014 37.4829 62.1014C32.9556 62.1014 28.7187 63.8611 25.5239 67.0558C22.3291 70.2506 20.5694 74.5046 20.5694 79.0319C20.5694 83.5592 22.3291 87.8132 25.5239 91.008C26.6173 92.1014 26.6173 93.8952 25.5239 94.9886C24.9772 95.5353 24.2426 95.8087 23.525 95.8087Z" fill="white"/>
<path d="M37.5001 101.6C35.9283 101.6 34.6812 100.336 34.6812 98.7813C34.6812 97.2267 35.9454 95.9624 37.5001 95.9624C42.0274 95.9624 46.2643 94.2028 49.4761 91.008C56.0878 84.3964 56.0878 73.6504 49.4761 67.0558C48.3827 65.9624 48.3827 64.1686 49.4761 63.0752C50.5695 61.9818 52.3634 61.9818 53.4568 63.0752C62.2552 71.8736 62.2552 86.2073 53.4568 95.0057C49.2028 99.2426 43.5308 101.6 37.5001 101.6Z" fill="white"/>
</g>
<defs>
<clipPath id="clip0">
<rect width="75" height="115.438" fill="white"/>
</clipPath>
</defs>
</svg>
