<svg width="472" height="215" viewBox="0 0 472 215" fill="none" xmlns="http://www.w3.org/2000/svg">
<path d="M460.785 62.2066C456.772 66.1782 452.525 69.9258 447.953 73.2214C447.383 73.635 446.841 74.0893 446.249 74.4707L444.5 75.654C443.329 76.4347 442.188 77.2636 440.969 77.9663L437.363 80.1559L433.656 82.1637C432.437 82.8646 431.145 83.4181 429.886 84.0388L427.987 84.9499C427.36 85.2666 426.699 85.503 426.056 85.784C424.761 86.3204 423.473 86.879 422.172 87.3993L418.216 88.8253L417.228 89.1825C416.898 89.3005 416.56 89.3897 416.226 89.4955L414.216 90.1062C412.875 90.5107 411.543 90.9477 410.177 91.2551L406.103 92.2712L401.986 93.0786C396.485 94.0496 390.926 94.7496 385.348 94.8521C384.651 94.8716 383.954 94.9287 383.258 94.9165L381.168 94.8925L379.077 94.8695C378.729 94.864 378.381 94.8672 378.033 94.8544L376.99 94.7898L372.82 94.532C371.434 94.3925 370.053 94.2234 368.669 94.0721C367.281 93.9478 365.912 93.6878 364.538 93.468C363.165 93.2394 361.786 93.0446 360.432 92.7204C359.073 92.4206 357.708 92.1464 356.354 91.8284L352.322 90.7459C346.981 89.1862 341.739 87.2789 336.674 84.9612" stroke="#59CBE8" stroke-width="10.2115" stroke-linecap="round" stroke-linejoin="round"/>
<path d="M389.614 99.5044C374.18 100.607 358.554 98.4877 343.891 93.3487C329.224 88.2237 315.52 80.0777 303.82 69.4737" stroke="#FDDA24" stroke-width="11.7467" stroke-linecap="round" stroke-linejoin="round"/>
<path d="M22.587 208.711C21.43 201.505 20.6938 194.201 20.6917 186.859C20.6886 185.941 20.6203 185.026 20.6686 184.107L20.7506 181.353C20.8173 179.517 20.8105 177.68 20.9985 175.846L21.4355 170.344L22.1435 164.86C22.3341 163.027 22.7379 161.219 23.044 159.399L23.5331 156.673C23.6775 155.761 23.9344 154.868 24.129 153.965C24.5538 152.165 24.949 150.357 25.3951 148.561L26.9187 143.215L27.2987 141.878C27.4269 141.432 27.5921 140.998 27.7368 140.557L28.6325 137.92C29.2333 136.163 29.7926 134.393 30.5166 132.676L32.5701 127.488L34.8808 122.399C38.0826 115.676 41.6202 109.079 45.8116 102.884C46.3279 102.106 46.8044 101.3 47.3538 100.544L48.9913 98.2665L50.6272 95.9887C50.9015 95.6101 51.1671 95.225 51.4493 94.8525L52.3227 93.7537L55.8136 89.3577C57.0308 87.9353 58.2773 86.5374 59.5065 85.125C60.7098 83.6887 62.0431 82.3698 63.3382 81.016C64.6412 79.6708 65.913 78.2936 67.3044 77.0356C68.6727 75.7557 70.0188 74.4511 71.4035 73.1884L75.6703 69.5257C81.4584 64.7616 87.542 60.3527 93.9279 56.4261" stroke="#59CBE8" stroke-width="11.0384" stroke-linecap="round" stroke-linejoin="round"/>
<path d="M58.6105 78.8406C73.2578 63.8128 90.943 51.8502 110.318 43.7877C129.685 35.7074 150.744 31.5298 171.942 31.6295" stroke="#FDDA24" stroke-width="10.981" stroke-linecap="round" stroke-linejoin="round"/>
<path d="M113.726 48.2138C132.553 40.8577 152.63 37.1696 172.46 37.3658C192.29 37.5445 211.872 41.6099 229.736 49.3189" stroke="#FF7F41" stroke-width="11.6144" stroke-linecap="round" stroke-linejoin="round"/>
</svg>
