<svg width="132" height="101" viewBox="0 0 132 101" fill="none" xmlns="http://www.w3.org/2000/svg">
<path d="M6.36623 3.85377C6.01163 7.90836 5.89511 12.0007 6.18845 16.085C6.22352 16.5956 6.22225 17.1076 6.28596 17.6166L6.44198 19.145C6.55276 20.1636 6.62265 21.1858 6.80076 22.1984L7.26455 25.2414L7.87832 28.2632C8.05787 29.2754 8.35501 30.2651 8.59825 31.265L8.97966 32.7618C9.09656 33.2632 9.27525 33.7494 9.41977 34.2443C9.72826 35.2286 10.0205 36.2181 10.3407 37.1991L11.4026 40.1121L11.6677 40.8404C11.7568 41.083 11.8661 41.3182 11.9643 41.5577L12.5683 42.9885C12.973 43.9418 13.3551 44.9039 13.8267 45.8296L15.177 48.6335L16.6664 51.371C18.7171 54.9826 20.9494 58.5099 23.5293 61.7881C23.8477 62.2003 24.1451 62.6291 24.481 63.0276L25.4832 64.2288L26.4846 65.4303C26.6523 65.6299 26.8155 65.8334 26.9874 66.0293L27.5173 66.6054L29.6354 68.9107C30.3695 69.6531 31.119 70.3807 31.8594 71.117C32.5863 71.8677 33.3808 72.5478 34.1555 73.2489C34.9343 73.9449 35.6969 74.66 36.5213 75.3039C37.3337 75.961 38.1349 76.6327 38.9557 77.2795L41.476 79.1457C44.8867 81.5635 48.4475 83.772 52.1571 85.7" stroke="#59CBE8" stroke-width="6.15597" stroke-linecap="round" stroke-linejoin="round"/>
<path d="M31.6131 74.6486C40.3633 82.4203 50.6804 88.3651 61.781 92.0727C72.878 95.7905 84.7592 97.2697 96.5466 96.364" stroke="#FDDA24" stroke-width="6.12396" stroke-linecap="round" stroke-linejoin="round"/>
<path d="M63.4989 89.474C74.2667 92.8106 85.5823 94.0569 96.6045 93.1524C107.628 92.2576 118.357 89.2109 127.984 84.2063" stroke="#FF7F41" stroke-width="6.47723" stroke-linecap="round" stroke-linejoin="round"/>
</svg>
