<svg width="67" height="132" viewBox="0 0 67 132" fill="none" xmlns="http://www.w3.org/2000/svg">
<g clip-path="url(#clip0)">
<path d="M6.15583 120.462C15.5936 115.37 24.0511 108.514 31.1375 100.468C34.6692 96.4431 37.8713 92.1112 40.6614 87.5538C43.4514 82.9964 45.8362 78.1675 47.7953 73.2048" stroke="#FF7F41" stroke-width="8.0382" stroke-miterlimit="10" stroke-linecap="round"/>
<path d="M55.2461 47.5963C55.8302 40.9979 55.7454 34.3233 54.9218 27.7263C54.8579 26.8958 54.6987 26.0745 54.5625 25.2567L54.1802 22.7836C54.1236 22.3764 54.0211 21.9623 53.9415 21.5517L53.6764 20.3393L53.1726 17.895L52.5471 15.4796L52.2361 14.2604C52.1302 13.8693 52.0277 13.4552 51.8988 13.0607L51.1518 10.674C50.894 9.88498 50.6626 9.07641 50.3555 8.30347" stroke="#F5B6CD" stroke-width="5.74157" stroke-miterlimit="10" stroke-linecap="round"/>
<path d="M42.2685 92.6724C42.9443 91.6001 43.6396 90.5543 44.3154 89.4821L46.2119 86.199C46.5268 85.6595 46.8223 85.0936 47.1177 84.5277L47.9775 82.8495L48.4092 81.999C48.5454 81.7143 48.7046 81.4331 48.8179 81.145L49.6158 79.4107C51.7071 74.8196 53.4943 70.0659 54.8327 65.1749C56.1907 60.3104 57.1917 55.3222 57.7992 50.299C58.3838 45.2723 58.5519 40.207 58.3689 35.1364" stroke="#59CBE8" stroke-width="3.06217" stroke-miterlimit="10" stroke-linecap="round"/>
</g>
<defs>
<clipPath id="clip0">
<rect width="125.799" height="47.4938" fill="white" transform="matrix(-0.147333 0.989087 0.989087 0.147333 19.1536 0.137024)"/>
</clipPath>
</defs>
</svg>
