<svg width="20" height="38" viewBox="0 0 20 38" fill="none" xmlns="http://www.w3.org/2000/svg">
<path d="M15.3932 30.4853C16.4016 29.4181 17.4183 28.3678 18.4351 27.309C18.7081 27.0275 19.0191 26.725 19.4014 27.0737C19.8131 27.4435 19.5316 27.8174 19.2543 28.1199C17.5696 29.9727 15.8764 31.8256 14.1748 33.6616C13.0824 34.838 11.9774 36.0102 10.8557 37.1656C10.2339 37.8042 9.67926 37.8294 9.01544 37.1908C6.79288 35.0691 4.59132 32.9179 2.38557 30.7794C1.80997 30.2206 1.23858 29.6492 0.679788 29.0736C0.503327 28.8888 0.322666 28.6745 0.247039 28.4392C0.184019 28.2501 0.200825 27.9392 0.318465 27.8216C0.444508 27.6955 0.768018 27.6493 0.944478 27.725C1.23858 27.851 1.51167 28.0653 1.73855 28.2921C4.20479 30.7416 6.65843 33.2036 9.14988 35.6951C9.16249 35.506 9.1919 35.2665 9.1961 35.0271C9.34315 27.8888 9.47759 20.7464 9.63725 13.6039C9.72548 9.60836 9.84732 5.6128 9.96076 1.61723C9.96496 1.33574 9.97336 1.03323 10.0826 0.781145C10.175 0.579475 10.4271 0.310584 10.5868 0.318986C10.7674 0.33159 11.0447 0.608885 11.0741 0.806353C11.1666 1.36094 11.1834 1.93234 11.1708 2.49953C11.0531 8.38995 10.9229 14.2762 10.7926 20.1624C10.6834 25.0781 10.5784 29.9979 10.4649 34.9178C10.4565 35.1279 10.4187 35.5774 10.3935 35.7875C10.4775 35.8043 13.7925 32.1869 15.3932 30.4853Z" fill="white"/>
</svg>
