<svg xmlns="http://www.w3.org/2000/svg" viewBox="0 0 391.49 391.51"><defs><style>.cls-1{fill:#ff7f41;}</style></defs><g id="Capa_2" data-name="Capa 2"><g id="Layer_1" data-name="Layer 1"><path class="cls-1" d="M195.76,391.51C87.82,391.51,0,303.69,0,195.75A195.25,195.25,0,0,1,11.39,129.8a17,17,0,0,1,32.32,10.56c-.1.3-.21.6-.32.89a161.19,161.19,0,0,0-9.4,54.5c0,89.2,72.56,161.76,161.76,161.76S357.52,285,357.52,195.75A161.79,161.79,0,0,0,266.58,50.27a17,17,0,0,1,14.91-30.56,195.81,195.81,0,0,1,110,176C391.52,303.69,303.7,391.51,195.76,391.51Z"/><path class="cls-1" d="M51.12,107.67a17,17,0,0,1-13.73-27A195.49,195.49,0,0,1,195.76,0a17,17,0,0,1,0,34,159.87,159.87,0,0,0-74.57,18.16,163.21,163.21,0,0,0-56.27,48.51A17,17,0,0,1,51.12,107.67Z"/></g></g></svg>