<svg xmlns="http://www.w3.org/2000/svg" viewBox="0 0 394.09 394"><defs><style>.cls-1{fill:#00c389;}</style></defs><g id="Capa_2" data-name="Capa 2"><g id="Layer_1" data-name="Layer 1"><path class="cls-1" d="M197,394C88.34,394,0,305.6,0,197S88.39,0,197,0A197.12,197.12,0,0,1,380.8,125.66,16.52,16.52,0,0,1,350,137.6h0A164.09,164.09,0,0,0,197,32.9c-90.46,0-164,73.59-164,164S106.59,361,197,361a164.13,164.13,0,0,0,79.89-20.73A16.52,16.52,0,0,1,293,369.11h0A197.27,197.27,0,0,1,197,394Z"/><path class="cls-1" d="M351.8,306.47a16.5,16.5,0,0,1-14.12-25A163.73,163.73,0,0,0,361.09,197a16.5,16.5,0,1,1,33,0A196.71,196.71,0,0,1,366,298.48,16.5,16.5,0,0,1,351.8,306.47Z"/></g></g></svg>