<svg xmlns="http://www.w3.org/2000/svg" viewBox="0 0 330.38 330.32"><defs><style>.cls-1{fill:#f5b6cd;}</style></defs><g id="Capa_2" data-name="Capa 2"><g id="Layer_1" data-name="Layer 1"><path class="cls-1" d="M251.35,51.62a12.4,12.4,0,0,1-7-2.19,142.1,142.1,0,0,0-14.76-8.83A12.5,12.5,0,0,1,240.19,18q.42.19.81.42a167,167,0,0,1,17.4,10.41,12.5,12.5,0,0,1-7.08,22.81Z"/><path class="cls-1" d="M311.52,134a12.5,12.5,0,0,1-12-8.93A139,139,0,0,0,271,73.26a12.5,12.5,0,0,1,18.86-16.41A163.92,163.92,0,0,1,323.5,118a12.5,12.5,0,0,1-8.41,15.55h0A12.65,12.65,0,0,1,311.52,134Z"/><path class="cls-1" d="M165.2,330.32C74.13,330.32,0,256.26,0,165.16S74.13,0,165.2,0a12.5,12.5,0,0,1,0,25C87.92,25,25,87.88,25,165.16S87.92,305.32,165.2,305.32s140.16-62.87,140.16-140.16c0-2,0-4.1-.13-6.13a12.51,12.51,0,1,1,25-1.07h0c.1,2.38.15,4.8.15,7.2C330.36,256.26,256.27,330.32,165.2,330.32Z"/></g></g></svg>