<svg xmlns="http://www.w3.org/2000/svg" viewBox="0 0 441.01 742.76"><defs><style>.cls-1{fill:#e4ac7b;}.cls-2{fill:#59cbe8;}.cls-3{fill:#fff;}.cls-4{fill:#ff7f41;}.cls-5{fill:#00c389;}.cls-6{fill:#9063cd;}.cls-7{fill:#fdda24;}.cls-8{fill:#cb913f;}</style></defs><g id="Capa_2" data-name="Capa 2"><g id="Layer_1" data-name="Layer 1"><circle class="cls-1" cx="239.61" cy="541.36" r="201.4"/><rect class="cls-2" x="55.24" width="322.83" height="616.37" rx="45.12"/><circle class="cls-3" cx="216.75" cy="580.37" r="20.46"/><polygon class="cls-3" points="353.79 68.5 353.96 540.61 353.79 540.62 79.51 540.71 79.49 486.26 79.35 68.6 353.79 68.5"/><path class="cls-4" d="M283.12,196.52l-142.24,16c-8.43.95-15.24,9.21-15.24,18.48v89.4c0,9.28,6.81,16,15.24,15l142.24-16c8.43-1,15.24-9.2,15.24-18.48v-89.4C298.36,202.29,291.55,195.57,283.12,196.52Z"/><polygon class="cls-2" points="142.36 218.85 274.47 184.68 275.2 230.49 142.36 218.85"/><polygon class="cls-5" points="142.36 218.85 293.13 191.29 293.13 238.19 142.36 218.85"/><path class="cls-6" d="M290.2,222.79l-148.64-7.72c-8.81-.46-15.92,6.66-15.92,15.93v89.4c0,9.28,7.11,17.14,15.92,17.6l148.64,7.72c8.81.46,15.92-6.66,15.92-15.93v-89.4C306.12,231.11,299,223.25,290.2,222.79Z"/><circle class="cls-7" cx="285.08" cy="286.43" r="8.06"/><rect class="cls-7" x="79.5" y="486.21" width="274.27" height="54.46"/><path class="cls-7" d="M79,541.22V485.76h.5l274.77-.1v55.46h-.5Zm1-54.46v53.46l273.28-.1V486.66Z"/><path class="cls-1" d="M435.25,562.46a229.83,229.83,0,0,1-40,88.32,90.79,90.79,0,0,0-11,20.53c-3.51,8.81-29.71,21.91-39.33,16.83l-56.37-71.5a112.18,112.18,0,0,1,43.68-118.86c9.08-6.45,10.88-8.51,21.69-12V438l-42.53-87.35a55.87,55.87,0,0,1,16.84-77.2h0a6.31,6.31,0,0,1,3.45-1,6.42,6.42,0,0,1,5.41,3L383,346.86l39.67,61.34a97.11,97.11,0,0,1,15.47,48.51l1,22.14.28,6.52v.17l.78,17.93A230.55,230.55,0,0,1,435.25,562.46Z"/><path class="cls-1" d="M288.57,616.63l56.37,71.5A112.12,112.12,0,0,1,288.57,616.63Z"/><path class="cls-8" d="M439.45,485.39v0Z"/><path class="cls-1" d="M44.14,416.86l56.47,70.92a38,38,0,0,1-6,53.4h0a38,38,0,0,1-53.4-6.06h0L8.34,493.91a38,38,0,0,1,6.06-53.39h0l29.73-23.68h0Z"/><path class="cls-1" d="M44.11,340l56.47,70.92a38,38,0,0,1-6,53.4h0a38,38,0,0,1-53.4-6h0L8.31,417.08a38,38,0,0,1,6.06-53.4h0L44.1,340Z"/><path class="cls-1" d="M44.09,263.19l56.47,70.92a38,38,0,0,1-6,53.4h0a38,38,0,0,1-53.4-6.06h0L8.29,340.24a38,38,0,0,1,6.05-53.4h0l29.73-23.67h0Z"/><polygon class="cls-1" points="44.09 186.35 55.19 178.02 55.21 218.85 44.09 186.35"/><path class="cls-1" d="M44.07,186.35l56.47,70.92a38,38,0,0,1-6.05,53.4h0a38,38,0,0,1-53.4-6.05h0L8.27,263.4A38,38,0,0,1,14.33,210h0l29.73-23.67h0Z"/></g></g></svg>