<svg xmlns="http://www.w3.org/2000/svg" viewBox="0 0 204.42 156"><defs><style>.cls-1{fill:#9063cd;}.cls-2{fill:#ff7f41;}.cls-3{fill:#00c389;}.cls-4{fill:#fdda24;}</style></defs><g id="Capa_2" data-name="Capa 2"><g id="Layer_1" data-name="Layer 1"><path class="cls-1" d="M102.5,0A84.52,84.52,0,0,0,18,84.52h0V95H187V84.53A84.53,84.53,0,0,0,102.52,0Z"/><path class="cls-1" d="M18,121.19H187v13.58A21.24,21.24,0,0,1,165.8,156H39.19A21.23,21.23,0,0,1,18,134.77V121.19Z"/><rect class="cls-2" x="7.81" y="102.02" width="188.93" height="27.44" rx="13.72"/><path class="cls-3" d="M186.91,87.28c-16.82-1.72-16.57-2.15-33.48-2.15s-16.91,6.52-33.81,6.52-16.91-6.52-33.82-6.52S68.9,91.65,52,91.65s-17.33-8.21-34.15-6.51c-2.61.27-20.19,18.68-17.57,19,20.25,2.07,20,6.5,40.37,6.5s20.35-6.51,40.71-6.51,20.35,6.52,40.7,6.52,20.35-6.52,40.71-6.52,21.69,8.48,41,2.16C208.17,104.8,189.4,87.53,186.91,87.28Z"/><circle class="cls-4" cx="107.13" cy="20.56" r="3.47"/><circle class="cls-4" cx="44.17" cy="67.68" r="3.47"/><circle class="cls-4" cx="59.48" cy="36.26" r="3.47"/><circle class="cls-4" cx="92.49" cy="60.44" r="3.47"/><circle class="cls-4" cx="147.26" cy="39.72" r="3.47"/><circle class="cls-4" cx="170.46" cy="71.15" r="3.47"/><circle class="cls-4" cx="126.69" cy="71.15" r="3.47"/></g></g></svg>