<svg xmlns="http://www.w3.org/2000/svg" viewBox="0 0 130.62 140.15"><defs><style>.cls-1{fill:#ff7f41;}.cls-2{fill:#59cbe8;}.cls-3{fill:#f5b6cd;}.cls-4{fill:#fdda24;}</style></defs><g id="Capa_2" data-name="Capa 2"><g id="Layer_1" data-name="Layer 1"><path class="cls-1" d="M65.32,7.39h0a65.31,65.31,0,0,1,65.3,65.3v16.7H0V72.69A65.31,65.31,0,0,1,65.3,7.39Z"/><path class="cls-2" d="M65.32,21h0a54.44,54.44,0,0,1,54.42,54.4v14H10.86v-14A54.44,54.44,0,0,1,65.32,21Z"/><rect class="cls-3" x="61.13" width="8.34" height="7.36"/><path class="cls-4" d="M103.92,139.81,85.49,136.6a118,118,0,0,0-40.37,0l-18.43,3.21A22.78,22.78,0,0,1,.34,121.28,22.14,22.14,0,0,1,0,117.39v-28s24.39-8,65.3-8c45.19,0,65.31,8,65.31,8v28a22.8,22.8,0,0,1-22.82,22.76A23.89,23.89,0,0,1,103.92,139.81Z"/></g></g></svg>