<svg width="320" height="126" viewBox="0 0 320 126" fill="none" xmlns="http://www.w3.org/2000/svg">
<path d="M72.1931 99.3486C70.6477 99.3486 69.3231 100.526 69.3231 102.219V121.426C69.3231 122.971 70.6477 124.296 72.1931 124.296C73.7386 124.296 75.0632 122.971 75.0632 121.426V102.219C75.0632 100.526 73.7386 99.3486 72.1931 99.3486ZM99.422 78.0806H71.2365V73.4444C71.6044 73.6651 71.8252 73.6651 72.1931 73.6651C73.7386 73.6651 75.0632 72.3405 75.0632 70.7951V50.4102C75.0632 48.7176 73.7386 47.5401 72.1931 47.5401C71.6044 47.5401 71.0157 47.7609 70.6477 47.9081C69.9118 46.3627 68.3664 45.406 66.453 45.406C63.8037 45.406 61.6696 47.5401 61.6696 50.1894V55.5616C61.3016 55.3408 61.0808 55.3408 60.7129 55.3408C59.1674 55.3408 57.8428 56.6655 57.8428 58.2109V80.9507C57.8428 82.4961 59.1674 83.8208 60.7129 83.8208C61.0808 83.8208 61.4488 83.8208 61.6696 83.6C62.0375 85.7342 63.9509 87.6475 66.453 87.6475H70.6477C70.4269 88.0155 70.4269 88.2363 70.4269 88.6042C70.4269 90.1497 71.7516 91.4743 73.297 91.4743H69.4703C67.9248 91.4743 66.6002 92.7989 66.6002 94.3444C66.6002 95.8898 67.9248 97.2144 69.4703 97.2144H89.7815C91.327 97.2144 92.6516 95.8898 92.6516 94.3444C92.6516 92.7989 91.327 91.4743 89.7815 91.4743H93.0196C94.565 91.4743 95.8896 90.1497 95.8896 88.6042C95.8896 88.2363 95.8896 88.0155 95.6689 87.6475H99.3484C101.998 87.6475 104.132 85.3662 104.132 82.8641C104.205 80.1412 102.145 78.0806 99.422 78.0806ZM60.7129 85.7342H46.5097C48.0551 85.7342 49.3798 84.4095 49.3798 82.8641C49.3798 81.3187 48.0551 79.994 46.5097 79.994H7.57977L15.0861 65.4229C14.8653 65.7908 14.8653 66.1588 14.8653 66.6003C14.8653 68.7345 16.5579 69.4704 17.7354 69.4704C18.6921 69.4704 19.428 69.1025 20.0167 68.293L17.1467 74.0331C16.9259 74.4011 16.7787 74.9898 16.7787 75.5785C16.7787 77.2711 17.9562 78.2278 19.6488 78.2278C20.8263 78.2278 21.7829 77.6391 22.2981 76.6824L59.3146 4.19472C59.5354 3.82676 59.6826 3.4588 59.6826 2.87007C59.7562 0.735915 58.2108 0 56.6653 0C55.4879 0 54.5312 0.588732 54.016 1.54542L42.6829 23.7701C42.9037 23.1813 43.0509 22.8134 43.0509 22.2246C43.0509 20.9 41.7262 19.7225 40.4016 19.7225C39.077 19.7225 38.4882 20.0905 37.7523 21.0472L43.6396 9.5669C43.8604 9.19894 44.0076 8.61021 44.0076 7.8743C44.0076 5.96092 42.4622 5.225 40.9167 5.225C39.9601 5.225 39.0034 5.96092 38.2674 7.50634L0.294207 81.5394C-0.073751 82.4961 -0.073751 83.4528 0.514981 84.4095C0.882939 85.1454 1.83963 85.7342 3.01709 85.7342H9.12519C7.57977 85.7342 6.25512 87.0588 6.25512 88.6042C6.25512 90.1497 7.57977 91.4743 9.12519 91.4743H18.3241C16.7787 91.4743 15.4541 92.7989 15.4541 94.3444C15.4541 95.8898 16.7787 97.2144 18.3241 97.2144H50.5572C52.1027 97.2144 53.4273 95.8898 53.4273 94.3444C53.4273 92.7989 52.1027 91.4743 50.5572 91.4743H57.8428V121.426C57.8428 122.971 59.1674 124.296 60.7129 124.296C62.2583 124.296 63.5829 122.971 63.5829 121.426V88.6042C63.5829 87.0588 62.1847 85.7342 60.7129 85.7342Z" fill="#FFD825"/>
<path d="M50.4837 97.2144H18.3242C16.7787 97.2144 15.4541 95.8898 15.4541 94.3444C15.4541 92.7989 16.7787 91.4743 18.3242 91.4743H50.5573C52.1027 91.4743 53.4273 92.7989 53.4273 94.3444C53.4273 95.8898 52.0291 97.2144 50.4837 97.2144ZM93.0932 91.4743H73.3706C71.8252 91.4743 70.5006 90.1497 70.5006 88.6042C70.5006 87.0588 71.8252 85.7342 73.3706 85.7342H93.0932C94.6386 85.7342 95.9632 87.0588 95.9632 88.6042C95.9632 90.1497 94.6386 91.4743 93.0932 91.4743ZM72.1932 73.6651C70.6478 73.6651 69.3231 72.3405 69.3231 70.7951V50.4102C69.3231 48.7176 70.6478 47.5401 72.1932 47.5401C73.7386 47.5401 75.0633 48.7176 75.0633 50.4102V70.7215C75.0633 72.3405 73.7386 73.6651 72.1932 73.6651Z" fill="#8E60FF"/>
<path d="M60.7136 124.296C59.1682 124.296 57.8435 122.971 57.8435 121.426V91.4743H9.12593C7.58051 91.4743 6.25586 90.1496 6.25586 88.6042C6.25586 87.0588 7.58051 85.7342 9.12593 85.7342H60.7136C62.259 85.7342 63.5837 87.0588 63.5837 88.6042V121.426C63.5837 122.971 62.1854 124.296 60.7136 124.296Z" fill="#FC7E43"/>
<path d="M89.8555 97.2144H69.4706C67.9252 97.2144 66.6005 95.8898 66.6005 94.3444C66.6005 92.7989 67.9252 91.4743 69.4706 91.4743H89.7819C91.3273 91.4743 92.652 92.7989 92.652 94.3444C92.652 95.8898 91.4009 97.2144 89.8555 97.2144ZM46.51 85.7342H2.94385C1.76639 85.7342 0.809697 85.1454 0.441739 84.4095C-0.146993 83.4528 -0.146993 82.4961 0.220965 81.5394L38.2678 7.50634C39.0037 5.96092 39.9604 5.15141 40.9171 5.15141C42.4625 5.15141 44.0079 5.88733 44.0079 7.80071C44.0079 8.53662 43.7872 9.12536 43.64 9.49331L7.58012 79.8468H46.51C48.0555 79.8468 49.3801 81.1715 49.3801 82.7169C49.3801 84.2623 48.0555 85.7342 46.51 85.7342Z" fill="#00C482"/>
<path d="M19.6494 78.2278C17.9568 78.2278 16.7793 77.2711 16.7793 75.5785C16.7793 74.9898 17.0001 74.4011 17.1473 74.0331L53.943 1.54542C54.5318 0.588732 55.4885 0 56.6659 0C58.2113 0 59.7568 0.735916 59.7568 2.87007C59.7568 3.4588 59.536 3.82676 59.3888 4.19472L22.3723 76.6824C21.7835 77.7127 20.7532 78.2278 19.6494 78.2278Z" fill="#83E2FF"/>
<path d="M72.194 124.296C70.6486 124.296 69.324 122.971 69.324 121.426V102.219C69.324 100.526 70.6486 99.3486 72.194 99.3486C73.7394 99.3486 75.0641 100.526 75.0641 102.219V121.426C75.0641 122.971 73.7394 124.296 72.194 124.296ZM60.7137 83.8208C59.1683 83.8208 57.8437 82.4961 57.8437 80.9507V58.2845C57.8437 56.7391 59.1683 55.4144 60.7137 55.4144C62.2592 55.4144 63.5838 56.7391 63.5838 58.2845V80.9507C63.5838 82.4961 62.1856 83.8208 60.7137 83.8208ZM17.7363 69.3968C16.5588 69.3968 14.8662 68.6609 14.8662 66.5268C14.8662 66.1588 14.8662 65.5701 15.2342 64.9813L37.3116 21.8567C38.0475 20.3113 38.8571 19.7225 40.4025 19.7225C41.7271 19.7225 43.0518 20.9 43.0518 22.2246C43.0518 22.9606 42.6838 23.7701 42.3159 24.506L20.3856 67.7042C19.7968 68.8817 18.8402 69.3968 17.7363 69.3968Z" fill="#FFABE2"/>
<path d="M99.4224 87.6475H66.4534C63.8041 87.6475 61.6699 85.3662 61.6699 82.8641V50.263C61.6699 47.6137 63.8041 45.4796 66.4534 45.4796C69.1027 45.4796 71.2368 47.6137 71.2368 50.263V78.0806H99.4224C102.072 78.0806 104.206 80.2148 104.206 82.8641C104.206 85.3662 102.145 87.6475 99.4224 87.6475Z" fill="#FFD825"/>
<path d="M190.161 79.994C190.161 92.063 187.291 101.851 181.918 108.548C181.33 109.283 180.741 109.872 180.226 110.461C180.594 109.872 180.594 109.283 180.594 108.768C180.594 108.032 180.373 107.223 179.858 106.634C179.637 106.413 179.269 106.266 178.901 106.045C179.122 106.045 179.122 105.825 179.269 105.677C184.053 99.7166 186.334 91.3271 186.334 79.994V62.7C186.702 62.9208 186.923 62.9208 187.291 62.9208C188.836 62.9208 190.161 61.5961 190.161 60.0507V79.994ZM186.481 28.4063C185.892 27.0817 185.304 25.5363 184.568 24.2116C185.377 25.5363 185.892 26.8609 186.481 28.4063ZM173.823 32.8218C175.737 37.0166 176.693 42.8303 176.693 49.6743V79.994C176.693 88.825 175.001 95.5218 171.689 99.7165C168.23 104.132 163.079 106.045 155.573 106.045C148.066 106.045 142.915 104.132 139.456 99.7165C136.218 95.5218 134.452 88.7514 134.452 79.994C134.452 77.3447 132.318 75.2106 129.668 75.2106C128.491 75.2106 127.534 75.5785 126.798 76.1673V47.7609C126.798 46.2155 125.474 44.8909 123.928 44.8909C122.383 44.8909 121.279 46.0683 121.058 47.393C121.279 38.562 122.972 30.9085 126.21 24.7268C125.474 26.2722 125.989 27.9648 127.387 28.7743C128.932 29.363 130.625 28.9951 131.435 27.4497C131.435 27.4497 131.435 27.2289 131.655 27.2289L131.287 27.8176C128.417 33.5578 126.872 40.8433 126.872 49.6743C126.872 51.2197 128.049 52.5444 129.742 52.5444C131.287 52.5444 132.612 51.2197 132.612 49.6743C132.612 33.5578 137.616 23.7701 147.551 20.6792C148.729 20.3113 149.685 19.1338 149.685 18.0299C149.685 17.662 149.685 17.4412 149.464 17.0732C149.097 15.8958 147.919 15.1599 146.594 15.1599C146.226 15.1599 146.006 15.3806 145.638 15.3806H145.417C148.655 14.4239 151.967 13.8352 155.573 13.8352C165.139 13.8352 172.646 17.294 177.429 23.9908C178.018 24.5796 178.386 25.3155 178.754 26.125C178.018 25.9042 177.061 26.125 176.252 26.493C174.559 27.2289 173.382 28.9951 173.382 30.9085C173.455 31.6444 173.676 32.2331 173.823 32.8218ZM193.031 46.8042C191.338 46.8042 190.161 48.1289 190.161 49.6743V49.8951C190.161 43.1982 189.425 37.0166 187.659 31.8651C188.247 33.0426 189.204 34.1465 190.529 34.1465C192.221 34.1465 193.399 32.969 193.399 31.4972C193.399 31.1292 193.399 30.7613 193.178 30.3197C190.308 20.7528 185.304 13.4673 178.239 8.61022C177.65 8.24226 177.061 8.24226 176.546 8.24226C175.81 8.24226 174.854 8.61022 174.265 9.41972C173.897 10.0085 173.676 10.5972 173.676 11.3331C173.676 11.9218 173.897 12.5106 174.265 13.0257C169.261 9.78768 162.932 8.02148 155.646 8.02148C157.192 8.02148 158.516 6.84402 158.516 5.15141C158.516 3.60599 157.192 2.28134 155.646 2.28134C148.729 2.28134 142.62 3.60599 137.248 6.1081C132.244 8.61022 128.049 12.069 124.591 16.6317C118.482 24.6532 115.392 36.207 115.392 49.6007V79.9204C115.392 81.613 116.569 82.7905 118.262 82.7905C119.807 82.7905 121.132 81.613 121.132 79.9204V79.6997C121.132 91.4007 123.634 100.6 128.417 107.296C127.681 106.119 126.872 104.794 126.136 103.47C125.547 102.513 124.591 101.924 123.634 101.924C123.045 101.924 122.677 102.145 122.309 102.292C121.353 102.881 120.764 103.838 120.764 104.794C120.764 105.162 120.985 105.751 121.132 106.119C124.223 112.08 128.638 117.084 134.157 120.101C140.118 123.56 147.404 125.253 155.646 125.253C169.04 125.253 179.637 120.617 186.555 112.006C192.663 104.132 195.974 93.3877 195.974 79.7732V49.6743C195.901 48.1289 194.576 46.8042 193.031 46.8042Z" fill="#FFD825"/>
<path d="M155.646 119.513C133.422 119.513 121.132 105.53 121.132 79.8468V47.7609C121.132 46.2155 122.309 44.8909 124.002 44.8909C125.547 44.8909 126.872 46.2155 126.872 47.7609V79.7733C126.872 90.5176 129.006 98.9807 133.569 104.721C138.352 110.682 145.638 113.699 155.646 113.699C164.256 113.699 170.953 111.418 175.81 106.634C176.988 105.677 178.68 105.677 179.858 106.634C181.035 107.812 181.035 109.872 179.858 111.05C174.044 116.79 165.802 119.513 155.646 119.513ZM187.291 62.9208C185.598 62.9208 184.421 61.5961 184.421 60.0507V49.8951C184.421 38.93 181.918 29.9518 177.503 23.9909C172.72 17.294 165.213 13.8352 155.646 13.8352C151.82 13.8352 148.361 14.424 145.123 15.5278C139.162 17.4412 134.599 21.4888 131.508 27.4497C130.772 28.9951 129.006 29.363 127.461 28.7743C126.136 28.0384 125.547 26.2722 126.283 24.7268C130.11 17.4412 135.85 12.437 143.356 9.93488C147.036 8.75742 151.01 8.0215 155.646 8.0215C177.503 8.0215 190.161 23.3285 190.161 49.8215V59.9771C190.161 61.5961 188.836 62.9208 187.291 62.9208Z" fill="#8E60FF"/>
<path d="M190.529 34.1465C189.204 34.1465 188.027 32.8218 187.659 31.6444C185.157 23.4021 180.741 17.4412 174.78 13.3937C173.456 12.6577 173.235 10.7444 174.192 9.34612C175.148 8.02147 176.841 7.8007 178.239 8.6102C185.304 13.3937 190.308 20.6792 193.178 30.3197C193.767 32.3803 192.663 34.1465 190.529 34.1465Z" fill="#FC7E43"/>
<path d="M118.188 82.8641C116.496 82.8641 115.318 81.6866 115.318 79.994V49.6743C115.318 36.2806 118.409 24.7268 124.517 16.7053C127.976 12.069 132.171 8.68381 137.175 6.18169C142.547 3.67958 148.655 2.35493 155.573 2.35493C157.118 2.35493 158.443 3.67958 158.443 5.225C158.443 6.91761 157.118 8.09508 155.573 8.09508C145.049 8.09508 134.673 12.7313 128.933 20.532C123.561 27.5968 121.059 37.6053 121.059 49.6743V79.994C121.132 81.6866 119.734 82.8641 118.188 82.8641Z" fill="#00C482"/>
<path d="M129.742 52.5444C128.05 52.5444 126.872 51.2197 126.872 49.6743C126.872 40.8433 128.417 33.5578 131.288 27.8176C134.378 21.7095 139.162 17.294 145.638 15.3806C147.183 15.0127 149.097 15.6014 149.465 17.0732C150.053 18.6187 149.097 20.3113 147.551 20.7528C137.543 23.8437 132.612 33.6313 132.612 49.7479C132.612 51.2197 131.288 52.5444 129.742 52.5444Z" fill="#83E2FF"/>
<path d="M155.646 125.4C147.404 125.4 140.118 123.707 134.158 120.249C128.565 117.158 124.149 112.227 121.132 106.266C120.396 104.942 120.764 103.175 122.309 102.439C123.634 101.704 125.4 102.219 126.136 103.617C131.729 113.993 141.664 119.513 155.646 119.513C167.347 119.513 176.178 115.833 181.918 108.548C187.291 101.851 190.161 92.063 190.161 79.994V49.6743C190.161 48.1289 191.338 46.8042 193.031 46.8042C194.576 46.8042 195.901 48.1289 195.901 49.6743V79.994C195.901 93.6085 192.663 104.353 186.481 112.227C179.564 120.837 169.04 125.4 155.646 125.4Z" fill="#FFABE2"/>
<path d="M155.647 115.686C145.123 115.686 137.249 112.448 132.024 105.677C127.24 99.7166 124.959 91.3271 124.959 79.994C124.959 77.3447 127.093 75.2106 129.742 75.2106C132.392 75.2106 134.526 77.3447 134.526 79.994C134.526 88.825 136.218 95.5218 139.53 99.7166C142.989 104.132 148.14 106.045 155.647 106.045C163.153 106.045 168.304 104.132 171.763 99.7166C175.001 95.5218 176.767 88.7514 176.767 79.994V49.6743C176.767 42.7567 175.811 37.0166 173.897 32.8218C172.941 30.3197 174.118 27.4497 176.399 26.493C178.902 25.3155 181.772 26.493 182.728 28.9951C185.23 34.588 186.408 41.4321 186.408 49.6743V79.994C186.408 91.3271 184.127 99.7166 179.343 105.677C174.045 112.374 166.17 115.686 155.647 115.686Z" fill="#FFD825"/>
<path d="M287.229 99.3486C285.683 99.3486 284.359 100.526 284.359 102.219V121.426C284.359 122.971 285.683 124.296 287.229 124.296C288.774 124.296 290.099 122.971 290.099 121.426V102.219C290.099 100.526 288.7 99.3486 287.229 99.3486ZM314.458 78.0806H286.272V73.4444C286.64 73.6651 286.861 73.6651 287.229 73.6651C288.774 73.6651 290.099 72.3405 290.099 70.7951V50.4102C290.099 48.7176 288.774 47.5401 287.229 47.5401C286.64 47.5401 286.051 47.7609 285.683 47.9081C284.947 46.3627 283.402 45.406 281.489 45.406C278.839 45.406 276.705 47.5401 276.705 50.1894V55.5616C276.337 55.3408 276.116 55.3408 275.748 55.3408C274.203 55.3408 272.878 56.6655 272.878 58.2109V80.9507C272.878 82.4961 274.203 83.8208 275.748 83.8208C276.116 83.8208 276.484 83.8208 276.705 83.6C277.073 85.7342 278.986 87.6475 281.489 87.6475H285.683C285.462 88.0155 285.462 88.2363 285.462 88.6042C285.462 90.1497 286.787 91.4743 288.333 91.4743H284.506C282.96 91.4743 281.636 92.7989 281.636 94.3444C281.636 95.8898 282.96 97.2144 284.506 97.2144H304.817C306.362 97.2144 307.687 95.8898 307.687 94.3444C307.687 92.7989 306.362 91.4743 304.817 91.4743H308.055C309.6 91.4743 310.925 90.1497 310.925 88.6042C310.925 88.2363 310.925 88.0155 310.704 87.6475H314.384C317.033 87.6475 319.167 85.3662 319.167 82.8641C319.241 80.1412 317.107 78.0806 314.458 78.0806ZM275.675 85.7342H261.472C263.017 85.7342 264.342 84.4095 264.342 82.8641C264.342 81.3187 263.017 79.994 261.472 79.994H222.542L230.048 65.4229C229.827 65.7908 229.827 66.1588 229.827 66.6003C229.827 68.7345 231.52 69.4704 232.697 69.4704C233.654 69.4704 234.39 69.1025 234.979 68.293L232.109 74.0331C231.888 74.4011 231.741 74.9898 231.741 75.5785C231.741 77.2711 232.918 78.2278 234.611 78.2278C235.788 78.2278 236.745 77.6391 237.26 76.6824L274.277 4.19472C274.497 3.82676 274.645 3.4588 274.645 2.87007C274.645 0.735915 273.099 0 271.554 0C270.376 0 269.419 0.588732 268.904 1.54542L257.571 23.7701C257.792 23.1813 257.939 22.8134 257.939 22.2246C257.939 20.9 256.615 19.7225 255.29 19.7225C253.965 19.7225 253.377 20.0905 252.641 21.0472L258.602 9.5669C258.822 9.19894 258.969 8.61021 258.969 7.8743C258.969 5.96092 257.424 5.225 255.879 5.225C254.922 5.225 253.965 5.96092 253.229 7.50634L215.256 81.5394C214.888 82.4961 214.888 83.4528 215.477 84.4095C215.845 85.1454 216.802 85.7342 217.979 85.7342H224.087C222.542 85.7342 221.217 87.0588 221.217 88.6042C221.217 90.1497 222.542 91.4743 224.087 91.4743H233.286C231.741 91.4743 230.416 92.7989 230.416 94.3444C230.416 95.8898 231.741 97.2144 233.286 97.2144H265.519C267.065 97.2144 268.389 95.8898 268.389 94.3444C268.389 92.7989 267.065 91.4743 265.519 91.4743H272.805V121.426C272.805 122.971 274.129 124.296 275.675 124.296C277.22 124.296 278.545 122.971 278.545 121.426V88.6042C278.545 87.0588 277.22 85.7342 275.675 85.7342Z" fill="#FFD825"/>
<path d="M265.518 97.2144H233.285C231.74 97.2144 230.415 95.8898 230.415 94.3444C230.415 92.7989 231.74 91.4743 233.285 91.4743H265.518C267.064 91.4743 268.388 92.7989 268.388 94.3444C268.388 95.8898 267.064 97.2144 265.518 97.2144ZM308.128 91.4743H288.405C286.86 91.4743 285.535 90.1497 285.535 88.6042C285.535 87.0588 286.86 85.7342 288.405 85.7342H308.128C309.673 85.7342 310.998 87.0588 310.998 88.6042C310.998 90.1497 309.6 91.4743 308.128 91.4743ZM287.228 73.6651C285.682 73.6651 284.358 72.3405 284.358 70.7951V50.4102C284.358 48.7176 285.682 47.5401 287.228 47.5401C288.773 47.5401 290.098 48.7176 290.098 50.4102V70.7215C290.098 72.3405 288.7 73.6651 287.228 73.6651Z" fill="#8E60FF"/>
<path d="M275.675 124.296C274.129 124.296 272.804 122.971 272.804 121.426V91.4743H224.087C222.541 91.4743 221.217 90.1496 221.217 88.6042C221.217 87.0588 222.541 85.7342 224.087 85.7342H275.675C277.22 85.7342 278.545 87.0588 278.545 88.6042V121.426C278.545 122.971 277.22 124.296 275.675 124.296Z" fill="#FC7E43"/>
<path d="M304.816 97.2144H284.505C282.96 97.2144 281.635 95.8898 281.635 94.3444C281.635 92.7989 282.96 91.4743 284.505 91.4743H304.816C306.362 91.4743 307.686 92.7989 307.686 94.3444C307.686 95.8898 306.362 97.2144 304.816 97.2144ZM261.471 85.7341H217.905C216.727 85.7341 215.771 85.1454 215.403 84.4095C214.814 83.4528 214.814 82.4961 215.182 81.5394L253.155 7.50633C253.891 5.96091 254.848 5.22499 255.804 5.22499C257.35 5.22499 258.895 5.96091 258.895 7.87429C258.895 8.6102 258.674 9.19893 258.527 9.56689L222.467 79.9204H261.397C262.943 79.9204 264.267 81.2451 264.267 82.7905C264.267 84.3359 263.016 85.7341 261.471 85.7341Z" fill="#00C482"/>
<path d="M234.61 78.2278C232.918 78.2278 231.74 77.2711 231.74 75.5785C231.74 74.9898 231.961 74.4011 232.108 74.0331L268.904 1.54542C269.493 0.588732 270.449 0 271.553 0C273.099 0 274.644 0.735916 274.644 2.87007C274.644 3.4588 274.423 3.82676 274.276 4.19472L237.26 76.6824C236.744 77.7127 235.788 78.2278 234.61 78.2278Z" fill="#83E2FF"/>
<path d="M287.229 124.296C285.683 124.296 284.358 122.971 284.358 121.426V102.219C284.358 100.526 285.683 99.3486 287.229 99.3486C288.774 99.3486 290.099 100.526 290.099 102.219V121.426C290.099 122.971 288.7 124.296 287.229 124.296ZM275.675 83.8208C274.129 83.8208 272.805 82.4961 272.805 80.9507V58.2845C272.805 56.7391 274.129 55.4144 275.675 55.4144C277.22 55.4144 278.545 56.7391 278.545 58.2845V80.9507C278.545 82.4961 277.22 83.8208 275.675 83.8208ZM232.697 69.3968C231.52 69.3968 229.827 68.6609 229.827 66.5268C229.827 66.1588 229.827 65.5701 230.195 64.9813L252.273 21.8567C253.008 20.3113 253.818 19.7225 255.363 19.7225C256.688 19.7225 258.013 20.9 258.013 22.2246C258.013 22.9606 257.645 23.7701 257.277 24.506L235.42 67.7042C234.831 68.8817 233.875 69.3968 232.697 69.3968Z" fill="#FFABE2"/>
<path d="M314.458 87.6475H281.489C278.839 87.6475 276.705 85.3662 276.705 82.8641V50.263C276.705 47.6137 278.839 45.4796 281.489 45.4796C284.138 45.4796 286.272 47.6137 286.272 50.263V78.0806H314.458C317.107 78.0806 319.241 80.2148 319.241 82.8641C319.241 85.3662 317.107 87.6475 314.458 87.6475Z" fill="#FFD825"/>
</svg>
