<svg width="269" height="125" viewBox="0 0 269 125" fill="none" xmlns="http://www.w3.org/2000/svg">
<path d="M43.7116 119.244H43.4901C49.1017 119.244 53.9012 118.064 58.3314 116.145C54.2703 118.064 49.4709 119.244 43.7116 119.244ZM18.3116 112.087C22.9634 115.334 28.3535 117.473 33.8913 118.433C27.9105 117.473 22.7419 115.407 18.3116 112.087ZM27.689 9.59268H32.8576C32.636 9.96163 32.636 10.183 32.636 10.5519C32.636 12.1015 33.8174 13.4298 35.5157 13.4298H26.6552L27.689 9.59268ZM44.0808 39.6251C37.1401 39.6251 31.0116 40.2155 25.6215 41.9126C24.2924 42.2816 23.4802 43.4622 23.4802 44.7904L23.7017 45.5283C24.0709 46.8566 25.2523 47.6682 26.5814 47.6682L27.3198 47.4469C32.1192 45.8973 37.5093 45.1594 43.8593 45.1594C41.5704 45.1594 40.389 46.4876 40.389 48.0372C40.389 48.9965 40.7581 49.7344 41.5703 50.3247C32.1192 50.546 21.9297 54.9734 15.9488 60.729L20.6006 40.732C20.8221 40.9534 21.1913 41.1009 21.5605 41.1009H22.1512C23.4802 41.1009 24.6616 40.363 25.0308 38.961L29.461 19.1854H70.6622C72.2128 19.1854 73.5419 17.8571 73.5419 16.3076C73.5419 14.758 72.2128 13.4298 70.6622 13.4298H77.3814C78.932 13.4298 80.261 12.1015 80.261 10.5519C80.261 9.00236 78.932 7.67414 77.3814 7.67414H75.2401C75.8308 6.93625 76.2 5.97698 76.2 4.79634C76.2 2.28749 74.0587 0 71.4006 0H23.8494C21.5605 0 19.6407 1.54959 19.1977 3.83707L18.0163 8.63341C17.7948 8.26446 17.4256 8.04309 17.0564 8.04309C15.5058 7.67414 13.9552 8.63341 13.586 10.183L3.47035 54.8259C3.10116 56.3754 4.06105 58.294 5.98081 58.294H6.57151L5.98081 60.9504C5.39012 63.6068 7.30988 66.706 10.1895 66.706C10.7802 66.706 11.5186 66.706 12.1093 66.4846C11.8878 67.4439 12.4785 68.4032 13.4384 68.9935C14.7674 69.7314 16.5395 69.3625 17.2779 68.0342C22.2988 59.6222 31.75 56.1541 41.9395 56.1541C56.1901 56.1541 67.3395 65.7468 67.3395 79.6192C67.3395 96.0006 58.8483 107.881 43.2686 107.881C29.8302 107.881 21.1174 102.494 16.1703 91.1305C15.8012 89.9498 14.6198 89.2119 13.6599 89.2119C13.0692 89.2119 12.7 89.4333 12.3308 89.5809C11.3709 89.9498 10.6326 91.1305 10.6326 92.0897C10.6326 92.6801 10.8541 93.049 11.0017 93.4179C12.5523 97.1074 14.4721 100.133 16.761 102.863C16.3919 102.494 15.8012 102.273 15.2105 102.273C14.4721 102.273 13.6599 102.642 13.0692 103.011C12.4785 103.601 12.1093 104.339 12.1093 105.151C12.1093 105.962 12.3308 106.479 12.8477 107.069L13.4384 107.807C10.3372 104.56 7.82674 100.502 5.53779 95.4841C5.1686 94.5248 3.98721 93.9345 2.87965 93.9345C2.51047 93.9345 2.14128 93.9345 1.69826 94.1558C0.738372 94.5986 0 95.7792 0 96.7385C0 97.3288 0.221512 97.6978 0.369186 98.0667C4.79942 108.102 10.7802 114.965 18.6808 119.392C25.4 123.229 33.6698 125 43.7116 125C57.15 125 67.561 118.285 73.5419 112.087C73.911 111.496 74.2802 110.759 74.2802 110.168C74.2802 109.43 73.911 108.619 73.3204 108.028C72.7297 107.438 71.9913 107.069 71.4006 107.069C70.6622 107.069 69.85 107.438 69.2593 108.028L68.2994 108.988C72.3605 104.782 75.3878 99.1736 77.1599 93.049C76.9384 94.5986 77.7506 95.7054 79.0797 96.1482C79.4488 96.3695 79.6703 96.3695 79.818 96.3695C81.1471 96.3695 82.3285 95.6316 82.6977 94.2296C84.0267 89.5809 84.6174 84.4156 84.6174 79.0289C84.6913 55.7851 66.3797 39.6251 44.0808 39.6251Z" fill="#FFD825"/>
<path d="M43.4903 119.244C31.7502 119.244 20.7484 116.145 12.9217 107.143C11.7403 105.962 11.9618 104.265 13.1432 103.084C14.3246 102.125 16.2444 102.125 17.2043 103.306C23.3328 110.242 31.824 113.489 43.5641 113.489C62.0234 113.489 73.1729 99.0998 73.1729 79.6192C73.1729 62.8689 60.1037 50.9888 43.3426 50.9888C41.6444 50.9888 40.463 49.6606 40.463 48.111C40.463 46.5614 41.6444 45.2332 43.9333 45.2332C63.2048 45.2332 78.9322 59.1057 78.9322 79.693C78.9322 101.535 65.7891 119.244 43.4903 119.244Z" fill="#8E60FF"/>
<path d="M79.8922 96.3695C79.6707 96.3695 79.523 96.3695 79.1539 96.1482C77.6033 95.7792 76.8649 94.2296 77.2341 92.6801C78.4155 88.474 78.9323 83.8253 78.9323 79.6192C78.9323 59.0319 63.1312 45.1594 43.9335 45.1594C37.5835 45.1594 32.1934 45.8973 27.394 47.4469C25.8434 47.8158 24.2928 47.0779 23.7021 45.5283C23.3329 43.9788 24.0713 42.4292 25.6219 41.8388C31.012 40.1417 37.1405 39.5514 44.0812 39.5514C66.38 39.5514 84.6916 55.7113 84.6916 78.9551C84.6916 84.3418 84.101 89.5071 82.7719 94.1558C82.3289 95.5579 81.2213 96.3695 79.8922 96.3695ZM77.3818 13.4298H35.5899C33.8916 13.4298 32.7103 12.1015 32.7103 10.552C32.7103 9.00237 33.8916 7.67415 35.5899 7.67415H77.3818C78.9324 7.67415 80.2614 9.00237 80.2614 10.552C80.2614 12.1015 78.9324 13.4298 77.3818 13.4298Z" fill="#FC7E43"/>
<path d="M43.2684 113.636C27.9102 113.636 16.9085 107.29 10.9277 93.4179C10.1893 91.8684 10.9277 90.1712 12.2568 89.5809C13.8073 88.843 15.5056 89.5809 16.0963 91.1305C21.1172 102.494 29.7562 107.881 43.1945 107.881C58.7742 107.881 67.2655 95.9268 67.2655 79.6192C67.2655 65.7468 56.1161 56.1541 41.8655 56.1541C31.6759 56.1541 22.2248 59.6222 17.2038 68.108C16.4655 69.4362 14.6934 69.8052 13.3643 69.0673C12.0352 68.3294 11.4445 66.4109 12.4044 65.0089C17.0562 57.1133 30.1254 50.3985 41.8655 50.3985C58.7742 50.3985 73.0248 62.1311 73.0248 79.6192C73.0986 98.4357 62.5399 113.636 43.2684 113.636ZM9.00792 56.3754C8.63873 57.925 7.45734 58.294 5.90676 58.294C3.98699 58.294 3.02711 56.3754 3.39629 54.8259L13.5858 10.183C13.955 8.63341 15.5056 7.67414 17.0562 8.04309C18.6068 8.41204 19.5666 10.183 19.1975 11.7326L9.00792 56.3754Z" fill="#00C482"/>
<path d="M22.1512 41.1747H21.5605C20.01 40.8058 18.9024 39.2562 19.2716 37.7066L24.2925 15.791C24.514 14.4628 25.8431 13.5035 27.1722 13.5035H70.6623C72.2129 13.5035 73.5419 14.8318 73.5419 16.3813C73.5419 17.9309 72.2129 19.2591 70.6623 19.2591H29.4611L25.0309 39.0348C24.6617 40.363 23.4803 41.1747 22.1512 41.1747Z" fill="#83E2FF"/>
<path d="M43.7122 125C33.6703 125 25.4005 123.303 18.6813 119.392C10.7808 114.965 4.79996 108.028 0.369724 98.0667C-0.368648 96.5171 0.369724 94.82 1.69879 94.2296C3.24938 93.6393 4.94763 94.2296 5.53833 95.5579C13.2174 112.456 25.7697 119.244 43.6383 119.244C56.3383 119.244 64.2389 113.489 69.2598 108.102C70.4412 106.921 72.1395 106.921 73.3209 108.102C74.5023 109.061 74.5023 110.98 73.5424 112.161C67.5616 118.285 57.1505 125 43.7122 125Z" fill="#FFABE2"/>
<path d="M10.1897 66.706C7.31001 66.706 5.39024 63.6068 5.98094 60.9504L19.2716 3.83707C19.6408 1.54959 21.5606 0 23.8495 0H71.4007C74.0588 0 76.2001 2.28749 76.2001 4.79634C76.2001 7.45277 74.0588 9.59268 71.4007 9.59268H27.6891L15.3583 63.0903C14.8414 65.3778 12.9216 66.706 10.1897 66.706Z" fill="#FFD825"/>
<path d="M170.71 78.66C170.71 90.7615 167.83 100.576 162.44 107.29C161.85 108.028 161.259 108.619 160.742 109.209C161.111 108.619 161.111 108.028 161.111 107.512C161.111 106.774 160.89 105.962 160.373 105.372C160.151 105.151 159.782 105.003 159.413 104.782C159.634 104.782 159.634 104.56 159.782 104.413C164.582 98.4357 166.87 90.0236 166.87 78.66V61.3194C167.24 61.5407 167.461 61.5407 167.83 61.5407C169.381 61.5407 170.71 60.2125 170.71 58.6629V78.66ZM167.092 26.9333C166.501 25.6051 165.911 24.0555 165.172 22.7273C165.911 24.0555 166.501 25.3837 167.092 26.9333ZM154.392 31.3607C156.312 35.5667 157.272 41.3961 157.272 48.2586V78.66C157.272 87.5148 155.573 94.2296 152.251 98.4357C148.78 102.863 143.612 104.782 136.08 104.782C128.549 104.782 123.38 102.863 119.91 98.4357C116.661 94.2296 114.889 87.441 114.889 78.66C114.889 76.0035 112.748 73.8636 110.09 73.8636C108.908 73.8636 107.948 74.2326 107.21 74.8229V46.34C107.21 44.7904 105.881 43.4622 104.33 43.4622C102.78 43.4622 101.672 44.6429 101.451 45.9711C101.672 37.1163 103.37 29.4422 106.619 23.2438C105.881 24.7934 106.398 26.4906 107.801 27.3022C109.351 27.8926 111.05 27.5236 111.862 25.974C111.862 25.974 111.862 25.7527 112.083 25.7527L111.714 26.343C108.834 32.0986 107.284 39.4038 107.284 48.2586C107.284 49.8081 108.465 51.1364 110.163 51.1364C111.714 51.1364 113.043 49.8081 113.043 48.2586C113.043 32.0986 118.064 22.2845 128.032 19.1854C129.213 18.8164 130.173 17.6358 130.173 16.5289C130.173 16.16 130.173 15.9386 129.952 15.5697C129.583 14.389 128.401 13.6511 127.072 13.6511C126.703 13.6511 126.482 13.8725 126.112 13.8725H125.891C129.14 12.9132 132.462 12.3229 136.08 12.3229C145.679 12.3229 153.211 15.791 158.01 22.5059C158.601 23.0962 158.97 23.8341 159.339 24.6458C158.601 24.4244 157.641 24.6458 156.829 25.0148C155.13 25.7527 153.949 27.5236 153.949 29.4422C154.023 30.18 154.17 30.7704 154.392 31.3607ZM173.59 45.3808C171.891 45.3808 170.71 46.709 170.71 48.2586V48.4799C170.71 41.7651 169.972 35.5667 168.2 30.4014C168.79 31.5821 169.75 32.6889 171.079 32.6889C172.777 32.6889 173.959 31.5083 173.959 30.0325C173.959 29.6635 173.959 29.2946 173.737 28.8518C170.858 19.2591 165.837 11.954 158.748 7.08383C158.158 6.71488 157.567 6.71488 157.05 6.71488C156.312 6.71488 155.352 7.08383 154.761 7.89551C154.392 8.48583 154.17 9.07615 154.17 9.81405C154.17 10.4044 154.392 10.9947 154.761 11.5112C149.74 8.26446 143.39 6.49351 136.08 6.49351C137.631 6.49351 138.96 5.31287 138.96 3.6157C138.96 2.06612 137.631 0.7379 136.08 0.7379C129.14 0.7379 123.011 2.06612 117.621 4.57497C112.6 7.08383 108.391 10.5519 104.921 15.1269C98.7926 23.17 95.6914 34.755 95.6914 48.1848V78.5862C95.6914 80.2834 96.8728 81.464 98.5711 81.464C100.122 81.464 101.451 80.2834 101.451 78.5862V78.3648C101.451 90.0974 103.961 99.3211 108.761 106.036C108.022 104.855 107.21 103.527 106.472 102.199C105.881 101.24 104.921 100.649 103.961 100.649C103.37 100.649 103.001 100.871 102.632 101.018C101.672 101.609 101.082 102.568 101.082 103.527C101.082 103.896 101.303 104.486 101.451 104.855C104.552 110.832 108.982 115.85 114.52 118.875C120.501 122.344 127.811 124.041 136.08 124.041C149.519 124.041 160.151 119.392 167.092 110.759C173.22 102.863 176.543 92.0897 176.543 78.4386V48.2586C176.469 46.709 175.14 45.3808 173.59 45.3808Z" fill="#FFD825"/>
<path d="M136.081 118.285C113.782 118.285 101.451 104.265 101.451 78.5124V46.34C101.451 44.7904 102.633 43.4622 104.331 43.4622C105.881 43.4622 107.21 44.7904 107.21 46.34V78.4386C107.21 89.2119 109.352 97.6977 113.93 103.453C118.729 109.43 126.039 112.456 136.081 112.456C144.72 112.456 151.439 110.168 156.312 105.372C157.494 104.413 159.192 104.413 160.373 105.372C161.555 106.553 161.555 108.619 160.373 109.799C154.54 115.555 146.27 118.285 136.081 118.285ZM167.831 61.5407C166.133 61.5407 164.951 60.2125 164.951 58.6629V48.4799C164.951 37.4852 162.441 28.4829 158.01 22.5059C153.211 15.791 145.68 12.3229 136.081 12.3229C132.241 12.3229 128.771 12.9132 125.522 14.0201C119.541 15.9386 114.963 19.997 111.862 25.974C111.124 27.5236 109.352 27.8926 107.801 27.3022C106.472 26.5643 105.881 24.7934 106.62 23.2438C110.459 15.9386 116.219 10.9209 123.75 8.41204C127.442 7.2314 131.429 6.4935 136.081 6.4935C158.01 6.4935 170.71 21.8418 170.71 48.4061V58.5891C170.71 60.2125 169.381 61.5407 167.831 61.5407Z" fill="#8E60FF"/>
<path d="M171.079 32.6889C169.75 32.6889 168.569 31.3607 168.2 30.18C165.689 21.9156 161.259 15.9386 155.278 11.8802C153.949 11.1423 153.728 9.22373 154.688 7.82173C155.648 6.49351 157.346 6.27214 158.749 7.08383C165.837 11.8802 170.858 19.1854 173.738 28.8518C174.402 30.9917 173.221 32.6889 171.079 32.6889Z" fill="#FC7E43"/>
<path d="M98.5711 81.5384C96.8728 81.5384 95.6914 80.3577 95.6914 78.6606V48.2591C95.6914 34.8294 98.7926 23.2444 104.921 15.2013C108.391 10.5525 112.6 7.1582 117.621 4.64934C123.011 2.14049 129.14 0.812271 136.08 0.812271C137.631 0.812271 138.96 2.14049 138.96 3.69008C138.96 5.38724 137.631 6.56788 136.08 6.56788C125.522 6.56788 115.111 11.2166 109.351 19.0384C103.961 26.1222 101.451 36.1576 101.451 48.2591V78.6606C101.451 80.3577 100.122 81.5384 98.5711 81.5384Z" fill="#00C482"/>
<path d="M110.09 51.1364C108.391 51.1364 107.21 49.8082 107.21 48.2586C107.21 39.4038 108.761 32.0986 111.64 26.343C114.741 20.2184 119.541 15.791 126.038 13.8725C127.589 13.5035 129.509 14.0939 129.878 15.5697C130.469 17.1192 129.509 18.8164 127.958 19.2592C117.916 22.3583 112.969 32.1724 112.969 48.3324C112.969 49.8082 111.64 51.1364 110.09 51.1364Z" fill="#83E2FF"/>
<path d="M136.08 124.262C127.81 124.262 120.5 122.565 114.52 119.097C108.908 115.998 104.478 111.054 101.45 105.077C100.712 103.749 101.081 101.978 102.632 101.24C103.961 100.502 105.733 101.018 106.471 102.42C112.083 112.825 122.051 118.359 136.08 118.359C147.82 118.359 156.681 114.669 162.44 107.364C167.83 100.649 170.71 90.8353 170.71 78.7338V48.2586C170.71 46.709 171.891 45.3808 173.589 45.3808C175.14 45.3808 176.469 46.709 176.469 48.2586V78.66C176.469 92.3111 173.22 103.084 167.018 110.98C160.151 119.613 149.592 124.262 136.08 124.262Z" fill="#FFABE2"/>
<path d="M136.08 114.448C125.521 114.448 117.621 111.201 112.378 104.413C107.579 98.4357 105.29 90.0236 105.29 78.66C105.29 76.0035 107.431 73.8636 110.089 73.8636C112.748 73.8636 114.889 76.0035 114.889 78.66C114.889 87.5148 116.587 94.2296 119.91 98.4357C123.38 102.863 128.549 104.782 136.08 104.782C143.612 104.782 148.78 102.863 152.251 98.4357C155.499 94.2296 157.271 87.441 157.271 78.66V48.2586C157.271 41.3223 156.312 35.5667 154.392 31.3607C153.432 28.8518 154.613 25.974 156.902 25.0148C159.413 23.8341 162.292 25.0148 163.252 27.5236C165.763 33.1316 166.944 39.9941 166.944 48.2586V78.66C166.944 90.0236 164.655 98.4357 159.856 104.413C154.539 111.128 146.639 114.448 136.08 114.448Z" fill="#FFD825"/>
<path d="M262.562 78.66C262.562 90.7615 259.682 100.576 254.292 107.29C253.701 108.028 253.11 108.619 252.594 109.209C252.963 108.619 252.963 108.028 252.963 107.512C252.963 106.774 252.741 105.962 252.224 105.372C252.003 105.151 251.634 105.003 251.264 104.782C251.486 104.782 251.486 104.56 251.634 104.413C256.433 98.4357 258.722 90.0236 258.722 78.66V61.3194C259.091 61.5407 259.313 61.5407 259.682 61.5407C261.232 61.5407 262.562 60.2125 262.562 58.6629V78.66ZM258.87 26.9333C258.279 25.6051 257.688 24.0555 256.95 22.7273C257.762 24.0555 258.353 25.3837 258.87 26.9333ZM246.17 31.3607C248.089 35.5667 249.049 41.3961 249.049 48.2586V78.66C249.049 87.5148 247.351 94.2296 244.028 98.4357C240.558 102.863 235.389 104.782 227.858 104.782C220.327 104.782 215.158 102.863 211.688 98.4357C208.439 94.2296 206.667 87.441 206.667 78.66C206.667 76.0035 204.526 73.8636 201.867 73.8636C200.686 73.8636 199.726 74.2326 198.988 74.8229V46.34C198.988 44.7904 197.659 43.4622 196.108 43.4622C194.557 43.4622 193.45 44.6429 193.228 45.9711C193.45 37.1163 195.148 29.4422 198.397 23.2438C197.659 24.7934 198.176 26.4906 199.578 27.3022C201.129 27.8926 202.827 27.5236 203.639 25.974C203.639 25.974 203.639 25.7527 203.861 25.7527L203.492 26.343C200.612 32.0986 199.062 39.4038 199.062 48.2586C199.062 49.8081 200.243 51.1364 201.941 51.1364C203.492 51.1364 204.821 49.8081 204.821 48.2586C204.821 32.0986 209.842 22.2845 219.81 19.1854C220.991 18.8164 221.951 17.6358 221.951 16.5289C221.951 16.16 221.951 15.9386 221.73 15.5697C221.36 14.389 220.179 13.6511 218.85 13.6511C218.481 13.6511 218.259 13.8725 217.89 13.8725H217.669C220.917 12.9132 224.24 12.3229 227.858 12.3229C237.457 12.3229 244.988 15.791 249.788 22.5059C250.378 23.0962 250.748 23.8341 251.117 24.6458C250.378 24.4244 249.419 24.6458 248.606 25.0148C246.908 25.7527 245.727 27.5236 245.727 29.4422C245.801 30.18 246.022 30.7704 246.17 31.3607ZM265.441 45.3808C263.743 45.3808 262.562 46.709 262.562 48.2586V48.4799C262.562 41.7651 261.823 35.5667 260.051 30.4014C260.642 31.5821 261.602 32.6889 262.931 32.6889C264.629 32.6889 265.81 31.5083 265.81 30.0325C265.81 29.6635 265.81 29.2946 265.589 28.8518C262.709 19.2591 257.688 11.954 250.6 7.08383C250.009 6.71488 249.419 6.71488 248.902 6.71488C248.163 6.71488 247.203 7.08383 246.613 7.89551C246.244 8.48583 246.022 9.07615 246.022 9.81405C246.022 10.4044 246.244 10.9947 246.613 11.5112C241.592 8.26446 235.242 6.49351 227.932 6.49351C229.482 6.49351 230.812 5.31287 230.812 3.6157C230.812 2.06612 229.482 0.7379 227.932 0.7379C220.991 0.7379 214.863 2.06612 209.473 4.57497C204.452 7.08383 200.243 10.5519 196.773 15.1269C190.644 23.17 187.543 34.755 187.543 48.1848V78.5862C187.543 80.2834 188.724 81.464 190.423 81.464C191.973 81.464 193.302 80.2834 193.302 78.5862V78.3648C193.302 90.0974 195.813 99.3211 200.612 106.036C199.874 104.855 199.062 103.527 198.323 102.199C197.732 101.24 196.773 100.649 195.813 100.649C195.222 100.649 194.853 100.871 194.484 101.018C193.524 101.609 192.933 102.568 192.933 103.527C192.933 103.896 193.155 104.486 193.302 104.855C196.403 110.832 200.834 115.85 206.371 118.875C212.352 122.344 219.662 124.041 227.932 124.041C241.37 124.041 252.003 119.392 258.944 110.759C265.072 102.863 268.395 92.0897 268.395 78.4386V48.2586C268.321 46.709 266.992 45.3808 265.441 45.3808Z" fill="#FFD825"/>
<path d="M227.932 118.285C205.634 118.285 193.303 104.265 193.303 78.5124V46.34C193.303 44.7904 194.484 43.4622 196.182 43.4622C197.733 43.4622 199.062 44.7904 199.062 46.34V78.4386C199.062 89.2119 201.203 97.6977 205.781 103.453C210.581 109.43 217.891 112.456 227.932 112.456C236.571 112.456 243.291 110.168 248.164 105.372C249.345 104.413 251.043 104.413 252.225 105.372C253.406 106.553 253.406 108.619 252.225 109.799C246.392 115.555 238.122 118.285 227.932 118.285ZM259.682 61.5407C257.984 61.5407 256.803 60.2125 256.803 58.6629V48.4799C256.803 37.4852 254.292 28.4829 249.862 22.5059C245.063 15.791 237.531 12.3229 227.932 12.3229C224.093 12.3229 220.623 12.9132 217.374 14.0201C211.393 15.9386 206.815 19.997 203.714 25.974C202.975 27.5236 201.203 27.8926 199.653 27.3022C198.324 26.5643 197.733 24.7934 198.471 23.2438C202.311 15.9386 208.07 10.9209 215.602 8.41204C219.293 7.2314 223.281 6.4935 227.932 6.4935C249.862 6.4935 262.562 21.8418 262.562 48.4061V58.5891C262.562 60.2125 261.233 61.5407 259.682 61.5407Z" fill="#8E60FF"/>
<path d="M262.931 32.6889C261.602 32.6889 260.421 31.3607 260.051 30.18C257.541 21.9156 253.111 15.9386 247.13 11.8802C245.801 11.1423 245.579 9.22373 246.539 7.82173C247.499 6.49351 249.197 6.27214 250.6 7.08383C257.689 11.8802 262.71 19.1854 265.589 28.8518C266.18 30.9917 265.072 32.6889 262.931 32.6889Z" fill="#FC7E43"/>
<path d="M190.423 81.5384C188.724 81.5384 187.543 80.3577 187.543 78.6606V48.2591C187.543 34.8294 190.644 23.2444 196.773 15.2013C200.243 10.5525 204.452 7.1582 209.473 4.64934C214.863 2.14049 220.991 0.812271 227.932 0.812271C229.482 0.812271 230.812 2.14049 230.812 3.69008C230.812 5.38724 229.482 6.56788 227.932 6.56788C217.373 6.56788 206.962 11.2166 201.203 19.0384C195.813 26.1222 193.302 36.1576 193.302 48.2591V78.6606C193.302 80.3577 191.899 81.5384 190.423 81.5384Z" fill="#00C482"/>
<path d="M201.941 51.1364C200.243 51.1364 199.062 49.8082 199.062 48.2586C199.062 39.4038 200.612 32.0986 203.492 26.343C206.593 20.2184 211.392 15.791 217.89 13.8725C219.441 13.5035 221.36 14.0939 221.73 15.5697C222.32 17.1192 221.36 18.8164 219.81 19.2592C209.842 22.2845 204.821 32.0986 204.821 48.2586C204.821 49.8082 203.492 51.1364 201.941 51.1364Z" fill="#83E2FF"/>
<path d="M227.932 124.262C219.662 124.262 212.352 122.565 206.371 119.097C200.76 115.998 196.329 111.054 193.302 105.077C192.564 103.749 192.933 101.978 194.483 101.24C195.813 100.502 197.585 101.018 198.323 102.42C203.935 112.825 213.903 118.359 227.932 118.359C239.672 118.359 248.532 114.669 254.292 107.364C259.682 100.649 262.561 90.8353 262.561 78.7338V48.2586C262.561 46.709 263.743 45.3808 265.441 45.3808C266.992 45.3808 268.321 46.709 268.321 48.2586V78.66C268.321 92.3111 265.072 103.084 258.87 110.98C252.003 119.613 241.37 124.262 227.932 124.262Z" fill="#FFABE2"/>
<path d="M227.932 114.448C217.373 114.448 209.472 111.201 204.23 104.413C199.431 98.4357 197.142 90.0236 197.142 78.66C197.142 76.0035 199.283 73.8636 201.941 73.8636C204.599 73.8636 206.74 76.0035 206.74 78.66C206.74 87.5148 208.439 94.2296 211.761 98.4357C215.232 102.863 220.4 104.782 227.932 104.782C235.463 104.782 240.632 102.863 244.102 98.4357C247.351 94.2296 249.123 87.441 249.123 78.66V48.2586C249.123 41.3223 248.163 35.5667 246.243 31.3607C245.283 28.8518 246.465 25.974 248.754 25.0148C251.264 23.8341 254.144 25.0148 255.104 27.5236C257.614 33.1316 258.796 39.9941 258.796 48.2586V78.66C258.796 90.0236 256.507 98.4357 251.707 104.413C246.391 111.128 238.49 114.448 227.932 114.448Z" fill="#FFD825"/>
</svg>
