<svg width="26" height="26" viewBox="0 0 26 26" fill="none" xmlns="http://www.w3.org/2000/svg">
<circle cx="13" cy="13" r="12.5" stroke="black"/>
<path d="M18.402 11.78C18.402 12.3533 18.362 12.7933 18.282 13.1C18.202 13.3933 18.0486 13.6067 17.822 13.74C17.6086 13.8733 17.2753 13.94 16.822 13.94H14.582V17.74C14.0086 17.74 13.5686 17.7 13.262 17.62C12.9686 17.54 12.7553 17.3933 12.622 17.18C12.4886 16.9533 12.422 16.6133 12.422 16.16V13.94H8.60195C8.60195 13.3667 8.64195 12.9333 8.72195 12.64C8.80195 12.3333 8.94862 12.1133 9.16195 11.98C9.38862 11.8467 9.72862 11.78 10.182 11.78H12.422V7.8C12.9953 7.8 13.4286 7.84 13.722 7.92C14.0286 8 14.2486 8.15333 14.382 8.38C14.5153 8.59333 14.582 8.92667 14.582 9.38V11.78H18.402Z" fill="black"/>
</svg>
