<svg width="87" height="9" viewBox="0 0 87 9" fill="none" xmlns="http://www.w3.org/2000/svg">
<path d="M32.305 2.64282L32.7587 2.59726C32.8041 2.73395 32.8495 2.87065 32.9402 2.96179C33.031 3.05292 33.1217 3.05292 33.3032 3.05292C33.4393 3.05292 33.5754 3.00735 33.6662 2.96179C33.7569 2.91622 33.8023 2.82509 33.8023 2.73395C33.8023 2.68839 33.8023 2.64282 33.7569 2.59726C33.7115 2.55169 33.6662 2.50612 33.5754 2.50612C33.5301 2.50612 33.3939 2.46056 33.2124 2.41499C32.9402 2.36942 32.7587 2.27829 32.668 2.18716C32.5319 2.05046 32.4411 1.91376 32.4411 1.68593C32.4411 1.54923 32.4865 1.4581 32.5319 1.36697C32.6226 1.27584 32.7134 1.1847 32.8495 1.13914C32.9856 1.09357 33.1217 1.048 33.3032 1.048C33.5754 1.048 33.8023 1.09357 33.9838 1.23027C34.1199 1.36697 34.2106 1.54923 34.2106 1.77706L33.7115 1.77706C33.7115 1.64037 33.6662 1.54923 33.5754 1.50367C33.4847 1.4581 33.3939 1.41253 33.2578 1.41253C33.1217 1.41253 33.031 1.4581 32.9402 1.50367C32.8948 1.54923 32.8495 1.5948 32.8495 1.64037C32.8495 1.68593 32.8495 1.7315 32.9402 1.77706C32.9856 1.82263 33.1671 1.8682 33.3939 1.91376C33.6208 1.95933 33.8023 2.00489 33.893 2.09603C33.9838 2.14159 34.0745 2.23273 34.1653 2.32386C34.2106 2.41499 34.256 2.55169 34.256 2.68839C34.256 2.82509 34.2106 2.96179 34.1653 3.05292C34.0745 3.18962 33.9838 3.28075 33.8477 3.32632C33.7115 3.37188 33.5301 3.41745 33.3486 3.41745C33.031 3.41745 32.8041 3.32632 32.668 3.18962C32.4411 3.09848 32.3504 2.91622 32.305 2.64282Z" fill="white"/>
<path d="M34.6189 1.048L35.118 1.048L35.118 2.36942C35.118 2.59726 35.118 2.68839 35.118 2.77952C35.1634 2.87065 35.1634 2.96179 35.2541 3.00735C35.3449 3.05292 35.4356 3.09848 35.5717 3.09848C35.7079 3.09848 35.7986 3.05292 35.8894 3.00735C35.9801 2.96179 35.9801 2.87065 36.0255 2.77952C36.0255 2.68839 36.0255 2.55169 36.0255 2.36942L36.0255 1.048L36.5246 1.048L36.5246 2.27829C36.5246 2.55169 36.5246 2.77952 36.4792 2.91622C36.4338 3.05292 36.3884 3.14405 36.3431 3.23518C36.2523 3.32632 36.1616 3.37188 36.0708 3.41745C35.9347 3.46301 35.7986 3.50858 35.6171 3.50858C35.3903 3.50858 35.2088 3.46301 35.118 3.41745C34.9819 3.37188 34.8912 3.28075 34.8458 3.18962C34.8004 3.09848 34.7097 3.00735 34.7097 2.91622C34.6643 2.77952 34.6643 2.59726 34.6643 2.32386L34.6643 1.048L34.6189 1.048Z" fill="white"/>
<path d="M36.933 3.41745L36.933 1.048L37.7043 1.048C37.9765 1.048 38.2034 1.048 38.2941 1.09357C38.4302 1.13914 38.5664 1.23027 38.6571 1.3214C38.7478 1.4581 38.7932 1.5948 38.7932 1.77706C38.7932 1.91376 38.7478 2.05046 38.7025 2.14159C38.6571 2.23273 38.5663 2.32386 38.521 2.36942C38.4302 2.41499 38.3395 2.46056 38.2941 2.46056C38.158 2.50612 38.0219 2.50612 37.795 2.50612L37.4774 2.50612L37.4774 3.41745L36.933 3.41745ZM37.432 1.4581L37.432 2.14159L37.7043 2.14159C37.8858 2.14159 38.0219 2.14159 38.0673 2.09603C38.1126 2.05046 38.158 2.05046 38.2034 1.95933C38.2487 1.91376 38.2487 1.8682 38.2487 1.77706C38.2487 1.68593 38.2034 1.64037 38.158 1.54923C38.1126 1.50367 38.0219 1.4581 37.9765 1.4581C37.9311 1.4581 37.795 1.4581 37.6135 1.4581L37.432 1.4581Z" fill="white"/>
<path d="M39.1108 3.41745L39.1108 1.048L40.8803 1.048L40.8803 1.4581L39.6099 1.4581L39.6099 2.0049L40.7896 2.0049L40.7896 2.41499L39.6099 2.41499L39.6099 3.05292L40.9257 3.05292L40.9257 3.46301L39.1108 3.46301L39.1108 3.41745Z" fill="white"/>
<path d="M41.2887 3.41745L41.2887 1.048L42.2869 1.048C42.5591 1.048 42.7406 1.048 42.8313 1.09357C42.9221 1.13914 43.0128 1.23027 43.1036 1.3214C43.1489 1.41253 43.1943 1.54923 43.1943 1.68593C43.1943 1.8682 43.1489 2.00489 43.0582 2.14159C42.9674 2.27829 42.786 2.32386 42.6045 2.36942C42.6952 2.41499 42.786 2.50612 42.8767 2.55169C42.9675 2.64282 43.0582 2.73395 43.1489 2.91622L43.4212 3.37188L42.8313 3.37188L42.4684 2.87065C42.3776 2.73395 42.2869 2.59726 42.2415 2.55169C42.1961 2.50612 42.1508 2.46056 42.1054 2.46056C42.06 2.46056 41.9693 2.41499 41.8785 2.41499L41.7878 2.41499L41.7878 3.41745L41.2887 3.41745ZM41.7424 2.05046L42.1054 2.05046C42.3322 2.05046 42.4684 2.05046 42.5137 2.0049C42.5591 2.0049 42.6045 1.95933 42.6498 1.91376C42.6952 1.8682 42.7406 1.82263 42.7406 1.7315C42.7406 1.64037 42.7406 1.5948 42.6952 1.54923C42.6498 1.50367 42.6045 1.4581 42.5137 1.4581C42.4684 1.4581 42.3322 1.4581 42.1508 1.4581L41.7878 1.4581L41.7878 2.05046L41.7424 2.05046Z" fill="white"/>
<path d="M43.6027 3.41745L43.6027 1.048L44.1017 1.048L44.1017 3.46301L43.6027 3.46301L43.6027 3.41745Z" fill="white"/>
<path d="M44.5101 3.41745L44.5101 1.048L44.9638 1.048L45.962 2.64282L45.962 1.048L46.4157 1.048L46.4157 3.46301L45.9166 3.46301L44.9638 1.8682L44.9638 3.46301L44.5101 3.46301L44.5101 3.41745Z" fill="white"/>
<path d="M47.3686 3.41745L47.3686 1.4581L46.688 1.4581L46.688 1.048L48.5936 1.048L48.5936 1.4581L47.913 1.4581L47.913 3.46301L47.3686 3.46301L47.3686 3.41745Z" fill="white"/>
<path d="M48.8205 3.41745L48.8205 1.048L50.59 1.048L50.59 1.4581L49.3196 1.4581L49.3196 2.0049L50.4992 2.0049L50.4992 2.41499L49.3196 2.41499L49.3196 3.05292L50.6353 3.05292L50.6353 3.46301L48.8205 3.46301L48.8205 3.41745Z" fill="white"/>
<path d="M50.9983 3.41745L50.9983 1.048L51.452 1.048L52.4502 2.64282L52.4502 1.048L52.9039 1.048L52.9039 3.46301L52.4502 3.46301L51.4974 1.8682L51.4974 3.46301L50.9983 3.46301L50.9983 3.41745Z" fill="white"/>
<path d="M53.3577 1.048L54.2198 1.048C54.4012 1.048 54.5827 1.048 54.6735 1.09357C54.8096 1.13914 54.9457 1.1847 55.0365 1.3214C55.1272 1.41253 55.2179 1.54923 55.2633 1.68593C55.3087 1.82263 55.3541 2.0049 55.3541 2.23273C55.3541 2.41499 55.3541 2.59726 55.3087 2.73395C55.2179 2.91622 55.1272 3.09848 54.9911 3.18962C54.9003 3.28075 54.8096 3.32632 54.6735 3.37188C54.5827 3.41745 54.4012 3.41745 54.2651 3.41745L53.3577 3.41745L53.3577 1.048ZM53.8114 1.4581L53.8114 3.05292L54.1744 3.05292C54.3105 3.05292 54.4012 3.05292 54.4466 3.05292C54.5374 3.05292 54.5827 3.00735 54.6281 2.96179C54.6735 2.91622 54.7189 2.82509 54.7642 2.73395C54.8096 2.64282 54.8096 2.46056 54.8096 2.27829C54.8096 2.09603 54.8096 1.95933 54.7642 1.8682C54.7189 1.77706 54.6735 1.68593 54.6281 1.64037C54.5827 1.5948 54.492 1.54923 54.4012 1.54923C54.3105 1.54923 54.2198 1.54923 53.9929 1.54923L53.8114 1.54923L53.8114 1.4581Z" fill="white"/>
<path d="M55.6717 3.41745L55.6717 1.048L57.4412 1.048L57.4412 1.4581L56.1707 1.4581L56.1707 2.0049L57.3504 2.0049L57.3504 2.41499L56.1707 2.41499L56.1707 3.05292L57.4865 3.05292L57.4865 3.46301L55.6717 3.46301L55.6717 3.41745Z" fill="white"/>
<path d="M57.8496 3.41745L57.8496 1.048L58.3033 1.048L59.3015 2.64282L59.3015 1.048L59.7552 1.048L59.7552 3.46301L59.2561 3.46301L58.3033 1.8682L58.3033 3.46301L57.8496 3.46301L57.8496 3.41745Z" fill="white"/>
<path d="M61.7062 2.55169L62.1599 2.68839C62.0692 2.96179 61.9784 3.14405 61.7969 3.28075C61.6154 3.41745 61.434 3.46301 61.1617 3.46301C60.8441 3.46301 60.5719 3.37188 60.3904 3.14405C60.1635 2.91622 60.0728 2.64282 60.0728 2.27829C60.0728 1.8682 60.1635 1.5948 60.3904 1.36697C60.6173 1.13914 60.8441 1.048 61.2071 1.048C61.4793 1.048 61.7516 1.13914 61.9331 1.3214C62.0238 1.41253 62.1145 1.54923 62.1599 1.77706L61.7062 1.91376C61.6608 1.77706 61.6154 1.68593 61.5247 1.64037C61.434 1.54923 61.3432 1.54923 61.2071 1.54923C61.0256 1.54923 60.8895 1.5948 60.7987 1.7315C60.708 1.8682 60.6173 2.05046 60.6173 2.36942C60.6173 2.68839 60.6626 2.87065 60.7987 3.00735C60.8895 3.14405 61.0256 3.18962 61.2071 3.18962C61.3432 3.18962 61.434 3.14405 61.5247 3.05292C61.6154 2.87065 61.6608 2.73395 61.7062 2.55169Z" fill="white"/>
<path d="M62.5228 3.41745L62.5228 1.048L63.0219 1.048L63.0219 3.46301L62.5228 3.46301L62.5228 3.41745Z" fill="white"/>
<path d="M65.5628 3.41745L65.0637 3.41745L64.8369 2.87066L63.884 2.87066L63.7025 3.41745L63.1581 3.41745L64.0655 1.00244L64.5646 1.00244L65.5628 3.41745ZM64.7007 2.46056L64.3831 1.5948L64.0655 2.46056L64.7007 2.46056Z" fill="white"/>
<path d="M66.5156 3.41745L66.5156 1.048L68.149 1.048L68.149 1.4581L67.0147 1.4581L67.0147 2.0049L68.0129 2.0049L68.0129 2.41499L67.0147 2.41499L67.0147 3.41745L66.5156 3.41745Z" fill="white"/>
<path d="M68.4666 3.41745L68.4666 1.048L68.9657 1.048L68.9657 3.46301L68.4666 3.46301L68.4666 3.41745Z" fill="white"/>
<path d="M69.374 3.41745L69.374 1.048L69.8278 1.048L70.8259 2.64282L70.8259 1.048L71.2797 1.048L71.2797 3.46301L70.7806 3.46301L69.8278 1.8682L69.8278 3.46301L69.374 3.46301L69.374 3.41745Z" fill="white"/>
<path d="M73.8659 3.41745L73.3668 3.41745L73.1399 2.87066L72.1871 2.87066L72.0056 3.41745L71.5065 3.41745L72.414 1.00244L72.9131 1.00244L73.8659 3.41745ZM73.0038 2.46056L72.6862 1.5948L72.3686 2.46056L73.0038 2.46056Z" fill="white"/>
<path d="M74.0474 3.41745L74.0474 1.048L74.5011 1.048L75.4993 2.64282L75.4993 1.048L75.953 1.048L75.953 3.46301L75.4539 3.46301L74.5011 1.8682L74.5011 3.46301L74.0474 3.46301L74.0474 3.41745Z" fill="white"/>
<path d="M77.9494 2.55169L78.4031 2.68839C78.3124 2.96179 78.2216 3.14405 78.0401 3.28075C77.8586 3.41745 77.6772 3.46302 77.4049 3.46302C77.0873 3.46302 76.8151 3.37188 76.6336 3.14405C76.4067 2.91622 76.316 2.64283 76.316 2.23273C76.316 1.82263 76.4067 1.54924 76.6336 1.3214C76.8151 1.09357 77.0873 1.00244 77.4503 1.00244C77.7225 1.00244 77.9948 1.09357 78.1762 1.27584C78.267 1.36697 78.3577 1.50367 78.4031 1.7315L77.904 1.82263C77.8586 1.68593 77.8133 1.5948 77.7225 1.54924C77.6318 1.4581 77.541 1.4581 77.4049 1.4581C77.2234 1.4581 77.0873 1.50367 76.9512 1.64037C76.8151 1.77707 76.7697 1.95933 76.7697 2.2783C76.7697 2.59726 76.8151 2.77952 76.9512 2.91622C77.0419 3.05292 77.2234 3.09849 77.3595 3.09849C77.4957 3.09849 77.5864 3.05292 77.6772 2.96179C77.8133 2.87066 77.904 2.73396 77.9494 2.55169Z" fill="white"/>
<path d="M78.7661 3.41745L78.7661 1.048L79.2652 1.048L79.2652 3.46301L78.7661 3.46301L78.7661 3.41745Z" fill="white"/>
<path d="M79.6282 3.41745L79.6282 1.048L81.3977 1.048L81.3977 1.4581L80.1273 1.4581L80.1273 2.0049L81.3069 2.0049L81.3069 2.41499L80.1273 2.41499L80.1273 3.05292L81.4431 3.05292L81.4431 3.46301L79.6282 3.46301L79.6282 3.41745Z" fill="white"/>
<path d="M81.806 3.41745L81.806 1.048L82.8042 1.048C83.0765 1.048 83.258 1.048 83.3487 1.09357C83.4848 1.13914 83.5756 1.23027 83.6209 1.3214C83.7117 1.41253 83.7117 1.54923 83.7117 1.68593C83.7117 1.8682 83.6663 2.00489 83.5756 2.14159C83.4848 2.27829 83.3487 2.32386 83.1218 2.36942C83.2126 2.41499 83.3033 2.50612 83.3941 2.55169C83.4848 2.64282 83.5302 2.73395 83.6663 2.91622L83.9385 3.37188L83.3487 3.37188L83.0311 2.91622C82.895 2.73395 82.8042 2.59726 82.7589 2.55169C82.7135 2.50612 82.6681 2.46056 82.6227 2.46056C82.5774 2.46056 82.4866 2.41499 82.3959 2.41499L82.3051 2.41499L82.3051 3.41745L81.806 3.41745ZM82.2598 2.05046L82.6227 2.05046C82.8496 2.05046 82.9857 2.05046 83.0311 2.0049C83.0765 2.0049 83.1218 1.95933 83.1672 1.91376C83.2126 1.8682 83.258 1.82263 83.258 1.7315C83.258 1.64037 83.258 1.5948 83.2126 1.54923C83.1672 1.50367 83.0765 1.4581 82.9857 1.4581C82.9403 1.4581 82.8496 1.4581 82.6227 1.4581L82.2598 1.4581L82.2598 2.05046Z" fill="white"/>
<path d="M86.2979 3.41745L85.7988 3.41745L85.5719 2.87066L84.6191 2.87066L84.4376 3.41745L83.9385 3.41745L84.8459 1.00244L85.345 1.00244L86.2979 3.41745ZM85.4358 2.46056L85.0728 1.5948L84.7552 2.46056L85.4358 2.46056Z" fill="white"/>
<path d="M48.0037 4.73886L48.8658 4.73886C49.0473 4.73886 49.2288 4.73886 49.3195 4.78443C49.4556 4.82999 49.5917 4.92113 49.6825 5.01226C49.7732 5.10339 49.864 5.24009 49.9093 5.42235C49.9547 5.55905 50.0001 5.74132 50.0001 5.96915C50.0001 6.15141 49.9547 6.33368 49.9093 6.47038C49.864 6.65264 49.7732 6.78934 49.6371 6.88047C49.5464 6.97161 49.4556 7.01717 49.3195 7.06274C49.2288 7.1083 49.0473 7.1083 48.9112 7.1083L48.0037 7.1083L48.0037 4.73886ZM48.4574 5.14896L48.4574 6.74378L48.8204 6.74378C48.9565 6.74378 49.0473 6.74377 49.0926 6.69821C49.1834 6.69821 49.2288 6.65264 49.2741 6.60708C49.3195 6.56151 49.3649 6.47038 49.4103 6.37925C49.4556 6.28811 49.4556 6.10585 49.4556 5.92358C49.4556 5.74132 49.4556 5.60462 49.4103 5.51349C49.3649 5.42235 49.3195 5.33122 49.2741 5.28566C49.2288 5.24009 49.138 5.19452 49.0473 5.19452C49.0019 5.19452 48.8658 5.14896 48.6389 5.14896L48.4574 5.14896Z" fill="white"/>
<path d="M50.3631 7.1083L50.3631 4.73886L52.1326 4.73886L52.1326 5.14896L50.8622 5.14896L50.8622 5.69575L52.0419 5.69575L52.0419 6.10585L50.8622 6.10585L50.8622 6.74377L52.178 6.74377L52.178 7.15387L50.3631 7.15387L50.3631 7.1083Z" fill="white"/>
<path d="M54.9003 6.24255L55.3541 6.37925C55.2633 6.65264 55.1726 6.83491 54.9911 6.97161C54.8096 7.1083 54.6281 7.15387 54.3559 7.15387C54.0383 7.15387 53.766 7.06274 53.5845 6.83491C53.3577 6.60708 53.2669 6.33368 53.2669 5.96915C53.2669 5.55905 53.3577 5.28566 53.5845 5.05782C53.8114 4.82999 54.0383 4.73886 54.4012 4.73886C54.6735 4.73886 54.9457 4.82999 55.1272 5.01226C55.2179 5.10339 55.3087 5.24009 55.3541 5.46792L54.9003 5.60462C54.855 5.46792 54.8096 5.37679 54.7189 5.33122C54.6281 5.24009 54.5374 5.24009 54.4012 5.24009C54.2198 5.24009 54.0836 5.28566 53.9929 5.42235C53.9022 5.55905 53.8114 5.74132 53.8114 6.06028C53.8114 6.37925 53.8568 6.56151 53.9929 6.69821C54.0836 6.83491 54.2651 6.88047 54.4012 6.88047C54.5374 6.88047 54.6281 6.83491 54.7189 6.74377C54.8096 6.56151 54.855 6.42481 54.9003 6.24255Z" fill="white"/>
<path d="M55.6263 5.96915C55.6263 5.74132 55.6716 5.51349 55.717 5.33123C55.7624 5.19453 55.8531 5.10339 55.9439 5.01226C56.0346 4.92113 56.1254 4.83 56.2615 4.78443C56.3976 4.73886 56.5791 4.6933 56.7606 4.6933C57.1235 4.6933 57.3958 4.78443 57.5773 5.01226C57.8041 5.24009 57.8949 5.51349 57.8949 5.92359C57.8949 6.33368 57.8041 6.60708 57.5773 6.83491C57.3504 7.06274 57.0782 7.15387 56.7152 7.15387C56.3522 7.15387 56.08 7.06274 55.8531 6.83491C55.717 6.65265 55.6263 6.33368 55.6263 5.96915ZM56.1253 5.92359C56.1253 6.19698 56.1707 6.37925 56.3068 6.56151C56.443 6.69821 56.5791 6.78934 56.7606 6.78934C56.942 6.78934 57.1235 6.69821 57.2143 6.56151C57.3504 6.42481 57.3958 6.19698 57.3958 5.92359C57.3958 5.65019 57.3504 5.42236 57.2143 5.28566C57.0782 5.14896 56.9421 5.10339 56.7152 5.10339C56.5337 5.10339 56.3522 5.14896 56.2161 5.33123C56.1707 5.46792 56.1253 5.65019 56.1253 5.92359Z" fill="white"/>
<path d="M58.2579 7.1083L58.2579 4.73886L58.757 4.73886L58.757 6.69821L59.9367 6.69821L59.9367 7.1083L58.2579 7.1083Z" fill="white"/>
<path d="M60.1635 5.96915C60.1635 5.74132 60.2089 5.51349 60.2542 5.33123C60.2996 5.19453 60.3904 5.10339 60.4811 5.01226C60.5718 4.92113 60.6626 4.83 60.7987 4.78443C60.9348 4.73886 61.1163 4.6933 61.2978 4.6933C61.6608 4.6933 61.933 4.78443 62.1599 5.01226C62.3867 5.24009 62.4775 5.51349 62.4775 5.92359C62.4775 6.33368 62.3867 6.60708 62.1599 6.83491C61.933 7.06274 61.6608 7.15387 61.2978 7.15387C60.9348 7.15387 60.6626 7.06274 60.4357 6.83491C60.2542 6.65265 60.1635 6.33368 60.1635 5.96915ZM60.6172 5.92359C60.6172 6.19698 60.6626 6.37925 60.7987 6.56151C60.9348 6.69821 61.0709 6.78934 61.2524 6.78934C61.4339 6.78934 61.6154 6.69821 61.7062 6.56151C61.8423 6.42481 61.8876 6.19698 61.8876 5.92359C61.8876 5.65019 61.8423 5.42236 61.7062 5.28566C61.57 5.14896 61.4339 5.10339 61.2524 5.10339C61.0709 5.10339 60.8895 5.14896 60.7533 5.33123C60.708 5.46792 60.6172 5.65019 60.6172 5.92359Z" fill="white"/>
<path d="M62.7951 7.1083L62.7951 4.73886L63.5211 4.73886L63.9294 6.37925L64.3378 4.73886L65.0637 4.73886L65.0637 7.1083L64.61 7.1083L64.61 5.24009L64.1563 7.1083L63.7026 7.1083L63.2488 5.24009L63.2488 7.1083L62.7951 7.1083Z" fill="white"/>
<path d="M65.472 4.73886L66.4249 4.73886C66.6064 4.73886 66.7425 4.73886 66.8332 4.73886C66.924 4.73886 67.0147 4.78443 67.1054 4.82999C67.1962 4.87556 67.2416 4.96669 67.2869 5.01226C67.3323 5.10339 67.3777 5.19452 67.3777 5.28566C67.3777 5.42235 67.3323 5.51349 67.2869 5.60462C67.2416 5.69575 67.1508 5.78688 67.0601 5.83245C67.1962 5.87802 67.3323 5.96915 67.3777 6.06028C67.4684 6.15141 67.5138 6.28811 67.5138 6.42481C67.5138 6.51594 67.4684 6.65264 67.4231 6.74377C67.3777 6.83491 67.2869 6.92604 67.2416 6.97161C67.1508 7.01717 67.0601 7.06274 66.924 7.06274C66.8332 7.06274 66.6517 7.06274 66.3341 7.06274L65.5174 7.06274L65.5174 4.73886L65.472 4.73886ZM65.9711 5.14896L65.9711 5.69575L66.2887 5.69575C66.4702 5.69575 66.6064 5.69575 66.6517 5.69575C66.7425 5.69575 66.7878 5.65019 66.8332 5.60462C66.8786 5.55905 66.8786 5.51349 66.8786 5.42235C66.8786 5.33122 66.8786 5.28566 66.8332 5.24009C66.7878 5.19452 66.7425 5.14896 66.6517 5.14896C66.6064 5.14896 66.4702 5.14896 66.2434 5.14896L65.9711 5.14896ZM65.9711 6.10585L65.9711 6.74377L66.4249 6.74377C66.6064 6.74377 66.6971 6.74377 66.7425 6.74377C66.8332 6.74377 66.8786 6.69821 66.924 6.65264C66.9693 6.60708 66.9693 6.56151 66.9693 6.47038C66.9693 6.37925 66.9693 6.33368 66.924 6.28811C66.8786 6.24255 66.8332 6.19698 66.7878 6.19698C66.7425 6.15141 66.561 6.15141 66.3795 6.15141L65.9711 6.15141L65.9711 6.10585Z" fill="white"/>
<path d="M67.8314 7.1083L67.8314 4.73886L68.3305 4.73886L68.3305 7.1083L67.8314 7.1083Z" fill="white"/>
<path d="M70.8713 7.1083L70.3722 7.1083L70.1454 6.56151L69.1926 6.56151L69.0111 7.1083L68.512 7.1083L69.4194 4.73886L69.9185 4.73886L70.8713 7.1083ZM69.9639 6.19698L69.6463 5.33122L69.3287 6.19698L69.9639 6.19698Z" fill="white"/>
<path d="M2.45008 6.01471L1.04355 2.05045L1.90562 2.05045L2.9038 4.96668L3.85662 2.05045L4.71869 2.05045L3.31216 6.01471L2.45008 6.01471Z" fill="white"/>
<path d="M5.3993 6.01471L5.3993 2.05045L6.216 2.05045L6.216 6.01471L5.3993 6.01471Z" fill="white"/>
<path d="M9.07441 4.55659L9.07441 3.87309L10.7986 3.87309L10.7986 5.46791C10.6171 5.65018 10.3902 5.78688 10.0726 5.92357C9.75499 6.06027 9.43738 6.10584 9.11978 6.10584C8.71143 6.10584 8.34845 6.01471 8.03085 5.83244C7.71324 5.65018 7.48638 5.42235 7.35026 5.10338C7.21415 4.78442 7.1234 4.41989 7.1234 4.05536C7.1234 3.64526 7.21415 3.28073 7.39564 2.96177C7.57713 2.64281 7.80399 2.36941 8.16697 2.23271C8.4392 2.09601 8.7568 2.05045 9.11978 2.05045C9.61887 2.05045 9.98185 2.14158 10.2541 2.36941C10.5263 2.59724 10.7078 2.87064 10.7986 3.23517L9.98185 3.37187C9.93648 3.1896 9.80037 3.00734 9.66425 2.9162C9.52813 2.77951 9.30127 2.73394 9.07441 2.73394C8.71143 2.73394 8.4392 2.82507 8.25771 3.0529C8.03085 3.28073 7.9401 3.5997 7.9401 4.05536C7.9401 4.51102 8.03085 4.87555 8.25771 5.10338C8.48457 5.33121 8.7568 5.46791 9.07441 5.46791C9.2559 5.46791 9.39201 5.42235 9.5735 5.37678C9.75499 5.28565 9.8911 5.24008 10.0272 5.14895L10.0272 4.55659L9.07441 4.55659Z" fill="white"/>
<path d="M11.7967 6.01471L11.7967 2.05045L12.6134 2.05045L12.6134 6.01471L11.7967 6.01471Z" fill="white"/>
<path d="M13.657 6.01471L13.657 2.05045L14.4737 2.05045L14.4737 5.33121L16.4247 5.33121L16.4247 6.01471L13.657 6.01471Z" fill="white"/>
<path d="M20.8712 6.01471L20.0091 6.01471L19.6462 5.10338L18.0581 5.10338L17.7405 6.01471L16.8785 6.01471L18.4211 2.05045L19.2832 2.05045L20.8712 6.01471ZM19.3739 4.41989L18.8295 2.96177L18.285 4.41989L19.3739 4.41989Z" fill="white"/>
<path d="M21.5517 2.05045L23.0037 2.05045C23.3213 2.05045 23.5935 2.09601 23.775 2.14158C24.0018 2.18714 24.1833 2.32384 24.3648 2.50611C24.5463 2.68837 24.6371 2.9162 24.7278 3.14404C24.8185 3.41743 24.8639 3.69083 24.8639 4.10093C24.8639 4.41989 24.8185 4.69329 24.7278 4.96668C24.6371 5.24008 24.5009 5.51348 24.3194 5.65018C24.1833 5.78688 24.0018 5.87801 23.775 5.96914C23.5935 6.01471 23.3666 6.06027 23.0944 6.06027L21.5971 6.06027L21.5971 2.05045L21.5517 2.05045ZM22.3684 2.73394L22.3684 5.37678L22.9583 5.37678C23.1851 5.37678 23.3213 5.37678 23.4574 5.33121C23.5935 5.28565 23.6842 5.24008 23.775 5.14895C23.8657 5.05782 23.9111 4.92112 24.0018 4.78442C24.0472 4.60215 24.0926 4.37432 24.0926 4.05536C24.0926 3.7364 24.0472 3.50856 24.0018 3.3263C23.9565 3.14404 23.8657 3.0529 23.775 2.96177C23.6842 2.87064 23.5481 2.82507 23.412 2.77951C23.2759 2.73394 23.049 2.73394 22.6861 2.73394L22.3684 2.73394Z" fill="white"/>
<path d="M25.6807 4.05539C25.6807 3.6453 25.726 3.32633 25.8621 3.05294C25.9529 2.82511 26.089 2.68841 26.2251 2.50614C26.4066 2.32388 26.5427 2.23274 26.7242 2.14161C26.9511 2.05048 27.2687 2.00491 27.5863 2.00491C28.1761 2.00491 28.6298 2.18718 28.9928 2.55171C29.3558 2.91624 29.5373 3.41747 29.5373 4.05539C29.5373 4.69332 29.3558 5.19455 28.9928 5.55908C28.6298 5.92361 28.1761 6.10587 27.5863 6.10587C26.9965 6.10587 26.5427 5.92361 26.1797 5.55908C25.8621 5.19455 25.6807 4.69332 25.6807 4.05539ZM26.4974 4.00983C26.4974 4.46549 26.5881 4.78445 26.815 5.05785C26.9964 5.28568 27.2687 5.42238 27.5863 5.42238C27.9039 5.42238 28.1761 5.28568 28.3576 5.05785C28.5845 4.83002 28.6752 4.46549 28.6752 4.00983C28.6752 3.55416 28.5845 3.18963 28.3576 3.00737C28.1761 2.77954 27.9039 2.68841 27.5863 2.68841C27.2687 2.68841 26.9964 2.77954 26.7696 3.00737C26.5881 3.2352 26.4974 3.55416 26.4974 4.00983Z" fill="white"/>
<path d="M30.7624 0L1.14441e-05 -1.34466e-06L1.14082e-05 0.820191L30.7624 0.820192L30.7624 0Z" fill="white"/>
<path d="M30.7624 8.01966L30.7624 7.19946L1.14441e-05 7.19946L1.14082e-05 8.01965L30.7624 8.01966Z" fill="white"/>
</svg>
