<svg width="241" height="17" viewBox="0 0 241 17" fill="none" xmlns="http://www.w3.org/2000/svg">
<path d="M2.72555 5.5506C2.79691 5.91103 3.15372 6.12729 3.51052 5.98312C6.43633 5.04599 9.43349 4.4693 12.502 3.96469C12.8588 3.89261 13.0729 3.53217 12.9302 3.17174C12.6447 2.37879 12.502 2.01835 12.2166 1.2254C12.0738 0.937055 11.7884 0.720795 11.4316 0.720795C8.43443 1.2254 5.57999 1.73001 2.65419 2.59505C2.29739 2.66713 2.0833 3.09965 2.15466 3.46009C2.36875 4.32512 2.51147 4.75764 2.72555 5.5506Z" fill="white"/>
<path d="M14.7142 5.98314C14.5715 5.62271 14.286 5.40645 14.0006 5.47853C9.29076 6.05523 4.79502 7.20861 0.441997 9.15495C0.156553 9.29912 -0.0575302 9.73164 0.0138308 10.02C0.156553 10.885 0.299275 11.3896 0.441997 12.2547C0.513358 12.6151 0.870163 12.8314 1.22697 12.6151C5.57999 10.6688 10.2185 9.37121 14.9283 8.57826C15.2137 8.50617 15.3565 8.14574 15.2851 7.85739C15.071 7.13653 14.9283 6.77609 14.7142 5.98314Z" fill="white"/>
<path d="M14.6428 11.0292C14.5001 10.6688 14.2147 10.4525 13.8579 10.5246C10.9321 11.1734 8.07763 11.8942 5.22319 12.9034C4.93774 12.9755 4.72366 13.336 4.79502 13.6964C5.0091 14.5614 5.15182 14.9219 5.36591 15.7869C5.43727 16.1473 5.9368 16.3636 6.2936 16.2194C9.14804 15.2102 12.0025 14.3452 14.9283 13.6243C15.2137 13.5522 15.3565 13.1918 15.2137 12.9034C14.9996 12.1105 14.9283 11.7501 14.6428 11.0292Z" fill="white"/>
<path d="M28.915 10.3083C28.915 12.543 26.7028 13.9847 24.2052 13.9847H19.5667V1.73C21.1367 1.51374 22.2785 1.36957 23.6343 1.36957C26.2033 1.36957 28.2014 2.59504 28.2014 4.68555C28.2014 5.91102 27.5592 6.70398 26.4888 7.13649C28.2014 7.56901 28.915 8.65031 28.915 10.3083ZM23.6343 3.74843C23.2062 3.74843 22.8494 3.82051 22.4212 3.82051V6.34354H23.7057C24.8475 6.34354 25.347 5.83894 25.347 5.04598C25.347 4.32512 24.8475 3.74843 23.6343 3.74843ZM25.8465 10.1641C25.8465 9.15492 25.2043 8.7224 23.9198 8.7224H22.4212V11.6059H23.9198C25.1329 11.6059 25.8465 11.1013 25.8465 10.1641Z" fill="white"/>
<path d="M38.3347 8.0737V13.0477C37.3356 13.8406 35.6943 14.2731 33.4821 14.2731C31.484 14.2731 29.8427 13.4802 29.8427 11.678C29.8427 8.93874 32.4831 8.28996 35.5516 8.21788C35.4802 7.06449 35.0521 6.70406 33.9817 6.70406C33.4108 6.70406 31.9835 6.92032 31.7695 6.92032C31.3413 6.92032 30.9845 6.63197 30.6277 5.76693L30.4136 5.11815C31.5554 4.68563 32.6972 4.39729 33.9817 4.39729C36.7647 4.3252 38.3347 5.4065 38.3347 8.0737ZM35.5516 11.6059V9.94795H34.9807C33.6962 9.94795 32.5544 10.2363 32.5544 11.1013C32.5544 11.7501 32.9826 12.0385 33.9103 12.0385C34.6953 12.0385 35.2661 11.8222 35.5516 11.6059Z" fill="white"/>
<path d="M48.6821 7.28072V14.0569H45.8276V8.28993C45.8276 7.28072 45.1854 6.77611 44.0436 6.77611C43.6154 6.77611 43.1873 6.8482 42.8305 6.92028V14.0569H39.976V5.62272C41.1892 4.75768 43.1159 4.32516 44.6858 4.32516C46.8267 4.32516 48.6821 5.40646 48.6821 7.28072Z" fill="white"/>
<path d="M49.8952 9.37123C49.8952 6.05524 52.1787 4.32516 55.1759 4.32516C56.0322 4.32516 56.7458 4.46934 57.6735 4.61351C57.5308 5.55064 57.174 6.41568 56.7458 6.8482C56.4604 6.77611 55.8895 6.70402 55.6041 6.70402C53.6773 6.70402 52.9637 7.71323 52.9637 9.22705C52.9637 10.7409 53.6773 11.678 55.4613 11.678C55.9609 11.678 56.5317 11.6059 57.2454 11.3176L57.7449 13.6243C56.7458 14.0569 55.6041 14.201 54.8191 14.201C51.8219 14.201 49.8952 12.471 49.8952 9.37123Z" fill="white"/>
<path d="M58.173 9.22706C58.173 6.19942 60.1712 4.25308 63.097 4.25308C66.0941 4.25308 68.0209 6.19942 68.0209 9.22706C68.0209 12.2547 66.0941 14.201 63.097 14.201C60.0998 14.201 58.173 12.2547 58.173 9.22706ZM65.1664 9.22706C65.1664 7.64115 64.3815 6.77611 63.097 6.77611C61.8125 6.77611 61.0275 7.71324 61.0275 9.22706C61.0275 10.885 61.8125 11.7501 63.097 11.7501C64.3815 11.7501 65.1664 10.885 65.1664 9.22706Z" fill="white"/>
<path d="M69.5909 1.80212C70.2331 1.29751 71.6603 0.86499 72.4453 0.86499V13.9847H69.5909V1.80212Z" fill="white"/>
<path d="M74.0152 9.22706C74.0152 6.19942 76.0133 4.25308 78.9391 4.25308C81.9363 4.25308 83.863 6.19942 83.863 9.22706C83.863 12.2547 81.9363 14.201 78.9391 14.201C75.9419 14.201 74.0152 12.2547 74.0152 9.22706ZM81.0086 9.22706C81.0086 7.64115 80.2236 6.77611 78.9391 6.77611C77.6546 6.77611 76.8696 7.71324 76.8696 9.22706C76.8696 10.885 77.6546 11.7501 78.9391 11.7501C80.295 11.7501 81.0086 10.885 81.0086 9.22706Z" fill="white"/>
<path d="M99.7052 7.28068V14.0568H96.9221V8.2899C96.9221 7.28068 96.2799 6.77608 95.1381 6.77608C94.6386 6.77608 94.139 6.92025 93.7109 7.06442C93.8536 7.49694 93.925 7.92946 93.925 8.43407V14.0568H91.1419V8.2899C91.1419 7.28068 90.4996 6.77608 89.3579 6.77608C88.9297 6.77608 88.5015 6.84816 88.1447 6.92025V14.0568H85.2903V5.62269C86.432 4.82974 88.2161 4.39722 89.6433 4.39722C90.8564 4.39722 91.8555 4.82974 92.5691 5.40643C93.4968 4.75765 94.8527 4.39722 95.9944 4.39722C98.0639 4.32513 99.7052 5.40643 99.7052 7.28068Z" fill="white"/>
<path d="M111.052 8.79452C111.052 12.2547 109.053 14.2731 105.7 14.2731C104.058 14.2731 102.488 13.9847 101.561 13.5522V1.80212C102.203 1.29751 103.701 0.86499 104.415 0.86499V5.33436C105.2 4.61349 106.199 4.25306 107.055 4.25306C109.91 4.32515 111.052 6.27148 111.052 8.79452ZM108.269 9.15495C108.269 7.42487 107.341 6.77609 105.914 6.77609C105.343 6.77609 104.843 6.92026 104.415 7.06444V11.8222C104.915 11.8942 105.414 11.9663 105.842 11.9663C107.555 11.9663 108.269 10.6688 108.269 9.15495Z" fill="white"/>
<path d="M112.622 1.58584C112.622 0.792883 113.264 0.144104 114.049 0.144104C114.834 0.144104 115.547 0.792883 115.547 1.58584C115.547 2.37879 114.905 3.02757 114.049 3.02757C113.335 3.02757 112.622 2.37879 112.622 1.58584ZM112.693 4.61347C113.121 4.4693 113.549 4.32513 114.12 4.32513C114.691 4.32513 115.119 4.39721 115.547 4.61347V14.0568H112.693V4.61347Z" fill="white"/>
<path d="M125.395 8.0737V13.0477C124.396 13.8406 122.755 14.2731 120.543 14.2731C118.545 14.2731 116.903 13.4802 116.903 11.678C116.903 8.93874 119.544 8.28996 122.612 8.21788C122.541 7.06449 122.113 6.70406 121.042 6.70406C120.471 6.70406 119.044 6.92032 118.83 6.92032C118.402 6.92032 118.045 6.63197 117.688 5.76693L117.474 5.11815C118.616 4.68563 119.758 4.39729 121.042 4.39729C123.825 4.3252 125.395 5.4065 125.395 8.0737ZM122.683 11.6059V9.94795H122.113C120.828 9.94795 119.686 10.2363 119.686 11.1013C119.686 11.7501 120.114 12.0385 121.042 12.0385C121.756 12.0385 122.398 11.8222 122.683 11.6059Z" fill="white"/>
<path d="M139.525 0V16.4357" stroke="white" stroke-width="0.137512" stroke-miterlimit="10"/>
<path d="M168.925 2.16254H162.217V14.4173H168.925V2.16254Z" fill="#7A7A7A"/>
<path d="M162.646 8.28993C162.646 5.83899 163.787 3.6043 165.571 2.16257C164.287 1.15336 162.574 0.504578 160.79 0.504578C156.509 0.504578 153.083 3.96473 153.083 8.28993C153.083 12.6151 156.509 16.0753 160.79 16.0753C162.574 16.0753 164.216 15.4265 165.571 14.4173C163.787 12.9756 162.646 10.7409 162.646 8.28993Z" fill="#404040"/>
<path d="M177.275 13.1196V12.9034H177.346V12.8313H177.061V12.9034H177.132L177.275 13.1196ZM177.774 13.1196V12.8313H177.703L177.631 13.0476L177.56 12.8313H177.489V13.1196H177.56V12.9034L177.631 13.1196H177.703L177.774 12.9034V13.1196Z" fill="white"/>
<path d="M178.06 8.28993C178.06 12.6151 174.634 16.0753 170.353 16.0753C168.569 16.0753 166.927 15.4265 165.571 14.4173C167.355 12.9756 168.497 10.813 168.497 8.28993C168.497 5.7669 167.355 3.6043 165.571 2.16257C166.856 1.15336 168.569 0.504578 170.353 0.504578C174.563 0.504578 178.06 3.96473 178.06 8.28993Z" fill="#B8B8B8"/>
<path d="M191.261 10.885V7.64106C191.261 6.41559 190.476 5.62264 189.263 5.55055C188.621 5.55055 187.907 5.76681 187.479 6.48768C187.122 5.91098 186.552 5.55055 185.767 5.55055C185.196 5.55055 184.696 5.69472 184.268 6.3435V5.69472H183.126V10.885H184.268V8.0015C184.268 7.13646 184.768 6.63185 185.552 6.63185C186.266 6.63185 186.694 7.13646 186.694 8.0015V10.885H187.836V8.0015C187.836 7.13646 188.336 6.63185 189.121 6.63185C189.906 6.63185 190.262 7.13646 190.262 8.0015V10.885H191.261ZM207.96 5.69472H206.104V4.18091H204.963V5.76681H203.892V6.77602H204.963V9.15488C204.963 10.3804 205.391 11.1012 206.747 11.1012C207.246 11.1012 207.817 10.957 208.174 10.6687L207.817 9.73157C207.46 9.94783 207.104 10.0199 206.818 10.0199C206.247 10.0199 206.104 9.65949 206.104 9.15488V6.77602H207.96V5.69472ZM217.451 5.62264C216.809 5.62264 216.38 5.91098 216.095 6.41559V5.69472H215.025V10.885H216.166V8.0015C216.166 7.13646 216.523 6.70394 217.237 6.70394C217.451 6.70394 217.665 6.70394 217.95 6.84811L218.307 5.76681C218.022 5.62264 217.665 5.62264 217.451 5.62264ZM203.107 6.12724C202.536 5.76681 201.823 5.55055 201.038 5.55055C199.753 5.55055 198.897 6.19933 198.897 7.20854C198.897 8.07358 199.539 8.57819 200.681 8.72236L201.181 8.79445C201.823 8.86653 202.108 9.01071 202.108 9.37114C202.108 9.80366 201.68 10.0199 200.966 10.0199C200.182 10.0199 199.611 9.80366 199.254 9.44323L198.754 10.3083C199.397 10.7408 200.11 10.957 200.966 10.957C202.465 10.957 203.321 10.2362 203.321 9.29905C203.321 8.36193 202.679 7.92941 201.537 7.78524L201.038 7.71315C200.538 7.64106 200.181 7.56898 200.181 7.20854C200.181 6.84811 200.538 6.63185 201.181 6.63185C201.823 6.63185 202.465 6.84811 202.75 7.06437L203.107 6.12724ZM232.936 5.62264C232.294 5.62264 231.866 5.91098 231.58 6.41559V5.69472H230.51V10.885H231.652V8.0015C231.652 7.13646 232.009 6.70394 232.722 6.70394C232.936 6.70394 233.15 6.70394 233.436 6.84811L233.793 5.76681C233.507 5.62264 233.15 5.62264 232.936 5.62264ZM218.593 8.28984C218.593 9.87575 219.663 11.0291 221.304 11.0291C222.089 11.0291 222.589 10.885 223.16 10.3804L222.589 9.44323C222.161 9.73157 221.733 9.87575 221.233 9.87575C220.377 9.87575 219.663 9.22697 219.663 8.21775C219.663 7.20854 220.305 6.55976 221.233 6.55976C221.733 6.55976 222.161 6.70394 222.589 6.99228L223.16 6.05516C222.589 5.62264 222.089 5.40638 221.304 5.40638C219.663 5.62264 218.593 6.77602 218.593 8.28984ZM229.011 8.28984V5.69472H227.87V6.3435C227.513 5.91098 227.013 5.55055 226.228 5.55055C224.801 5.55055 223.659 6.70394 223.659 8.28984C223.659 9.87575 224.801 11.0291 226.228 11.0291C226.942 11.0291 227.513 10.7408 227.87 10.2362V10.885H229.011V8.28984ZM224.872 8.28984C224.872 7.35272 225.443 6.63185 226.442 6.63185C227.37 6.63185 228.012 7.35272 228.012 8.28984C228.012 9.22697 227.37 9.94783 226.442 9.94783C225.443 9.94783 224.872 9.22697 224.872 8.28984ZM211.457 5.62264C209.958 5.62264 208.888 6.70394 208.888 8.36193C208.888 10.0199 209.958 11.1012 211.528 11.1012C212.313 11.1012 213.026 10.885 213.597 10.3804L213.026 9.51531C212.598 9.87575 212.027 10.092 211.528 10.092C210.814 10.092 210.172 9.73157 210.029 8.79445H213.811C213.811 8.65027 213.811 8.5061 213.811 8.36193C213.883 6.70394 212.884 5.62264 211.457 5.62264ZM211.385 6.63185C212.099 6.63185 212.598 7.06437 212.67 7.85732H210.029C210.172 7.13646 210.6 6.63185 211.385 6.63185ZM239.359 8.28984V3.6763H238.288V6.41559C237.931 5.98307 237.432 5.62264 236.647 5.62264C235.22 5.62264 234.078 6.77602 234.078 8.36193C234.078 9.94783 235.22 11.1012 236.647 11.1012C237.361 11.1012 237.931 10.8129 238.288 10.3083V10.957H239.43V8.28984H239.359ZM240.715 10.4524C240.786 10.4524 240.786 10.4524 240.857 10.4524C240.929 10.4524 240.929 10.5245 240.929 10.5245L241 10.5966C241 10.6687 241 10.6687 241 10.7408C241 10.8129 241 10.8129 241 10.885C241 10.957 240.929 10.957 240.929 10.957L240.857 11.0291C240.786 11.0291 240.786 11.0291 240.715 11.0291C240.643 11.0291 240.643 11.0291 240.572 11.0291C240.5 11.0291 240.5 10.957 240.5 10.957L240.429 10.885C240.429 10.8129 240.429 10.8129 240.429 10.7408C240.429 10.6687 240.429 10.6687 240.429 10.5966C240.429 10.5245 240.5 10.5245 240.5 10.5245L240.572 10.4524C240.572 10.4524 240.643 10.4524 240.715 10.4524ZM240.715 11.0291H240.786C240.786 11.0291 240.857 11.0291 240.857 10.957L240.929 10.885V10.8129V10.7408C240.929 10.7408 240.929 10.6687 240.857 10.6687L240.786 10.5966H240.715H240.643C240.643 10.5966 240.572 10.5966 240.572 10.6687L240.5 10.7408V10.8129V10.885C240.5 10.885 240.5 10.957 240.572 10.957L240.643 11.0291C240.643 11.0291 240.643 11.0291 240.715 11.0291ZM240.715 10.5966C240.786 10.5966 240.786 10.5966 240.786 10.5966V10.6687V10.7408H240.715L240.786 10.885H240.715L240.643 10.7408V10.885H240.572V10.5966H240.715ZM240.643 10.6687V10.7408H240.715C240.715 10.7408 240.715 10.7408 240.786 10.7408C240.786 10.7408 240.786 10.7408 240.715 10.7408H240.643V10.6687ZM235.22 8.28984C235.22 7.35272 235.791 6.63185 236.79 6.63185C237.717 6.63185 238.36 7.35272 238.36 8.28984C238.36 9.22697 237.717 9.94783 236.79 9.94783C235.791 9.94783 235.22 9.22697 235.22 8.28984ZM197.541 8.28984V5.69472H196.399V6.3435C196.043 5.91098 195.543 5.55055 194.758 5.55055C193.331 5.55055 192.189 6.70394 192.189 8.28984C192.189 9.87575 193.331 11.0291 194.758 11.0291C195.472 11.0291 196.043 10.7408 196.399 10.2362V10.885H197.541V8.28984ZM193.402 8.28984C193.402 7.35272 193.973 6.63185 194.972 6.63185C195.9 6.63185 196.542 7.35272 196.542 8.28984C196.542 9.22697 195.9 9.94783 194.972 9.94783C194.044 9.94783 193.402 9.22697 193.402 8.28984Z" fill="white"/>
</svg>
