<svg width="241" height="17" viewBox="0 0 241 17" fill="none" xmlns="http://www.w3.org/2000/svg">
<path d="M2.78903 5.50648C2.86054 5.86405 3.21811 6.07859 3.57567 5.93556C6.50772 5.00589 9.51128 4.43378 12.5864 3.93319C12.9439 3.86168 13.1585 3.50411 13.0154 3.14654C12.7294 2.3599 12.5864 2.00233 12.3003 1.21568C12.1573 0.929628 11.8712 0.715088 11.5137 0.715088C8.51009 1.21568 5.64956 1.71627 2.71751 2.57443C2.35995 2.64595 2.14541 3.07503 2.21692 3.4326C2.43146 4.29076 2.57449 4.71984 2.78903 5.50648Z" fill="#2C2A29"/>
<path d="M14.8033 5.93559C14.6603 5.57802 14.3742 5.36348 14.0882 5.435C9.36828 6.0071 4.86293 7.15132 0.500619 9.08218C0.214565 9.2252 2.52128e-05 9.65428 0.0715386 9.94034C0.214565 10.7985 0.357592 11.2991 0.500619 12.1573C0.572132 12.5148 0.929699 12.7294 1.28727 12.5148C5.64958 10.584 10.2979 9.29672 15.0178 8.51007C15.3039 8.43856 15.4469 8.08099 15.3754 7.79494C15.1609 7.0798 15.0178 6.72224 14.8033 5.93559Z" fill="#2C2A29"/>
<path d="M14.7318 10.9415C14.5887 10.584 14.3027 10.3694 13.9451 10.4409C11.0131 11.0846 8.15253 11.7997 5.292 12.8009C5.00595 12.8724 4.79141 13.23 4.86292 13.5875C5.07746 14.4457 5.22049 14.8033 5.43503 15.6614C5.50654 16.019 6.00713 16.2335 6.3647 16.0905C9.22523 15.0893 12.0858 14.2312 15.0178 13.516C15.3039 13.4445 15.4469 13.0869 15.3039 12.8009C15.0893 12.0142 15.0178 11.6567 14.7318 10.9415Z" fill="#2C2A29"/>
<path d="M29.0344 10.2264C29.0344 12.4433 26.8175 13.8736 24.3145 13.8736H19.6662V1.7163C21.2395 1.50176 22.3837 1.35873 23.7424 1.35873C26.3169 1.35873 28.3193 2.57446 28.3193 4.64835C28.3193 5.86408 27.6757 6.65072 26.603 7.0798C28.3193 7.50888 29.0344 8.58158 29.0344 10.2264ZM23.7424 3.71867C23.3133 3.71867 22.9558 3.79019 22.5267 3.79019V6.29316H23.8139C24.9582 6.29316 25.4587 5.79256 25.4587 5.00592C25.4587 4.29078 24.9582 3.71867 23.7424 3.71867ZM25.9593 10.0834C25.9593 9.08218 25.3157 8.6531 24.0285 8.6531H22.5267V11.5136H24.0285C25.2442 11.5136 25.9593 11.013 25.9593 10.0834Z" fill="#2C2A29"/>
<path d="M38.4742 8.00947V12.9439C37.473 13.7305 35.8282 14.1596 33.6113 14.1596C31.6089 14.1596 29.9641 13.373 29.9641 11.5851C29.9641 8.86763 32.6101 8.22401 35.6852 8.15249C35.6137 7.00828 35.1846 6.65071 34.1119 6.65071C33.5398 6.65071 32.1095 6.86525 31.895 6.86525C31.4659 6.86525 31.1083 6.5792 30.7508 5.72104L30.5362 5.07742C31.6804 4.64834 32.8246 4.36229 34.1119 4.36229C36.9009 4.29077 38.4742 5.36347 38.4742 8.00947ZM35.6852 11.5136V9.86881H35.1131C33.8258 9.86881 32.6816 10.1549 32.6816 11.013C32.6816 11.6566 33.1107 11.9427 34.0404 11.9427C34.827 11.9427 35.3991 11.7282 35.6852 11.5136Z" fill="#2C2A29"/>
<path d="M48.8436 7.22282V13.9451H45.9831V8.22401C45.9831 7.22282 45.3395 6.72223 44.1953 6.72223C43.7662 6.72223 43.3371 6.79374 42.9795 6.86525V13.9451H40.119V5.57801C41.3347 4.71985 43.2656 4.29077 44.8389 4.29077C46.9843 4.29077 48.8436 5.36347 48.8436 7.22282Z" fill="#2C2A29"/>
<path d="M50.0594 9.29671C50.0594 6.00709 52.3478 4.29077 55.3513 4.29077C56.2095 4.29077 56.9246 4.4338 57.8543 4.57682C57.7113 5.5065 57.3537 6.36466 56.9246 6.79374C56.6386 6.72223 56.0665 6.65071 55.7804 6.65071C53.8496 6.65071 53.1344 7.6519 53.1344 9.15368C53.1344 10.6555 53.8496 11.5851 55.6374 11.5851C56.138 11.5851 56.7101 11.5136 57.4252 11.2276L57.9258 13.516C56.9246 13.9451 55.7804 14.0881 54.9938 14.0881C51.9902 14.0881 50.0594 12.3718 50.0594 9.29671Z" fill="#2C2A29"/>
<path d="M58.3549 9.15369C58.3549 6.15013 60.3573 4.21927 63.2893 4.21927C66.2929 4.21927 68.2237 6.15013 68.2237 9.15369C68.2237 12.1573 66.2929 14.0881 63.2893 14.0881C60.2858 14.0881 58.3549 12.1573 58.3549 9.15369ZM65.3632 9.15369C65.3632 7.5804 64.5766 6.72224 63.2893 6.72224C62.0021 6.72224 61.2154 7.65191 61.2154 9.15369C61.2154 10.7985 62.0021 11.6567 63.2893 11.6567C64.5766 11.6567 65.3632 10.7985 65.3632 9.15369Z" fill="#2C2A29"/>
<path d="M69.797 1.7878C70.4407 1.2872 71.8709 0.858124 72.6576 0.858124V13.8736H69.797V1.7878Z" fill="#2C2A29"/>
<path d="M74.2309 9.15369C74.2309 6.15013 76.2333 4.21927 79.1653 4.21927C82.1689 4.21927 84.0997 6.15013 84.0997 9.15369C84.0997 12.1573 82.1689 14.0881 79.1653 14.0881C76.1617 14.0881 74.2309 12.1573 74.2309 9.15369ZM81.2392 9.15369C81.2392 7.5804 80.4525 6.72224 79.1653 6.72224C77.8781 6.72224 77.0914 7.65191 77.0914 9.15369C77.0914 10.7985 77.8781 11.6567 79.1653 11.6567C80.5241 11.6567 81.2392 10.7985 81.2392 9.15369Z" fill="#2C2A29"/>
<path d="M99.9757 7.22285V13.9451H97.1866V8.22403C97.1866 7.22285 96.543 6.72225 95.3988 6.72225C94.8982 6.72225 94.3976 6.86528 93.9685 7.00831C94.1116 7.43739 94.1831 7.86647 94.1831 8.36706V13.9451H91.3941V8.22403C91.3941 7.22285 90.7504 6.72225 89.6062 6.72225C89.1772 6.72225 88.7481 6.79377 88.3905 6.86528V13.9451H85.53V5.57804C86.6742 4.79139 88.462 4.36231 89.8923 4.36231C91.108 4.36231 92.1092 4.79139 92.8243 5.3635C93.754 4.71988 95.1128 4.36231 96.257 4.36231C98.3309 4.2908 99.9757 5.3635 99.9757 7.22285Z" fill="#2C2A29"/>
<path d="M111.346 8.72459C111.346 12.1572 109.344 14.1596 105.983 14.1596C104.338 14.1596 102.765 13.8736 101.835 13.4445V1.7878C102.479 1.2872 103.98 0.858124 104.696 0.858124V5.29195C105.482 4.57682 106.483 4.21925 107.342 4.21925C110.202 4.29076 111.346 6.22162 111.346 8.72459ZM108.557 9.08216C108.557 7.36584 107.628 6.72222 106.197 6.72222C105.625 6.72222 105.125 6.86525 104.696 7.00827V11.7282C105.196 11.7997 105.697 11.8712 106.126 11.8712C107.842 11.8712 108.557 10.5839 108.557 9.08216Z" fill="#2C2A29"/>
<path d="M112.92 1.57327C112.92 0.786626 113.563 0.143005 114.35 0.143005C115.137 0.143005 115.852 0.786626 115.852 1.57327C115.852 2.35992 115.208 3.00354 114.35 3.00354C113.635 3.00354 112.92 2.35992 112.92 1.57327ZM112.991 4.57683C113.42 4.43381 113.849 4.29078 114.421 4.29078C114.993 4.29078 115.423 4.36229 115.852 4.57683V13.9451H112.991V4.57683Z" fill="#2C2A29"/>
<path d="M125.72 8.00947V12.9439C124.719 13.7305 123.074 14.1596 120.858 14.1596C118.855 14.1596 117.21 13.373 117.21 11.5851C117.21 8.86763 119.856 8.22401 122.931 8.15249C122.86 7.00828 122.431 6.65071 121.358 6.65071C120.786 6.65071 119.356 6.86525 119.141 6.86525C118.712 6.86525 118.355 6.5792 117.997 5.72104L117.782 5.07742C118.927 4.64834 120.071 4.36229 121.358 4.36229C124.147 4.29077 125.72 5.36347 125.72 8.00947ZM123.003 11.5136V9.86881H122.431C121.144 9.86881 119.999 10.1549 119.999 11.013C119.999 11.6566 120.428 11.9427 121.358 11.9427C122.073 11.9427 122.717 11.7282 123.003 11.5136Z" fill="#2C2A29"/>
<path d="M191.584 10.727V7.50886C191.584 6.29313 190.798 5.50648 189.582 5.50648C188.938 5.50648 188.295 5.72102 187.794 6.43616C187.437 5.86405 186.864 5.50648 186.078 5.50648C185.506 5.50648 185.005 5.64951 184.576 6.29313V5.64951H183.432V10.727H184.576V7.86642C184.576 7.00826 185.077 6.50767 185.792 6.50767C186.507 6.50767 186.936 7.00826 186.936 7.86642V10.727H188.08V7.86642C188.08 7.00826 188.581 6.50767 189.296 6.50767C190.083 6.50767 190.44 7.00826 190.44 7.86642V10.727H191.584ZM208.104 5.64951H206.316V4.07622H205.172V5.64951H204.171V6.6507H205.172V9.01064C205.172 10.2264 205.601 10.87 206.96 10.87C207.46 10.87 207.961 10.727 208.318 10.4409L208.032 9.51123C207.675 9.72577 207.317 9.79728 207.031 9.79728C206.459 9.79728 206.316 9.43972 206.316 8.93912V6.6507H208.104V5.64951ZM217.615 5.50648C216.972 5.50648 216.542 5.79254 216.256 6.22162V5.64951H215.184V10.727H216.328V7.86642C216.328 7.00826 216.686 6.57918 217.401 6.57918C217.615 6.57918 217.83 6.57918 218.116 6.72221L218.473 5.64951C218.116 5.578 217.83 5.50648 217.615 5.50648ZM203.312 6.00708C202.812 5.64951 202.025 5.50648 201.239 5.50648C199.951 5.50648 199.093 6.1501 199.093 7.15129C199.093 8.00945 199.737 8.51004 200.881 8.65307L201.382 8.72458C201.954 8.7961 202.311 8.93912 202.311 9.22518C202.311 9.65426 201.882 9.8688 201.167 9.8688C200.38 9.8688 199.88 9.65426 199.451 9.3682L198.95 10.2264C199.522 10.6554 200.309 10.87 201.167 10.87C202.669 10.87 203.527 10.1549 203.527 9.22518C203.527 8.2955 202.883 7.86642 201.739 7.7234L201.239 7.65188C200.738 7.58037 200.38 7.50886 200.38 7.15129C200.38 6.79372 200.738 6.57918 201.382 6.57918C202.025 6.57918 202.669 6.79372 202.955 7.00826L203.312 6.00708ZM232.991 5.50648C232.347 5.50648 231.918 5.79254 231.632 6.22162V5.64951H230.559V10.727H231.703V7.86642C231.703 7.00826 232.061 6.57918 232.776 6.57918C232.991 6.57918 233.205 6.57918 233.491 6.72221L233.849 5.64951C233.563 5.578 233.205 5.50648 232.991 5.50648ZM218.688 8.15248C218.688 9.72577 219.761 10.7985 221.405 10.7985C222.192 10.7985 222.693 10.6554 223.265 10.1549L222.764 9.22518C222.335 9.51123 221.906 9.65426 221.405 9.65426C220.547 9.65426 219.904 9.01064 219.904 8.00945C219.904 7.00826 220.547 6.36464 221.405 6.36464C221.906 6.36464 222.335 6.50767 222.764 6.79372L223.265 5.86405C222.693 5.43497 222.192 5.22043 221.405 5.22043C219.761 5.50648 218.688 6.6507 218.688 8.15248ZM229.057 8.15248V5.64951H227.913V6.29313C227.556 5.86405 227.055 5.578 226.268 5.578C224.838 5.578 223.694 6.72221 223.694 8.22399C223.694 9.79728 224.838 10.87 226.268 10.87C226.983 10.87 227.556 10.5839 227.913 10.1549V10.727H229.057V8.15248ZM224.981 8.15248C224.981 7.2228 225.553 6.50767 226.554 6.50767C227.484 6.50767 228.056 7.2228 228.056 8.15248C228.056 9.08215 227.412 9.79728 226.554 9.79728C225.553 9.79728 224.981 9.08215 224.981 8.15248ZM211.608 5.50648C210.106 5.50648 209.105 6.57918 209.105 8.15248C209.105 9.79728 210.178 10.7985 211.751 10.7985C212.538 10.7985 213.253 10.5839 213.825 10.0833L213.253 9.29669C212.824 9.65426 212.252 9.79728 211.751 9.79728C211.036 9.79728 210.392 9.43972 210.249 8.58156H214.04C214.04 8.43853 214.04 8.2955 214.04 8.15248C213.968 6.57918 213.038 5.50648 211.608 5.50648ZM211.537 6.50767C212.252 6.50767 212.681 6.93675 212.824 7.7234H210.178C210.321 7.00826 210.75 6.50767 211.537 6.50767ZM239.355 8.15248V3.57562H238.211V6.22162C237.853 5.79254 237.353 5.50648 236.566 5.50648C235.136 5.50648 233.992 6.6507 233.992 8.15248C233.992 9.72577 235.136 10.7985 236.566 10.7985C237.281 10.7985 237.853 10.5124 238.211 10.0833V10.727H239.355V8.15248ZM240.642 10.2264C240.714 10.2264 240.714 10.2264 240.786 10.2264C240.857 10.2264 240.857 10.2979 240.857 10.2979L240.929 10.3694C240.929 10.4409 240.929 10.4409 240.929 10.5124C240.929 10.5839 240.929 10.5839 240.929 10.6554C240.929 10.727 240.857 10.727 240.857 10.727L240.786 10.7985C240.714 10.7985 240.714 10.7985 240.642 10.7985C240.571 10.7985 240.571 10.7985 240.499 10.7985C240.428 10.7985 240.428 10.727 240.428 10.727L240.356 10.6554C240.356 10.5839 240.356 10.5839 240.356 10.5124C240.356 10.4409 240.356 10.4409 240.356 10.3694C240.356 10.2979 240.428 10.2979 240.428 10.2979L240.499 10.2264C240.571 10.2979 240.642 10.2264 240.642 10.2264ZM240.642 10.87H240.714C240.714 10.87 240.786 10.87 240.786 10.7985L240.857 10.727V10.6554V10.5839C240.857 10.5839 240.857 10.5124 240.786 10.5124L240.714 10.4409H240.642H240.571C240.571 10.4409 240.499 10.4409 240.499 10.5124L240.428 10.5839V10.6554V10.727C240.428 10.727 240.428 10.7985 240.499 10.7985L240.571 10.87C240.642 10.7985 240.642 10.87 240.642 10.87ZM240.714 10.4409C240.786 10.4409 240.786 10.4409 240.786 10.4409V10.5124V10.5839H240.714L240.786 10.727H240.714L240.642 10.5839V10.727H240.571V10.4409H240.714ZM240.642 10.5124V10.5839H240.714C240.714 10.5839 240.714 10.5839 240.786 10.5839C240.786 10.5839 240.786 10.5839 240.714 10.5839H240.642V10.5124ZM235.279 8.15248C235.279 7.2228 235.851 6.50767 236.852 6.50767C237.782 6.50767 238.354 7.2228 238.354 8.15248C238.354 9.08215 237.71 9.79728 236.852 9.79728C235.851 9.79728 235.279 9.08215 235.279 8.15248ZM197.806 8.15248V5.64951H196.662V6.29313C196.304 5.86405 195.804 5.578 195.017 5.578C193.587 5.578 192.442 6.72221 192.442 8.22399C192.442 9.79728 193.587 10.87 195.017 10.87C195.732 10.87 196.304 10.5839 196.662 10.1549V10.727H197.806V8.15248ZM193.658 8.15248C193.658 7.2228 194.23 6.50767 195.231 6.50767C196.161 6.50767 196.733 7.2228 196.733 8.15248C196.733 9.08215 196.09 9.79728 195.231 9.79728C194.23 9.79728 193.658 9.08215 193.658 8.15248Z" fill="#272425"/>
<path d="M169.344 2.14536H162.621V14.2311H169.344V2.14536Z" fill="#DF5F16"/>
<path d="M163.05 8.15251C163.05 5.72105 164.195 3.50414 165.983 2.14539C164.695 1.1442 163.05 0.50058 161.263 0.50058C157.043 0.50058 153.611 3.93322 153.611 8.15251C153.611 12.3718 157.043 15.8044 161.263 15.8044C163.05 15.8044 164.695 15.1608 165.983 14.1596C164.195 12.8009 163.05 10.584 163.05 8.15251Z" fill="#C90220"/>
<path d="M178.354 8.15248C178.354 12.3718 174.922 15.8044 170.702 15.8044C168.915 15.8044 167.27 15.1608 165.983 14.1596C167.77 12.7293 168.915 10.5839 168.915 8.15248C168.915 5.72102 167.77 3.50411 165.983 2.14536C167.27 1.14417 168.915 0.500549 170.702 0.500549C174.922 0.500549 178.354 3.93319 178.354 8.15248Z" fill="#E19D2F"/>
<path d="M177.639 12.8724V12.6578H177.711V12.5863H177.425V12.6578H177.496L177.639 12.8724ZM178.14 12.8724V12.5863H178.068L177.997 12.8009L177.925 12.5863H177.854V12.8724H177.925V12.6578L177.997 12.8724H178.068L178.14 12.6578V12.8724Z" fill="#E19D2F"/>
<path d="M139.88 -3.05176e-05V16.305" stroke="#2C2A29" stroke-width="0.125649" stroke-miterlimit="10"/>
</svg>
