<svg width="164" height="166" viewBox="0 0 164 166" fill="none" xmlns="http://www.w3.org/2000/svg">
<g clip-path="url(#clip0)">
<path d="M71.8823 53.5936C57.1035 53.5936 45.0753 41.5653 45.0753 26.7865C45.0753 18.0835 49.3241 9.91409 56.4262 4.8852C57.6783 4.00258 59.4025 4.28995 60.2851 5.54204C61.1677 6.79413 60.8803 8.51832 59.6282 9.40094C53.9836 13.383 50.6173 19.8898 50.6173 26.7865C50.6173 38.5069 60.1619 48.0515 71.8823 48.0515C83.6027 48.0515 93.1473 38.5069 93.1473 26.7865C93.1473 15.0661 83.6232 5.54204 71.8823 5.54204C70.3428 5.54204 69.1113 4.31047 69.1113 2.77102C69.1113 1.23156 70.3634 0 71.8823 0C86.6611 0 98.6893 12.0283 98.6893 26.807C98.6893 41.5858 86.6611 53.5936 71.8823 53.5936Z" fill="#FDDA24"/>
<path d="M71.8823 48.2773C60.0388 48.2773 50.3915 38.6506 50.3915 26.7865C50.3915 14.9225 60.0388 5.31628 71.8823 5.31628C83.7258 5.31628 93.3731 14.943 93.3731 26.8071C93.3731 30.317 92.511 33.8065 90.8689 36.8854C90.1505 38.2401 88.4674 38.7532 87.1126 38.0348C85.7579 37.3164 85.2448 35.6333 85.9632 34.2786C87.1742 32.0002 87.8311 29.4139 87.8311 26.8071C87.8311 18.0219 80.688 10.8583 71.8823 10.8583C63.0766 10.8583 55.9335 18.0014 55.9335 26.8071C55.9335 35.6128 63.0766 42.7558 71.8823 42.7558C73.7091 42.7558 75.5154 42.4479 77.2191 41.8322C78.6559 41.319 80.2364 42.0785 80.7496 43.5153C81.2627 44.9521 80.5033 46.5326 79.0664 47.0458C76.7675 47.8668 74.366 48.2773 71.8823 48.2773Z" fill="#FF7F41"/>
<path d="M61.4756 93.8657L117.142 32.6775C118.99 30.6454 122.151 30.5017 124.162 32.3491L161.54 66.3608C163.572 68.2081 163.716 71.3691 161.869 73.3807L106.222 134.569C104.375 136.601 101.214 136.745 99.2025 134.897L61.804 100.886C59.7719 99.0588 59.6282 95.8978 61.4756 93.8657Z" fill="#9063CD"/>
<path d="M95.3587 131.405L157.729 62.8619L147.072 53.1645L84.7016 121.707L95.3587 131.405Z" fill="#2C2A29"/>
<path d="M125.62 165.707C132.92 165.707 138.838 159.789 138.838 152.488C138.838 145.188 132.92 139.269 125.62 139.269C118.319 139.269 112.401 145.188 112.401 152.488C112.401 159.789 118.319 165.707 125.62 165.707Z" fill="#FDDA24"/>
<path d="M125.62 165.789C118.271 165.789 112.298 159.816 112.298 152.468C112.298 145.119 118.271 139.167 125.62 139.167C132.968 139.167 138.941 145.14 138.941 152.488C138.941 159.837 132.947 165.789 125.62 165.789ZM125.62 139.372C118.394 139.372 112.503 145.242 112.503 152.488C112.503 159.734 118.374 165.604 125.62 165.604C132.865 165.604 138.736 159.734 138.736 152.488C138.736 145.242 132.845 139.372 125.62 139.372Z" fill="#FDDA24"/>
<path d="M125.62 160.103C129.825 160.103 133.235 156.694 133.235 152.488C133.235 148.282 129.825 144.873 125.62 144.873C121.414 144.873 118.004 148.282 118.004 152.488C118.004 156.694 121.414 160.103 125.62 160.103Z" fill="#FF7F41"/>
<path d="M51.6436 109.014L84.7727 33.2318C85.8605 30.7276 88.8163 29.5782 91.3205 30.666L137.627 50.9047C140.131 51.9926 141.281 54.9484 140.193 57.4526L107.084 133.255C105.997 135.759 103.041 136.909 100.537 135.821L54.2299 115.582C51.7052 114.474 50.5557 111.539 51.6436 109.014Z" fill="#59CBE8"/>
<path d="M95.7743 133.728L132.881 48.8099L119.678 43.0405L82.5711 127.959L95.7743 133.728Z" fill="#2C2A29"/>
<path d="M47.0663 126.687L53.9836 44.2543C54.2093 41.5244 56.6314 39.4923 59.3614 39.7181L109.712 43.9259C112.442 44.1517 114.474 46.5738 114.248 49.3037L107.351 131.736C107.126 134.466 104.703 136.498 101.973 136.273L51.6025 132.044C48.8726 131.819 46.8405 129.396 47.0663 126.687Z" fill="#F5B6CD"/>
<path d="M96.8025 135.841L104.55 43.4897L90.1909 42.2852L82.4436 134.636L96.8025 135.841Z" fill="#2C2A29"/>
<path d="M48.2979 145.263L27.6486 65.1702C26.9713 62.5224 28.5723 59.7924 31.2202 59.1151L80.1543 46.4915C82.8022 45.8142 85.5321 47.4152 86.2095 50.0631L106.859 130.176C107.536 132.824 105.935 135.554 103.287 136.231L54.353 148.855C51.7052 149.532 48.9957 147.911 48.2979 145.263Z" fill="#00C389"/>
<path d="M98.2937 137.523L75.1527 47.7853L61.2002 51.3833L84.3412 141.121L98.2937 137.523Z" fill="#2C2A29"/>
<path d="M27.3202 129.191C42.3521 129.191 54.5378 117.005 54.5378 101.974C54.5378 86.9417 42.3521 74.756 27.3202 74.756C12.2884 74.756 0.102646 86.9417 0.102646 101.974C0.102646 117.005 12.2884 129.191 27.3202 129.191Z" fill="#FDDA24"/>
<path d="M27.3202 129.294C12.2541 129.294 1.52588e-05 117.04 1.52588e-05 101.974C1.52588e-05 86.9074 12.2541 74.6533 27.3202 74.6533C42.3863 74.6533 54.6404 86.9074 54.6404 101.974C54.6404 117.04 42.4069 129.294 27.3202 129.294ZM27.3202 74.8586C12.3772 74.8586 0.205276 87.01 0.205276 101.974C0.205276 116.937 12.3772 129.088 27.3202 129.088C42.2837 129.088 54.4351 116.916 54.4351 101.974C54.4351 87.0305 42.2837 74.8586 27.3202 74.8586Z" fill="#FDDA24"/>
<path d="M27.3202 117.655C35.9811 117.655 43.0021 110.634 43.0021 101.974C43.0021 93.3127 35.9811 86.2916 27.3202 86.2916C18.6593 86.2916 11.6383 93.3127 11.6383 101.974C11.6383 110.634 18.6593 117.655 27.3202 117.655Z" fill="#FF7F41"/>
<path d="M71.8823 37.7269C77.9132 37.7269 82.8022 32.838 82.8022 26.8071C82.8022 20.7762 77.9132 15.8872 71.8823 15.8872C65.8514 15.8872 60.9624 20.7762 60.9624 26.8071C60.9624 32.838 65.8514 37.7269 71.8823 37.7269Z" fill="#FDDA24"/>
<path d="M71.8823 37.8295C65.8066 37.8295 60.8598 32.8828 60.8598 26.807C60.8598 20.7313 65.8066 15.7845 71.8823 15.7845C77.958 15.7845 82.9048 20.7313 82.9048 26.807C82.9048 32.8828 77.9785 37.8295 71.8823 37.8295ZM71.8823 15.9898C65.9092 15.9898 61.065 20.834 61.065 26.807C61.065 32.7801 65.9092 37.6243 71.8823 37.6243C77.8554 37.6243 82.6995 32.7801 82.6995 26.807C82.6995 20.834 77.8554 15.9898 71.8823 15.9898Z" fill="#FDDA24"/>
</g>
<defs>
<clipPath id="clip0">
<rect width="163.182" height="165.789" fill="white"/>
</clipPath>
</defs>
</svg>
