<svg width="159" height="173" viewBox="0 0 159 173" fill="none" xmlns="http://www.w3.org/2000/svg">
<g clip-path="url(#clip0)">
<path d="M142.223 119.588H119.184V116.648C119.184 110.293 124.335 105.152 130.704 105.152C137.072 105.152 142.223 110.293 142.223 116.648V119.588Z" fill="#FF7F41"/>
<path d="M140.3 119.588H121.107V117.141C121.107 111.842 125.411 107.564 130.704 107.564C136.014 107.564 140.3 111.859 140.3 117.141V119.588Z" fill="#59CBE8"/>
<path d="M131.427 103.867H129.963V105.17H131.427V103.867Z" fill="#F5B6CD"/>
<path d="M137.513 128.478L134.267 127.915C131.903 127.51 129.504 127.51 127.14 127.915L123.894 128.478C121.442 128.901 119.184 127.017 119.184 124.535V119.605C119.184 119.605 123.488 118.197 130.704 118.197C138.677 118.197 142.223 119.605 142.223 119.605V124.535C142.223 127.017 139.983 128.901 137.513 128.478Z" fill="#FDDA24"/>
<path d="M34.3474 63.7812C26.109 63.7812 19.4406 70.4358 19.4406 78.6571V80.488H49.2718V78.6571C49.2542 70.4358 42.5858 63.7812 34.3474 63.7812Z" fill="#9063CD"/>
<path d="M45.5143 91.2444H23.1805C21.1165 91.2444 19.4406 89.572 19.4406 87.5123V85.118H49.2718V87.5123C49.2542 89.572 47.5783 91.2444 45.5143 91.2444Z" fill="#9063CD"/>
<path d="M48.5485 86.5791H20.058C18.7173 86.5791 17.6412 85.5053 17.6412 84.1673C17.6412 82.8294 18.7173 81.7555 20.058 81.7555H48.5485C49.8893 81.7555 50.9654 82.8294 50.9654 84.1673C50.983 85.4877 49.8893 86.5791 48.5485 86.5791Z" fill="#FF7F41"/>
<path d="M49.2366 79.1499C46.2728 78.8507 46.3081 78.7626 43.3268 78.7626C40.3454 78.7626 40.3454 79.9069 37.364 79.9069C34.3827 79.9069 34.3827 78.7626 31.4013 78.7626C28.42 78.7626 28.42 79.9069 25.4386 79.9069C22.4572 79.9069 22.3867 78.4634 19.4229 78.7626C18.9643 78.8155 15.8594 82.0547 16.3181 82.0899C19.8816 82.4596 19.8463 83.2342 23.4451 83.2342C27.0439 83.2342 27.0439 82.0899 30.6251 82.0899C34.2239 82.0899 34.2239 83.2342 37.8051 83.2342C41.4039 83.2342 41.4039 82.0899 44.985 82.0899C48.5662 82.0899 48.8132 83.5863 52.2179 82.4772C52.9941 82.2307 49.6776 79.1852 49.2366 79.1499Z" fill="#00C389"/>
<path d="M35.1589 68.024C35.4999 68.024 35.7763 67.7481 35.7763 67.4078C35.7763 67.0675 35.4999 66.7916 35.1589 66.7916C34.8179 66.7916 34.5414 67.0675 34.5414 67.4078C34.5414 67.7481 34.8179 68.024 35.1589 68.024Z" fill="#FDDA24"/>
<path d="M24.0626 76.3158C24.4036 76.3158 24.68 76.0399 24.68 75.6997C24.68 75.3594 24.4036 75.0835 24.0626 75.0835C23.7216 75.0835 23.4451 75.3594 23.4451 75.6997C23.4451 76.0399 23.7216 76.3158 24.0626 76.3158Z" fill="#FDDA24"/>
<path d="M26.7617 70.7703C27.1027 70.7703 27.3791 70.4944 27.3791 70.1541C27.3791 69.8138 27.1027 69.538 26.7617 69.538C26.4207 69.538 26.1442 69.8138 26.1442 70.1541C26.1442 70.4944 26.4207 70.7703 26.7617 70.7703Z" fill="#FDDA24"/>
<path d="M32.5833 75.0305C32.9243 75.0305 33.2007 74.7547 33.2007 74.4144C33.2007 74.0741 32.9243 73.7982 32.5833 73.7982C32.2423 73.7982 31.9658 74.0741 31.9658 74.4144C31.9658 74.7547 32.2423 75.0305 32.5833 75.0305Z" fill="#FDDA24"/>
<path d="M42.2506 71.3865C42.5916 71.3865 42.8681 71.1106 42.8681 70.7703C42.8681 70.43 42.5916 70.1542 42.2506 70.1542C41.9096 70.1542 41.6332 70.43 41.6332 70.7703C41.6332 71.1106 41.9096 71.3865 42.2506 71.3865Z" fill="#FDDA24"/>
<path d="M46.3434 76.9143C46.6844 76.9143 46.9608 76.6385 46.9608 76.2982C46.9608 75.9579 46.6844 75.682 46.3434 75.682C46.0024 75.682 45.726 75.9579 45.726 76.2982C45.726 76.6385 46.0024 76.9143 46.3434 76.9143Z" fill="#FDDA24"/>
<path d="M38.6166 76.9143C38.9576 76.9143 39.234 76.6385 39.234 76.2982C39.234 75.9579 38.9576 75.682 38.6166 75.682C38.2756 75.682 37.9991 75.9579 37.9991 76.2982C37.9991 76.6385 38.2756 76.9143 38.6166 76.9143Z" fill="#FDDA24"/>
<path d="M128.393 26.8645H110.61V21.5127C110.61 16.6186 114.597 12.64 119.501 12.64C124.406 12.64 128.393 16.6186 128.393 21.5127V26.8645ZM112.727 24.7519H126.276V21.5127C126.276 17.7805 123.241 14.7526 119.501 14.7526C115.761 14.7526 112.727 17.7981 112.727 21.5303V24.7519Z" fill="#FDDA24"/>
<path d="M134.285 51.2468H104.7L105.53 23.6781H133.473L134.285 51.2468Z" fill="#FF7F41"/>
<path d="M34.5414 114.729C15.489 114.729 0 99.2722 0 80.2768C0 76.2982 0.670365 72.39 2.0111 68.6578C2.57561 67.1086 4.28681 66.2988 5.83923 66.8446C7.39166 67.4079 8.20315 69.1155 7.65627 70.6647C6.56252 73.7455 5.998 76.9672 5.998 80.2768C5.998 95.9801 18.8055 108.761 34.5414 108.761C50.2774 108.761 63.0849 95.9801 63.0849 80.2768C63.0849 74.837 61.5501 69.5557 58.6217 64.9961C55.7814 60.5421 51.7769 56.986 47.0314 54.6798C45.5495 53.958 44.9321 52.1623 45.6554 50.6836C46.3787 49.2048 48.1781 48.5886 49.6599 49.3104C55.3933 52.1095 60.2446 56.4227 63.667 61.792C67.1953 67.3199 69.0652 73.7103 69.0652 80.2944C69.0652 99.2722 53.5763 114.729 34.5414 114.729Z" fill="#FF7F41"/>
<path d="M9.01464 64.7672C8.3972 64.7672 7.77976 64.5736 7.25052 64.1863C5.90979 63.218 5.60989 61.3343 6.5978 60.014C9.73793 55.7185 13.8836 52.1448 18.6114 49.6801C23.4981 47.1451 29.0021 45.8071 34.5414 45.8071C36.1997 45.8071 37.5404 47.1451 37.5404 48.7999C37.5404 50.4547 36.1997 51.7927 34.5414 51.7927C29.9018 51.7927 25.4739 52.8666 21.3811 54.9967C17.4824 57.0212 14.0424 59.9788 11.4491 63.5349C10.867 64.3447 9.94963 64.7672 9.01464 64.7672Z" fill="#FF7F41"/>
<path d="M145.063 97.6524C144.64 97.6524 144.199 97.5292 143.811 97.2651C142.982 96.7018 142.1 96.1736 141.2 95.7159C140.124 95.1526 139.701 93.8322 140.247 92.7583C140.812 91.6844 142.135 91.2619 143.211 91.8077C144.27 92.3534 145.293 92.9696 146.281 93.6386C147.286 94.3251 147.533 95.6983 146.845 96.7018C146.457 97.3179 145.769 97.6524 145.063 97.6524Z" fill="#F5B6CD"/>
<path d="M155.666 112.159C154.713 112.159 153.831 111.542 153.549 110.592C152.543 107.212 150.85 104.149 148.521 101.473C147.727 100.557 147.815 99.1665 148.733 98.3742C149.65 97.582 151.044 97.6701 151.838 98.5855C154.59 101.737 156.583 105.363 157.765 109.342C158.118 110.504 157.448 111.736 156.283 112.088C156.089 112.123 155.877 112.159 155.666 112.159Z" fill="#F5B6CD"/>
<path d="M129.857 146.716C113.786 146.716 100.714 133.671 100.714 117.634C100.714 101.596 113.786 88.551 129.857 88.551C131.074 88.551 132.062 89.5369 132.062 90.7516C132.062 91.9663 131.074 92.9522 129.857 92.9522C116.22 92.9698 105.141 104.043 105.141 117.651C105.141 131.26 116.238 142.333 129.874 142.333C143.511 142.333 154.607 131.26 154.607 117.651C154.607 117.299 154.607 116.93 154.59 116.577C154.537 115.363 155.489 114.342 156.707 114.289C157.924 114.236 158.947 115.187 159 116.401C159.018 116.824 159.035 117.246 159.035 117.669C159 133.671 145.928 146.716 129.857 146.716Z" fill="#F5B6CD"/>
<path d="M119.431 69.3796C100.255 69.3796 84.66 53.8171 84.66 34.681C84.66 15.5624 100.255 0 119.431 0C126.575 0 133.438 2.14776 139.295 6.21441C145.011 10.193 149.35 15.6857 151.855 22.1465C152.437 23.6429 151.697 25.333 150.197 25.9139C148.698 26.4949 147.004 25.7555 146.422 24.2591C144.34 18.8897 140.724 14.3125 135.961 11.0028C131.092 7.60517 125.376 5.8095 119.431 5.8095C103.466 5.8095 90.4816 18.7665 90.4816 34.6986C90.4816 50.6307 103.466 63.5877 119.431 63.5877C124.37 63.5877 129.239 62.3201 133.526 59.9435C134.937 59.1689 136.702 59.6618 137.495 61.0702C138.272 62.4786 137.778 64.239 136.366 65.0312C131.197 67.8656 125.358 69.3796 119.431 69.3796Z" fill="#00C389"/>
<path d="M146.722 53.9756C146.21 53.9756 145.699 53.8347 145.222 53.5531C143.846 52.7256 143.405 50.9476 144.234 49.5744C146.933 45.1029 148.362 39.9623 148.362 34.6986C148.362 33.0966 149.668 31.7938 151.273 31.7938C152.878 31.7938 154.184 33.0966 154.184 34.6986C154.184 41.0186 152.473 47.1978 149.227 52.5672C148.68 53.465 147.71 53.9756 146.722 53.9756Z" fill="#00C389"/>
<path d="M86.0008 173C105.623 173 121.53 157.126 121.53 137.544C121.53 117.963 105.623 102.089 86.0008 102.089C66.3785 102.089 50.4714 117.963 50.4714 137.544C50.4714 157.126 66.3785 173 86.0008 173Z" fill="#E4AC7B"/>
<path d="M102.478 150.73L61.4442 150.748C57.0516 150.748 53.4881 147.192 53.4881 142.808L53.4528 50.1905C53.4528 45.807 57.0163 42.2509 61.409 42.2509L102.442 42.2333C106.835 42.2333 110.399 45.7894 110.399 50.1729L110.434 142.791C110.451 147.174 106.888 150.73 102.478 150.73Z" fill="#59CBE8"/>
<path d="M81.9609 148.019C83.9582 148.019 85.5774 146.403 85.5774 144.41C85.5774 142.417 83.9582 140.801 81.9609 140.801C79.9636 140.801 78.3445 142.417 78.3445 144.41C78.3445 146.403 79.9636 148.019 81.9609 148.019Z" fill="white"/>
<path d="M106.147 54.2924L106.165 137.404H106.147L57.7572 137.421V127.844L57.722 54.31L106.147 54.2924Z" fill="white"/>
<path d="M93.6747 76.8262L68.5889 79.6429C67.1071 79.8013 65.9075 81.2625 65.9075 82.8997V98.6382C65.9075 100.275 67.1071 101.455 68.5889 101.279L93.6747 98.4621C95.1565 98.3037 96.3561 96.8425 96.3561 95.2053V82.4244V79.4668C96.3561 77.8472 95.1565 76.6677 93.6747 76.8262Z" fill="#FF7F41"/>
<path d="M68.8359 80.7697L92.1576 74.7489L92.281 82.8118L68.8359 80.7697Z" fill="#59CBE8"/>
<path d="M68.8359 80.7697L95.4388 75.9109V84.1674L68.8359 80.7697Z" fill="#00C389"/>
<path d="M94.9272 81.4562L68.6948 80.1006C67.1424 80.0126 65.8898 81.2801 65.8898 82.8998V98.6382C65.8898 100.275 67.1424 101.649 68.6948 101.737L94.9096 103.092C96.462 103.18 97.7145 101.913 97.7145 100.293V87.5121V84.5546C97.7322 82.9174 96.4796 81.5442 94.9272 81.4562Z" fill="#9063CD"/>
<path d="M94.0275 94.0788C94.8167 94.0788 95.4565 93.4403 95.4565 92.6528C95.4565 91.8652 94.8167 91.2268 94.0275 91.2268C93.2384 91.2268 92.5986 91.8652 92.5986 92.6528C92.5986 93.4403 93.2384 94.0788 94.0275 94.0788Z" fill="#FDDA24"/>
<path d="M106.147 127.827H57.7572V137.421H106.147V127.827Z" fill="#FDDA24"/>
<path d="M57.669 137.509V127.739H57.7572L106.235 127.721V137.492H106.147L57.669 137.509ZM57.8454 127.932V137.351L106.059 137.333V127.915L57.8454 127.932Z" fill="#FDDA24"/>
<path d="M120.507 141.259C119.307 146.84 116.908 152.156 113.45 156.804C112.674 157.842 112.039 159.075 111.51 160.413C110.892 161.962 106.27 164.268 104.577 163.37L94.6273 150.783C94.2392 149.234 94.0275 147.614 94.0275 145.942C94.0275 139.305 97.3088 133.443 102.336 129.869C103.942 128.725 104.259 128.372 106.165 127.756V119.341L98.6671 103.955C95.721 99.3777 97.0618 93.3041 101.631 90.3642C101.825 90.2409 102.037 90.1881 102.248 90.1881C102.619 90.1881 102.989 90.3642 103.201 90.7162L111.298 103.304L118.302 114.095C119.96 116.648 120.895 119.588 121.036 122.633L121.213 126.524L121.265 127.668V127.703L121.407 130.855C121.548 134.376 121.248 137.861 120.507 141.259Z" fill="#E4AC7B"/>
<path d="M94.6449 150.783L104.595 163.37C99.6903 160.8 96.0209 156.258 94.6449 150.783Z" fill="#E4AC7B"/>
<path d="M51.0006 136.435L45.2143 129.182C42.9033 126.295 43.3797 122.087 46.2905 119.781L51.5299 115.609L61.4971 128.091C63.8081 130.978 63.3318 135.185 60.4387 137.492C57.5279 139.798 53.3116 139.322 51.0006 136.435Z" fill="#E4AC7B"/>
<path d="M51.0006 122.915L45.2143 115.662C42.9033 112.775 43.3797 108.567 46.2905 106.261L51.5299 102.089L61.4972 114.571C63.8081 117.458 63.3318 121.665 60.421 123.971C57.5102 126.278 53.294 125.802 51.0006 122.915Z" fill="#E4AC7B"/>
<path d="M51.0006 109.377L45.2143 102.124C42.9033 99.2368 43.3796 95.0294 46.2728 92.7232L51.5122 88.5509L61.4795 101.033C63.7905 103.92 63.3142 108.127 60.4034 110.433C57.5102 112.757 53.294 112.282 51.0006 109.377Z" fill="#E4AC7B"/>
<path d="M51.5123 75.0481L53.4704 73.5693V80.7696L51.5123 75.0481Z" fill="#E4AC7B"/>
<path d="M50.983 95.8567L45.1967 88.6036C42.8857 85.7165 43.362 81.509 46.2728 79.2028L51.5122 75.0305L61.4795 87.5122C63.7905 90.3993 63.3142 94.6068 60.4211 96.913C57.5103 99.2192 53.294 98.7439 50.983 95.8567Z" fill="#E4AC7B"/>
<path d="M119.501 43.6065C123.827 43.6065 127.334 40.8557 127.334 37.4625C127.334 34.0692 123.827 31.3185 119.501 31.3185C115.176 31.3185 111.669 34.0692 111.669 37.4625C111.669 40.8557 115.176 43.6065 119.501 43.6065Z" fill="#00C389"/>
</g>
<defs>
<clipPath id="clip0">
<rect width="159" height="173" fill="white"/>
</clipPath>
</defs>
</svg>
