<svg width="151" height="149" viewBox="0 0 151 149" fill="none" xmlns="http://www.w3.org/2000/svg">
<g clip-path="url(#clip0)">
<path d="M33.4046 47.3484H9.92196C4.45225 47.3484 -0.00012207 42.8961 -0.00012207 37.4264V13.9437C-0.00012207 8.47398 4.45225 4.02161 9.92196 4.02161H33.4046C35.2359 4.02161 36.708 5.50573 36.708 7.32498C36.708 9.14423 35.2239 10.6284 33.4046 10.6284H9.92196C8.10272 10.6284 6.61859 12.1125 6.61859 13.9317V37.4144C6.61859 39.2336 8.10272 40.7178 9.92196 40.7178H33.4046C35.2239 40.7178 36.708 39.2336 36.708 37.4144V13.9437C36.708 12.1125 38.1921 10.6403 40.0114 10.6403C41.8306 10.6403 43.3147 12.1244 43.3147 13.9437V37.4264C43.3267 42.8961 38.8743 47.3484 33.4046 47.3484Z" fill="#9063CD"/>
<path d="M96.8031 11.7653V39.6046C96.8031 43.9373 93.2963 47.4441 88.9636 47.4441H61.1243C56.7916 47.4441 53.2848 43.9373 53.2848 39.6046V11.7653C53.2848 7.43262 56.7916 3.92578 61.1243 3.92578H88.9636C93.2963 3.92578 96.8031 7.43262 96.8031 11.7653Z" fill="#FDDA24"/>
<path d="M88.9636 51.3579H61.1243C54.6372 51.3579 49.359 46.0797 49.359 39.5926V11.7653C49.359 5.27821 54.6372 0 61.1243 0H88.9636C95.4506 0 100.729 5.27821 100.729 11.7653V39.6046C100.729 46.0916 95.4506 51.3579 88.9636 51.3579ZM61.1243 7.83953C58.9579 7.83953 57.2105 9.59893 57.2105 11.7533V39.5926C57.2105 41.7589 58.9699 43.5064 61.1243 43.5064H88.9636C91.1299 43.5064 92.8773 41.747 92.8773 39.5926V11.7653C92.8773 9.59893 91.1179 7.85149 88.9636 7.85149H61.1243V7.83953Z" fill="#00C389"/>
<path d="M140.178 46.5225H116.695C114.864 46.5225 113.392 45.0384 113.392 43.2191C113.392 41.3999 114.876 39.9158 116.695 39.9158H140.178C141.997 39.9158 143.481 38.4316 143.481 36.6124V13.1178C143.481 11.2985 141.997 9.81439 140.178 9.81439H116.695C114.876 9.81439 113.392 11.2985 113.392 13.1178V36.6004C113.392 38.4316 111.908 39.9038 110.088 39.9038C108.269 39.9038 106.785 38.4197 106.785 36.6004V13.1178C106.785 7.64805 111.237 3.19568 116.707 3.19568H140.19C145.66 3.19568 150.112 7.64805 150.112 13.1178V36.6004C150.1 42.0701 145.648 46.5225 140.178 46.5225Z" fill="#F5B6CD"/>
<path d="M14.0989 18.8201V32.5482H27.827V18.8201H14.0989Z" fill="#00C389"/>
<path d="M75.044 36.0619C80.775 36.0619 85.4209 31.416 85.4209 25.685C85.4209 19.954 80.775 15.3081 75.044 15.3081C69.313 15.3081 64.6671 19.954 64.6671 25.685C64.6671 31.416 69.313 36.0619 75.044 36.0619Z" fill="white"/>
<path d="M127.742 16.8999L119.484 31.2025H135.989L127.742 16.8999Z" fill="#00C389"/>
<path d="M75.6185 97.3298C71.5491 97.3298 68.2457 94.0265 68.2457 89.9571V33.0457C68.2457 28.9763 71.5491 25.673 75.6185 25.673C79.6878 25.673 82.9912 28.9763 82.9912 33.0457V89.9571C82.9792 94.0265 79.6878 97.3298 75.6185 97.3298Z" fill="#8F6121"/>
<path d="M76.6957 58.1681L105.397 60.885C112.015 61.5074 116.982 67.013 116.695 73.4282L115.654 97.0904C115.498 100.49 114.625 103.817 113.081 106.845L111.884 109.191H68.2457V58.1681H76.6957Z" fill="#8F6121"/>
<path d="M57.821 71.8843C53.5003 74.5175 50.8672 79.2092 50.8672 84.272C50.8672 87.8506 52.1837 91.2976 54.5775 93.9547L68.2458 109.203V65.5289L57.821 71.8843Z" fill="#8F6121"/>
<path d="M64.7988 67.6354L68.2458 97.3299V65.5289L64.7988 67.6354Z" fill="#6A4E32"/>
<path d="M105.971 148.053H72.375C66.3068 148.053 61.3997 143.134 61.3997 137.078V110.591H89.1791H116.959V137.078C116.959 143.146 112.039 148.053 105.971 148.053Z" fill="#59CBE8"/>
<path d="M118.467 104.894H59.8677V117.509H118.467V104.894Z" fill="#FF7F41"/>
<path d="M105.552 136.683C108.765 136.683 111.369 134.079 111.369 130.866C111.369 127.654 108.765 125.049 105.552 125.049C102.34 125.049 99.7354 127.654 99.7354 130.866C99.7354 134.079 102.34 136.683 105.552 136.683Z" fill="#2C2A29"/>
</g>
<defs>
<clipPath id="clip0">
<rect width="150.1" height="148.053" fill="white"/>
</clipPath>
</defs>
</svg>
