<svg width="180" height="147" viewBox="0 0 180 147" fill="none" xmlns="http://www.w3.org/2000/svg">
<g clip-path="url(#clip0)">
<path d="M38.5318 40.2981C41.3927 37.3093 41.066 32.3537 37.8021 29.2293C34.5381 26.105 29.5729 25.9951 26.712 28.9839C23.8511 31.9726 24.1778 36.9283 27.4418 40.0526C30.7057 43.1769 35.6709 43.2868 38.5318 40.2981Z" fill="#E4AC7B"/>
<path d="M56.5675 80.2764C56.2802 80.2764 55.9928 80.1998 55.7246 80.0465C47.831 75.2759 41.0487 66.0029 40.7613 65.6197C40.2249 64.8917 40.3973 63.8763 41.1254 63.3398C41.8534 62.8034 42.8688 62.9758 43.4053 63.7038C43.4819 63.8188 50.1109 72.8427 57.4105 77.2684C58.1769 77.7283 58.426 78.7245 57.9662 79.5101C57.6596 79.989 57.1232 80.2764 56.5675 80.2764Z" fill="#F5B6CD"/>
<path d="M66.2427 81.9242C65.9745 81.9242 65.7063 81.8667 65.4381 81.7709C52.2566 76.5213 41.5084 65.4474 36.6803 52.1127C36.278 50.9823 36.8528 49.737 37.9831 49.3346C39.1135 48.9323 40.3589 49.5071 40.7612 50.6374C45.1869 62.8226 55.0155 72.9577 67.0474 77.7475C68.1586 78.1881 68.6951 79.4526 68.2544 80.5639C67.9096 81.4069 67.1049 81.9242 66.2427 81.9242Z" fill="#FDDA24"/>
<path d="M20.4335 48.5107L34.8219 80.8129L47.4094 82.2498C47.4286 82.2498 64.1927 34.5437 20.4335 48.5107Z" fill="#59CBE8"/>
<path d="M31.3924 145.992C31.1625 145.992 30.9326 145.973 30.7027 145.934C28.7676 145.551 27.484 143.693 27.8671 141.739C27.9246 141.394 34.4195 107.693 36.9485 89.3003C37.2168 87.3461 39.0177 85.9667 40.9719 86.2349C42.9261 86.5031 44.3056 88.3041 44.0374 90.2583C41.4892 108.843 34.9751 142.735 34.8985 143.061C34.5728 144.804 33.0592 145.992 31.3924 145.992Z" fill="#9063CD"/>
<path d="M28.7677 98.9756C28.7677 98.9756 26.6602 116.717 18.9008 127.733L28.7677 98.9756Z" fill="white"/>
<path d="M18.9008 130.377C18.3644 130.377 17.8279 130.224 17.3681 129.898C16.1611 129.055 15.8737 127.389 16.7167 126.182C23.978 115.855 26.1046 98.8224 26.1238 98.65C26.2962 97.1939 27.6182 96.1401 29.0743 96.3126C30.5304 96.485 31.5841 97.8069 31.4117 99.263C31.3159 100.01 29.1318 117.809 21.085 129.228C20.5485 129.994 19.7247 130.377 18.9008 130.377Z" fill="#00C389"/>
<path d="M12.3293 146.816C11.3905 146.816 10.4709 146.452 9.76199 145.743C8.38254 144.325 8.4017 142.064 9.81947 140.685C23.4416 127.389 28.8253 97.9028 28.8827 97.6154C29.2276 95.6611 31.086 94.3775 33.0402 94.7223C34.9945 95.0672 36.2781 96.9256 35.9333 98.8799C35.7034 100.183 30.1089 130.895 14.82 145.82C14.1303 146.49 13.2298 146.816 12.3293 146.816Z" fill="#FDDA24"/>
<path d="M25.6257 53.3389C25.4341 53.3389 25.2233 53.3197 25.0317 53.2622C19.0733 51.5762 13.8428 47.8785 10.2601 42.8397C6.67735 37.8009 4.91472 31.6317 5.27874 25.4624C5.35537 24.2937 5.50865 23.1634 5.73856 22.0713C5.98762 20.9026 7.13717 20.1554 8.32503 20.4045C9.51289 20.6535 10.2409 21.8031 9.99187 22.9909C9.80027 23.8722 9.68532 24.7919 9.62784 25.7307C9.3213 30.9228 10.8157 36.1149 13.8237 40.349C16.8316 44.5832 21.2382 47.6869 26.2387 49.1047C27.3883 49.4304 28.0589 50.6374 27.7331 51.787C27.4458 52.7258 26.5644 53.3389 25.6257 53.3389Z" fill="#9063CD"/>
<path d="M22.8092 55.1398C22.6559 55.1398 22.5218 55.1206 22.3686 55.0823C16.276 53.358 11.1988 49.5837 7.73104 44.1808C5.10625 40.1191 4.30157 36.5747 4.28241 36.4214C4.09082 35.5401 4.64644 34.6779 5.52775 34.4863C6.40907 34.2947 7.27123 34.8503 7.46282 35.7125C7.48198 35.77 8.21002 38.9504 10.5474 42.514C13.632 47.2462 17.9045 50.4075 23.269 51.9402C24.1312 52.1893 24.6293 53.0898 24.3803 53.9519C24.1695 54.68 23.5181 55.1398 22.8092 55.1398Z" fill="#FDDA24"/>
<path d="M1.98332 29.3517C1.12116 29.3517 0.412275 28.6811 0.354798 27.819C0.335639 27.3017 0.124889 22.7801 1.4277 20.3661C1.8492 19.5806 2.84547 19.274 3.631 19.6955C4.41652 20.117 4.72306 21.1133 4.30156 21.8988C3.65015 23.125 3.5352 26.0755 3.61184 27.6274C3.66931 28.5279 2.97959 29.2942 2.07911 29.3325C2.04079 29.3517 2.02164 29.3517 1.98332 29.3517Z" fill="#FDDA24"/>
<path d="M40.1289 75.4675H49.0953L42.9453 104.129H8.84216L9.72348 100.029C12.8081 85.6985 25.4722 75.4675 40.1289 75.4675Z" fill="#2C2A29"/>
<path d="M137.534 67.4782C136.729 67.4782 135.963 67.4399 135.254 67.3633C129.678 66.8077 126.076 64.3745 125.923 64.2787C124.908 63.589 124.659 62.1903 125.348 61.1749C126.038 60.1595 127.418 59.9104 128.433 60.6001C128.51 60.6385 131.422 62.5544 135.905 62.9567C141.921 63.4932 147.86 61.1749 153.512 56.0786C154.432 55.2548 155.83 55.3314 156.654 56.251C157.478 57.1707 157.402 58.5693 156.482 59.3931C149.316 65.8689 142.515 67.4782 137.534 67.4782Z" fill="#00C389"/>
<path d="M149.316 66.9992C148.78 66.9992 148.263 66.6927 148.014 66.1946C147.669 65.4857 147.956 64.6235 148.684 64.2595C152.688 62.3053 156.444 59.2398 159.854 55.1589C160.371 54.5459 161.272 54.4692 161.885 54.9674C162.498 55.4847 162.575 56.3851 162.076 56.9982C158.417 61.4048 154.336 64.7193 149.968 66.846C149.757 66.9609 149.527 66.9992 149.316 66.9992Z" fill="#59CBE8"/>
<path d="M137.074 69.7581H137.055C130.291 69.6432 125.617 67.1908 125.425 67.0758C124.716 66.6927 124.467 65.8305 124.831 65.1216C125.214 64.4127 126.076 64.1637 126.785 64.5277C126.862 64.566 131.096 66.7693 137.112 66.8651C137.917 66.8842 138.549 67.5357 138.53 68.3212C138.492 69.1259 137.859 69.7581 137.074 69.7581Z" fill="#59CBE8"/>
<path d="M120.789 146.299H66.6643C61.2998 146.299 56.9507 141.949 56.9507 136.585V9.71364C56.9507 4.34911 61.2998 0 66.6643 0H120.789C126.153 0 130.502 4.34911 130.502 9.71364V136.566C130.521 141.949 126.172 146.299 120.789 146.299Z" fill="#FF7F41"/>
<path d="M93.736 141.413C96.2649 141.413 98.315 139.363 98.315 136.834C98.315 134.305 96.2649 132.255 93.736 132.255C91.2071 132.255 89.157 134.305 89.157 136.834C89.157 139.363 91.2071 141.413 93.736 141.413Z" fill="white"/>
<path d="M125.406 14.6375H62.047V127.542H125.406V14.6375Z" fill="white"/>
<path d="M81.2444 59.1632C81.436 59.9296 82.2215 60.3127 83.007 60.0637C89.4636 58.0903 95.9202 56.7492 102.588 55.772C103.354 55.6763 103.775 54.8907 103.488 54.1052C102.894 52.4575 102.588 51.6145 101.994 49.9669C101.745 49.2771 101.036 48.8173 100.327 48.8939C93.8127 49.6986 87.5094 50.8673 81.2061 52.6874C80.3822 52.9365 79.8841 53.8561 80.0948 54.6608C80.5355 56.4618 80.7654 57.3622 81.2444 59.1632Z" fill="#2C2A29"/>
<path d="M107.377 60.0637C107.128 59.3165 106.438 58.8375 105.768 58.9142C95.5561 60.1978 85.6317 62.7076 76.2054 66.846C75.5157 67.1717 75.1133 68.0339 75.2475 68.7811C75.6115 70.7161 75.8031 71.6741 76.1862 73.6091C76.3395 74.433 77.125 74.8162 77.8914 74.4521C87.4518 70.103 97.5678 67.3441 107.952 65.6965C108.603 65.5815 108.948 64.8343 108.699 64.0679C108.182 62.4586 107.914 61.6539 107.377 60.0637Z" fill="#2C2A29"/>
<path d="M107.339 70.8501C107.09 70.0646 106.343 69.5473 105.653 69.6814C99.2729 71.0609 93.0462 72.7086 86.8962 74.7969C86.1107 75.0843 85.67 75.9081 85.8808 76.6553C86.3789 78.4563 86.6088 79.3376 87.1069 81.1385C87.3368 81.9815 88.2948 82.4222 89.1761 82.0773C95.3453 79.8932 101.572 77.9773 107.933 76.4446C108.546 76.2913 108.852 75.5824 108.623 74.8544C108.105 73.2642 107.856 72.4595 107.339 70.8501Z" fill="#2C2A29"/>
<path d="M171.618 79.261L171.656 140.091C171.656 143.061 169.242 145.475 166.272 145.475C163.494 145.475 161.195 143.329 160.908 140.627L154.892 80.104C154.432 75.5059 157.804 71.3867 162.402 70.946C167 70.4862 171.119 73.8582 171.56 78.4564C171.618 78.7054 171.618 78.9928 171.618 79.261Z" fill="#2C2A29"/>
<path d="M161.099 81.2727L147.611 141.279C146.96 144.21 144.028 146.069 141.097 145.398C138.338 144.785 136.537 142.141 136.882 139.401L144.603 78.3797C145.178 73.7816 149.374 70.5437 153.972 71.1184C158.57 71.6932 161.808 75.889 161.233 80.4872C161.214 80.7554 161.157 81.0237 161.099 81.2727Z" fill="#2C2A29"/>
<path d="M160.279 39.8466C161.969 35.6224 160.361 31.0062 156.687 29.5361C153.013 28.0659 148.664 30.2985 146.974 34.5226C145.284 38.7468 146.892 43.363 150.566 44.8331C154.24 46.3033 158.588 44.0707 160.279 39.8466Z" fill="#B28038"/>
<path d="M158.551 86.6948H156.942C150.504 86.6948 145.293 81.4835 145.293 75.0461V74.0115H170.181V75.0461C170.2 81.4835 164.969 86.6948 158.551 86.6948Z" fill="#2C2A29"/>
<path d="M167.517 46.8823L173.687 82.2308L142.093 83.7443C142.074 83.7443 138.971 47.2847 167.517 46.8823Z" fill="#E6DCCB"/>
<path d="M164.203 52.5917C163.36 52.5917 162.555 52.1127 162.191 51.308C161.674 50.1968 162.153 48.8748 163.264 48.3575C163.341 48.3192 166.464 46.7673 169.089 43.1271C172.614 38.2224 173.629 31.9382 172.116 24.4662C171.867 23.2592 172.652 22.0905 173.859 21.8414C175.066 21.5923 176.235 22.3778 176.484 23.5849C178.726 34.6013 175.584 41.8243 172.556 45.9435C169.242 50.465 165.333 52.3234 165.161 52.4001C164.835 52.515 164.51 52.5917 164.203 52.5917Z" fill="#9063CD"/>
<path d="M178.132 34.3139C178.093 34.3139 178.055 34.3139 178.017 34.3139C177.231 34.2564 176.637 33.5475 176.695 32.762C177.04 28.3171 176.312 23.5274 174.53 18.5269C174.262 17.7796 174.645 16.9558 175.392 16.6876C176.139 16.4194 176.963 16.8025 177.231 17.5497C179.166 22.9334 179.952 28.1255 179.569 32.9919C179.511 33.7391 178.879 34.3139 178.132 34.3139Z" fill="#59CBE8"/>
<path d="M166.54 54.4501C166.061 54.4501 165.582 54.2011 165.314 53.7604C164.893 53.0898 165.123 52.1894 165.793 51.787C165.851 51.7487 169.893 49.2197 173.035 44.0851C173.457 43.4145 174.338 43.1846 175.009 43.6061C175.679 44.0276 175.909 44.9089 175.488 45.5795C171.962 51.3464 167.46 54.1244 167.268 54.2394C167.058 54.3927 166.789 54.4501 166.54 54.4501Z" fill="#59CBE8"/>
<path d="M140.139 70.8885C137.457 70.8885 135.177 68.8384 134.928 66.1179C134.717 63.7804 134.334 61.4622 133.759 59.2206C133.204 57.0556 132.418 54.8523 131.422 52.6682C130.464 50.5607 129.314 48.5107 128.031 46.5756C126.747 44.6789 125.272 42.8588 123.643 41.1728C122.034 39.4868 120.271 37.9349 118.413 36.5554C116.612 35.2143 114.619 33.9881 112.493 32.8961C110.423 31.8423 108.239 30.961 106.017 30.2713C103.89 29.6199 101.591 29.1217 99.2154 28.8152C96.3607 28.4512 94.3299 25.8264 94.7131 22.9525C95.0771 20.0978 97.7019 18.067 100.576 18.4501C103.526 18.8333 106.419 19.4464 109.121 20.2894C111.918 21.1516 114.638 22.2628 117.225 23.5656C119.888 24.9259 122.398 26.4586 124.678 28.1638C126.996 29.9072 129.199 31.8423 131.211 33.9306C133.242 36.0573 135.081 38.3372 136.71 40.7129L136.729 40.7321C138.357 43.1461 139.775 45.7135 140.982 48.3574C142.208 51.078 143.205 53.8561 143.914 56.5958C144.642 59.4122 145.121 62.3052 145.389 65.1982C145.638 68.0721 143.511 70.6202 140.637 70.8693C140.427 70.8885 140.273 70.8885 140.139 70.8885Z" fill="#F5B6CD"/>
<path d="M128.95 51.2889C127.705 51.2889 126.498 50.6758 125.789 49.5454C123.069 45.2538 119.409 41.4411 115.213 38.5673C113.087 37.1112 110.826 35.8659 108.508 34.8887C106.151 33.8925 103.699 33.1453 101.189 32.6663C96.1692 31.6892 90.9005 31.7275 85.9383 32.8004C80.9761 33.8542 76.1672 35.9808 72.0096 38.9505C70.3236 40.1575 68.0054 39.7551 66.7984 38.0691C65.5914 36.3831 65.9937 34.0649 67.6797 32.8579C72.6611 29.3135 78.4279 26.7653 84.3864 25.5008C90.3257 24.2363 96.629 24.1788 102.626 25.3475C105.634 25.9415 108.584 26.8419 111.401 28.0106C114.198 29.1793 116.899 30.6737 119.447 32.4172C124.467 35.8659 128.835 40.4257 132.092 45.5603C133.204 47.3038 132.667 49.6029 130.924 50.7141C130.33 51.0973 129.64 51.2889 128.95 51.2889Z" fill="#FDDA24"/>
<path d="M93.9659 116.353C92.1075 116.353 90.249 116.238 88.4098 116.027C85.6509 115.702 82.9303 115.146 80.363 114.36C75.1325 112.77 70.247 110.299 65.8596 107.023C57.0847 100.432 50.7048 90.6032 48.3673 80.104C47.7351 77.2877 49.5169 74.4904 52.3333 73.8582C55.1496 73.2259 57.9469 75.0077 58.5791 77.8241C60.3992 85.9476 65.3423 93.5345 72.1437 98.65C75.554 101.198 79.3475 103.114 83.4284 104.359C85.4018 104.972 87.471 105.394 89.6168 105.643C91.7243 105.892 93.8701 105.95 95.9967 105.835C98.8898 105.681 101.342 107.904 101.495 110.778C101.649 113.671 99.4262 116.123 96.5524 116.276C95.6902 116.334 94.828 116.353 93.9659 116.353Z" fill="#F5B6CD"/>
<path d="M51.9692 54.1435C51.3178 54.1435 50.6664 54.0094 50.0342 53.7029C47.7926 52.63 46.8538 49.9669 47.9267 47.7252C49.536 44.3724 51.5286 41.1537 53.9043 38.1649C56.3184 35.1186 58.9815 32.4172 61.8362 30.1181C67.7755 25.3283 74.7302 21.8797 81.934 20.1745C84.348 19.5998 86.7621 21.0942 87.3177 23.5082C87.8925 25.9222 86.3981 28.3363 83.984 28.8919C78.0639 30.2905 72.3353 33.126 67.4498 37.092C65.1124 38.9696 62.9282 41.192 60.9357 43.721C58.9815 46.1925 57.3338 48.8365 56.0118 51.5954C55.2454 53.2047 53.6552 54.1435 51.9692 54.1435Z" fill="#00C389"/>
<path d="M60.2077 106.869C58.8283 106.869 57.4488 106.333 56.4142 105.241C51.567 100.144 47.7352 93.9751 45.3403 87.4227C42.9454 80.8703 41.8917 73.7049 42.294 66.6735C42.4664 63.7996 44.938 61.5963 47.8118 61.7496C50.6857 61.922 52.889 64.3936 52.7357 67.2674C52.41 72.881 53.253 78.6096 55.1497 83.8208C57.0656 89.0513 60.1119 93.956 63.9821 98.0177C65.9746 100.106 65.8788 103.421 63.7905 105.413C62.8134 106.39 61.5105 106.869 60.2077 106.869Z" fill="#FF7F41"/>
<path d="M93.9276 119.84C87.6818 119.84 81.4359 118.69 75.6116 116.391C73.6956 115.644 72.7377 113.46 73.5041 111.544C74.2513 109.628 76.4354 108.67 78.3513 109.437C86.7621 112.732 96.1692 113.268 104.887 110.931C113.642 108.613 121.555 103.459 127.169 96.4276C128.452 94.8182 130.809 94.55 132.418 95.8336C134.028 97.1173 134.296 99.4739 133.012 101.083C126.402 109.341 117.11 115.414 106.822 118.135C102.607 119.284 98.2576 119.84 93.9276 119.84Z" fill="#59CBE8"/>
<path d="M117.647 108.881C115.999 108.881 114.37 108.115 113.355 106.658C111.688 104.302 112.263 101.026 114.639 99.378C116.804 97.8645 118.815 96.1018 120.597 94.1476C122.341 92.2509 123.912 90.1242 125.272 87.7677C126.594 85.4877 127.667 83.0545 128.452 80.5447C129.219 78.0923 129.736 75.4867 129.966 72.8044C130.215 69.9306 132.744 67.7848 135.618 68.0338C138.492 68.2829 140.637 70.8119 140.388 73.6857C140.101 77.1344 139.43 80.5064 138.415 83.6868C137.4 86.9247 136.001 90.0476 134.315 92.9981C132.571 96.006 130.541 98.7649 128.28 101.217C125.981 103.708 123.413 105.969 120.635 107.904C119.735 108.574 118.681 108.881 117.647 108.881Z" fill="#9063CD"/>
</g>
<defs>
<clipPath id="clip0">
<rect width="179.329" height="146.816" fill="white" transform="translate(0.335693)"/>
</clipPath>
</defs>
</svg>
