<svg width="161" height="175" viewBox="0 0 161 175" fill="none" xmlns="http://www.w3.org/2000/svg">
<g clip-path="url(#clip0)">
<path d="M72.0002 150.054C72.0002 136.89 82.657 126.233 95.8212 126.233C108.985 126.233 119.642 136.89 119.642 150.054" fill="#FF7F41"/>
<path d="M3.6897 150.054C3.6897 128.275 21.3495 110.597 43.1465 110.597C64.9436 110.597 82.6034 128.257 82.6034 150.054" fill="#FF7F41"/>
<path d="M38.9016 161.642C38.6329 161.642 38.3643 161.606 38.0777 161.553C36.0897 161.105 34.8538 159.135 35.3016 157.147L46.3524 108.591C46.8001 106.603 48.7703 105.368 50.7584 105.815C52.7464 106.263 53.9823 108.233 53.5345 110.221L42.4837 158.777C42.0897 160.478 40.5673 161.642 38.9016 161.642Z" fill="#F5B6CD"/>
<path d="M81.1166 101.087C70.4419 101.087 59.821 97.7914 51.0269 91.7376C41.803 85.3973 34.6926 76.0659 31.003 65.4808C30.3403 63.5644 31.3433 61.4689 33.2776 60.7883C35.1941 60.1256 37.2896 61.1286 37.9702 63.0629C41.1404 72.1794 47.2657 80.2033 55.218 85.666C63.1703 91.1287 72.8419 93.9764 82.4957 93.6899C84.5196 93.6361 86.2211 95.2302 86.2927 97.2541C86.3465 99.278 84.7524 100.979 82.7285 101.051C82.1733 101.069 81.636 101.087 81.1166 101.087Z" fill="#00C389"/>
<path d="M53.1595 44.0936C57.031 40.0491 56.5953 33.3491 52.1864 29.1287C47.7774 24.9084 41.0648 24.7658 37.1933 28.8103C33.3218 32.8548 33.7575 39.5548 38.1664 43.7752C42.5754 47.9955 49.288 48.1381 53.1595 44.0936Z" fill="#E4AC7B"/>
<path d="M39.6538 174.502C39.3851 174.502 39.1165 174.466 38.8299 174.413C36.8419 173.965 35.606 171.995 36.0538 170.007L47.1046 121.469C47.5523 119.481 49.5225 118.245 51.5106 118.693C53.4986 119.141 54.7344 121.111 54.2867 123.099L43.2359 171.654C42.8598 173.356 41.3374 174.502 39.6538 174.502Z" fill="#00C389"/>
<path d="M3.68965 173.839C2.68667 173.839 1.66577 173.427 0.949346 172.604C-0.411852 171.081 -0.268568 168.753 1.23591 167.41C21.8151 148.998 27.1703 124.442 27.2241 124.191C27.636 122.203 29.5882 120.932 31.5763 121.344C33.5644 121.756 34.836 123.708 34.4241 125.696C34.3703 125.983 32.9375 132.645 28.7464 141.798C24.8957 150.215 17.839 162.43 6.14339 172.89C5.42697 173.517 4.54936 173.839 3.68965 173.839Z" fill="#59CBE8"/>
<path d="M75.5287 95.7496C75.4212 95.7496 75.3137 95.7496 75.2063 95.7317C62.2391 94.0123 56.9913 89.5526 55.2719 88.0839C55.2182 88.0302 55.1465 87.9765 55.0749 87.9227C54.1973 87.4392 53.6779 86.4183 53.8749 85.3615C54.1256 84.0541 55.3794 83.1765 56.6868 83.4272C57.4212 83.5705 57.8689 83.9466 58.3883 84.3944C59.8391 85.6302 64.2809 89.3914 75.8331 90.9317C77.1585 91.1108 78.0899 92.3287 77.9108 93.6541C77.7496 94.872 76.7108 95.7496 75.5287 95.7496Z" fill="#FDDA24"/>
<path d="M53.9105 130.335L63.1523 89.069L62.1135 89.0869C39.6358 89.3197 21.7791 105.529 17.0686 130.012L53.9105 130.335Z" fill="#2C2A29"/>
<path d="M92.1853 63.2779L88.8898 63.4749C88.1017 63.5286 87.439 62.9197 87.3853 62.1316L86.9017 53.9465C86.848 53.1584 87.457 52.4957 88.245 52.442L91.5406 52.245C92.3286 52.1913 92.9913 52.8002 93.045 53.5883L93.5286 61.7734C93.5644 62.5435 92.9734 63.2241 92.1853 63.2779Z" fill="#F5B6CD"/>
<path d="M62.2032 93.4034L42.5912 93.7616L27.2598 56.3107C27.2598 56.3107 83.9107 28.1196 62.2032 93.4034Z" fill="#9063CD"/>
<path d="M62.436 76.1019C53.2121 76.1019 44.2926 73.881 36.4836 69.6362C34.6926 68.669 34.0299 66.4302 35.015 64.6391C35.9822 62.8481 38.221 62.1854 40.012 63.1705C54.9315 71.2839 74.4897 70.4421 88.6569 61.0749C90.3584 59.9466 92.6331 60.4123 93.7614 62.1138C94.8898 63.8152 94.4241 66.0899 92.7226 67.2182C84.645 72.5556 75.045 75.6183 64.9434 76.0481C64.1016 76.0839 63.2599 76.1019 62.436 76.1019Z" fill="#FF7F41"/>
<path d="M62.6688 71.9108C53.7494 71.9108 47.2658 69.6004 46.8538 69.4571C45.6001 68.9914 44.9553 67.6123 45.4031 66.3586C45.8688 65.1048 47.2479 64.46 48.5016 64.9078C48.6986 64.9795 62.5255 69.8332 76.836 64.6929C78.0898 64.2451 79.4689 64.8899 79.9345 66.1436C80.3823 67.3974 79.7375 68.7765 78.4838 69.2422C72.8957 71.2481 67.433 71.9108 62.6688 71.9108Z" fill="#FDDA24"/>
<path d="M141.224 56.6331L110.902 56.1853C110.311 56.1853 109.827 55.6838 109.827 55.0928L110.275 24.7703C110.275 24.1793 110.776 23.6957 111.367 23.6957L141.69 24.1434C142.281 24.1434 142.765 24.6449 142.765 25.236L142.317 55.5585C142.317 56.1495 141.833 56.6331 141.224 56.6331Z" fill="#F5B6CD"/>
<path d="M124.663 23.8892L124.186 56.3756L127.947 56.4309L128.424 23.9445L124.663 23.8892Z" fill="#59CBE8"/>
<path d="M110.089 38.0415L110.034 41.8024L142.52 42.2788L142.575 38.5179L110.089 38.0415Z" fill="#59CBE8"/>
<path d="M126.538 26.1494C126.305 26.1494 126.072 26.1136 125.839 26.024L114.967 21.7076C113.409 21.0986 112.281 19.7553 111.905 18.1255C111.529 16.4956 111.994 14.7941 113.123 13.5762C114.126 12.4837 115.558 11.8926 117.045 11.9464C118.532 12.0001 119.911 12.7165 120.824 13.8986L128.024 23.1225C128.544 23.7852 128.562 24.7345 128.042 25.4151C127.684 25.8807 127.111 26.1494 126.538 26.1494ZM116.83 15.6897C116.597 15.6897 116.203 15.7434 115.881 16.1016C115.469 16.5494 115.523 17.0688 115.576 17.2658C115.63 17.4628 115.791 17.9643 116.364 18.1792L120.806 19.9524L117.869 16.1732C117.547 15.7613 117.117 15.6897 116.902 15.6717C116.884 15.6897 116.866 15.6897 116.83 15.6897Z" fill="#59CBE8"/>
<path d="M126.538 26.1494C125.946 26.1494 125.355 25.8628 124.997 25.3434C124.514 24.6449 124.549 23.7136 125.087 23.0688L132.555 14.0598C133.505 12.9135 134.902 12.2508 136.388 12.2329C137.875 12.215 139.29 12.8419 140.275 13.9702C141.367 15.224 141.779 16.9434 141.35 18.5553C140.92 20.1673 139.755 21.4747 138.179 22.0479L127.182 26.0419C126.967 26.1136 126.752 26.1494 126.538 26.1494ZM136.46 15.9762C136.442 15.9762 136.442 15.9762 136.46 15.9762C136.227 15.9762 135.797 16.0479 135.457 16.4419L132.412 20.1314L136.908 18.5016C137.481 18.2867 137.678 17.8031 137.714 17.6061C137.767 17.4091 137.839 16.8896 137.445 16.424C137.105 16.0299 136.675 15.9762 136.46 15.9762Z" fill="#59CBE8"/>
<path d="M99.9227 10.3165C113.678 -3.43882 136.066 -3.43882 149.839 10.3165C163.595 24.0717 163.595 46.4598 149.839 60.233C144.717 65.3554 138.233 68.7405 131.105 70.0122C124.156 71.248 117.063 70.4062 110.633 67.5763C109.147 66.9136 108.466 65.1763 109.129 63.6718C109.791 62.1853 111.529 61.5047 113.033 62.1674C118.388 64.5315 124.299 65.23 130.084 64.1912C136.012 63.1345 141.403 60.3226 145.666 56.042C157.129 44.5792 157.129 25.9523 145.666 14.4896C134.203 3.02688 115.577 3.02688 104.114 14.4896C100.568 18.0359 97.9884 22.4419 96.6272 27.224C96.1794 28.8001 94.5496 29.7135 92.9735 29.2658C91.3973 28.818 90.4839 27.1881 90.9317 25.612C92.5615 19.8627 95.6779 14.5791 99.9227 10.3165Z" fill="#00C389"/>
</g>
<defs>
<clipPath id="clip0">
<rect width="160.156" height="174.502" fill="white"/>
</clipPath>
</defs>
</svg>
